<?xml version="1.0" encoding="utf-8"?>
<!-- Generator: Adobe Illustrator 16.0.0, SVG Export Plug-In . SVG Version: 6.00 Build 0)  -->
<!DOCTYPE svg PUBLIC "-//W3C//DTD SVG 1.1//EN" "http://www.w3.org/Graphics/SVG/1.1/DTD/svg11.dtd">
<svg version="1.1" id="Layer_1" xmlns="http://www.w3.org/2000/svg" xmlns:xlink="http://www.w3.org/1999/xlink" x="0px" y="0px"
	 width="100px" height="100px" viewBox="0 0 100 100" enable-background="new 0 0 100 100" xml:space="preserve">
<g>
	<g>
		
			<radialGradient id="SVGID_1_" cx="73.8447" cy="23.3623" r="41.1308" fx="71.059" fy="30.9766" gradientTransform="matrix(0.9171 -0.3987 0.3987 0.9171 -33.8278 44.2192)" gradientUnits="userSpaceOnUse">
			<stop  offset="0" style="stop-color:#8C93A4"/>
			<stop  offset="1" style="stop-color:#000426"/>
		</radialGradient>
		<path fill="url(#SVGID_1_)" d="M54.28,53.816L42,63.578c-2.061,1.637-4.145,3.627-5.096,5.523
			c6.569,3.234,14.458,3.674,21.696,0.527c0.728-0.311,1.421-0.656,2.102-1.025c10.613-5.795,15.744-18.234,12.404-29.761
			L54.28,53.816z"/>
		
			<radialGradient id="SVGID_2_" cx="73.8447" cy="23.3574" r="41.137" fx="71.0586" fy="30.9729" gradientTransform="matrix(0.9171 -0.3987 0.3987 0.9171 -33.8278 44.2192)" gradientUnits="userSpaceOnUse">
			<stop  offset="0" style="stop-color:#8C93A4"/>
			<stop  offset="1" style="stop-color:#000426"/>
		</radialGradient>
		<path fill="url(#SVGID_2_)" d="M49.432,42.668L67.276,28.48C60.55,21.184,49.983,18.25,40.222,21.49
			c-0.733,0.241-1.462,0.516-2.184,0.833C24.977,28,18.99,43.197,24.66,56.258c0.728,1.668,1.608,3.223,2.624,4.648
			c1.656-1.736,3.54-3.439,5.506-5L49.432,42.668z"/>
	</g>
	<path fill="#FFFFFF" d="M68.732,29.743L68.732,29.743L68.732,29.743v-0.006l0,0c-0.494-0.617-0.998-1.197-1.525-1.755
		c-0.207-0.211-0.412-0.422-0.611-0.628c-0.171-0.159-0.341-0.322-0.51-0.481c-0.693-0.646-1.415-1.244-2.167-1.802
		c-0.704-0.534-1.444-1.027-2.195-1.479c-0.752-0.446-1.515-0.857-2.295-1.221c-0.522-0.247-1.051-0.469-1.579-0.681
		c-0.834-0.323-1.679-0.604-2.542-0.846c-0.205-0.059-0.417-0.111-0.616-0.164c-0.751-0.188-1.509-0.346-2.266-0.464
		c-0.388-0.059-0.763-0.111-1.15-0.159c-0.5-0.059-0.998-0.1-1.503-0.123c-0.428-0.024-0.869-0.042-1.303-0.047
		c-0.123,0-0.259,0-0.382,0c-0.428,0.005-0.851,0.023-1.274,0.047c-0.88,0.047-1.75,0.141-2.612,0.282
		c-0.312,0.047-0.623,0.1-0.927,0.165c-0.359,0.064-0.711,0.146-1.063,0.229c-0.176,0.047-0.364,0.088-0.552,0.141
		c-0.299,0.076-0.604,0.165-0.904,0.252c-0.481,0.147-0.962,0.311-1.432,0.487c-0.124,0.041-0.247,0.088-0.364,0.135
		c-0.658,0.252-1.315,0.534-1.955,0.839c-0.159,0.083-0.311,0.159-0.476,0.241c-0.417,0.211-0.833,0.435-1.244,0.675
		c-0.211,0.117-0.412,0.24-0.611,0.364c-0.093,0.053-0.188,0.111-0.276,0.17c-0.164,0.106-0.323,0.212-0.487,0.317
		c-0.299,0.199-0.599,0.405-0.892,0.616c-0.258,0.193-0.528,0.394-0.787,0.593c-0.053,0.041-0.1,0.083-0.152,0.117l0,0l0,0l0,0
		v0.006l0,0l0,0l0,0l-0.036,0.03l-0.011,0.006l0,0l-0.006,0.006v0.006h-0.006l0,0h-0.012l-0.176,0.153
		c-0.223,0.182-0.434,0.358-0.651,0.545c-0.299,0.259-0.593,0.528-0.875,0.799c-0.305,0.293-0.61,0.598-0.904,0.903
		c-0.083,0.094-0.176,0.188-0.265,0.282c-0.264,0.288-0.522,0.582-0.774,0.869c-0.17,0.206-0.341,0.417-0.511,0.628
		c-0.382,0.487-0.746,0.98-1.092,1.492c-0.375,0.54-0.716,1.097-1.045,1.661c-0.082,0.141-0.164,0.282-0.24,0.422
		c-0.37,0.675-0.71,1.362-1.016,2.067c-0.376,0.839-0.698,1.69-0.975,2.56c-0.193,0.599-0.364,1.203-0.511,1.813
		c-0.064,0.27-0.123,0.539-0.182,0.815c-0.165,0.793-0.305,1.592-0.387,2.396l-0.024,0.188c-0.093,0.909-0.146,1.825-0.146,2.734
		c0,0.235,0,0.47,0.006,0.705c0.012,0.287,0.018,0.575,0.035,0.862c0.159,2.724,0.746,5.436,1.762,8.03l0.722,1.65
		c0.839,1.754,1.884,3.439,3.141,5.025l0,0l0,0v0.004l0,0c0.493,0.611,1.009,1.197,1.538,1.762c0.2,0.207,0.399,0.412,0.611,0.609
		c0.165,0.172,0.329,0.33,0.504,0.488c0.681,0.635,1.38,1.223,2.102,1.768c0.705,0.527,1.433,1.016,2.172,1.467
		c0.241,0.143,0.481,0.283,0.716,0.416c0.552,0.307,1.109,0.594,1.679,0.863c0.822,0.383,1.667,0.729,2.53,1.029
		c0.728,0.246,1.461,0.469,2.201,0.656c0.165,0.035,0.317,0.076,0.47,0.111c0.64,0.148,1.286,0.27,1.937,0.369
		c0.329,0.053,0.669,0.094,1.004,0.135c0.275,0.035,0.557,0.061,0.833,0.084c0.264,0.023,0.534,0.041,0.799,0.053
		c0.393,0.023,0.78,0.029,1.168,0.035c0.129,0,0.258,0,0.387,0c0.422-0.006,0.857-0.02,1.279-0.041
		c0.394-0.023,0.788-0.059,1.186-0.1c0.775-0.076,1.55-0.193,2.313-0.342c0.358-0.07,0.71-0.146,1.063-0.229
		c0.194-0.047,0.382-0.094,0.569-0.146c0.101-0.029,0.2-0.047,0.312-0.076c0.223-0.064,0.452-0.131,0.675-0.199
		c0.458-0.141,0.904-0.289,1.351-0.459c0.164-0.059,0.328-0.123,0.493-0.188c0.657-0.252,1.314-0.535,1.948-0.85
		c0.117-0.061,0.235-0.113,0.353-0.178c0.446-0.223,0.892-0.463,1.326-0.715c0.271-0.16,0.54-0.324,0.811-0.494
		c0.152-0.1,0.316-0.199,0.47-0.313c0.299-0.197,0.599-0.404,0.892-0.615c0.253-0.182,0.505-0.369,0.758-0.563l0.088-0.072
		c0.041-0.029,0.083-0.064,0.117-0.088l0,0l0,0l0,0l0,0v-0.006h0.006l0,0l0,0c0.053-0.039,0.112-0.088,0.158-0.129l0,0l0.007-0.006
		h0.005l0.019-0.018l0,0l0.006-0.004l0,0l0.005-0.008h0.007v-0.006l0.005-0.006h0.007l0,0l0,0l0.029-0.023
		c0.534-0.434,1.039-0.885,1.526-1.35c0.311-0.293,0.604-0.592,0.897-0.904c0.095-0.088,0.176-0.182,0.271-0.275
		c0.294-0.324,0.575-0.652,0.856-0.98c0.575-0.688,1.104-1.396,1.597-2.125c0.435-0.645,0.84-1.309,1.21-1.979
		c0.104-0.188,0.199-0.375,0.305-0.563c0.411-0.799,0.78-1.609,1.116-2.443c0.205-0.533,0.398-1.074,0.575-1.619
		c0.258-0.828,0.48-1.668,0.668-2.512c0.177-0.828,0.306-1.668,0.411-2.507l0.012-0.117c0.1-0.934,0.152-1.866,0.152-2.806
		c0-0.234,0-0.465-0.005-0.699c-0.007-0.288-0.019-0.575-0.041-0.868c-0.152-2.718-0.739-5.43-1.762-8.024l-0.716-1.656
		C71.039,33.006,69.994,31.322,68.732,29.743z M62.281,24.601c0.722,0.47,1.427,0.986,2.106,1.538
		c0.799,0.646,1.567,1.35,2.29,2.102c0.188,0.194,0.375,0.388,0.552,0.587c0.235,0.259,0.464,0.522,0.687,0.793
		c0.064,0.082,0.136,0.165,0.2,0.24l-0.071,0.065l-0.251,0.2l-0.224,0.176l-0.023,0.017c-0.786-0.975-1.632-1.878-2.524-2.718
		c-0.775-0.733-1.603-1.415-2.447-2.043c-0.265-0.193-0.522-0.381-0.793-0.563l0.411-0.323L62.281,24.601z M37.445,46.502
		c0.992,1.496,2.078,3.017,3.264,4.525c0.1,0.129,0.199,0.258,0.305,0.393l-0.106,0.084l-0.962,0.762l-0.282,0.23l-0.857,0.68
		l-0.576,0.457l-1.303,1.033l-1.069,0.848c-0.27-0.336-0.528-0.682-0.775-1.029c-0.387-0.521-0.757-1.049-1.109-1.578
		c-0.875-1.309-1.643-2.625-2.318-3.951l0.446-0.353l0.305-0.246l1.321-1.051l1.297-1.027l0.576-0.465l0.857-0.674l0.07-0.059
		C36.823,45.551,37.128,46.026,37.445,46.502z M33.659,38.695l-0.018-0.035l0,0l0.293-0.229l0.963-0.762l0.91-0.729l1.837-1.456
		l0.857-0.687l0.34-0.27l0.387,0.493l0.763,0.957l1.69,2.125l1.057,1.328l-0.364,0.281l-0.563,0.458l-0.258,0.205l-0.47,0.37
		l-0.857,0.686l-1.837,1.457l-0.91,0.728l-0.81,0.64c-0.258-0.41-0.504-0.828-0.739-1.238C35.062,41.53,34.305,40.085,33.659,38.695
		z M39.752,48.843c-1.004-1.379-1.937-2.758-2.782-4.108l0.745-0.592l0.904-0.723l1.837-1.462l0.863-0.681l0.469-0.382l0.252-0.199
		l0.569-0.452l0.476-0.376l2.008,2.524l1.262,1.591l1.555,1.954l-0.522,0.412l-0.428,0.339l-1.151,0.916l-0.569,0.453l-0.258,0.205
		l-0.464,0.37l-0.863,0.687l-1.831,1.461l-0.376,0.293C40.861,50.33,40.298,49.589,39.752,48.843z M43.526,39.516l0.235-0.188
		l0.428-0.341l1.72-1.373l0.317-0.247l1.221-0.968l0.757-0.604l0.452-0.364l0.863-0.681l0.146-0.112
		c0.488,0.487,0.974,0.992,1.461,1.515c1.251,1.327,2.489,2.759,3.704,4.273l-1.368,1.093l-0.745,0.592l-0.856,0.681l-0.458,0.364
		l-0.758,0.604l-1.215,0.97l-0.317,0.251l-0.763,0.605L45.499,42l-1.268-1.59L43.526,39.516z M42.047,51.311l1.843-1.462
		l0.857-0.688l0.469-0.363l0.258-0.212l0.569-0.451l1.145-0.916l0.428-0.334l0.64-0.512l3.217,4.045l0.933,1.174l0.676,0.852
		l-0.229,0.182l-0.311,0.246l-1.726,1.367l-0.423,0.348l-1.151,0.908l-0.569,0.459l-0.264,0.205l-0.458,0.363l-0.863,0.688
		l-0.123,0.1c-1.485-1.492-2.982-3.135-4.438-4.9c-0.247-0.295-0.488-0.594-0.729-0.9L42.047,51.311z M51.545,49.607l-0.927-1.174
		l-1.92-2.407l0.646-0.516l0.311-0.247l1.221-0.969l0.763-0.604l0.452-0.357l0.863-0.692l0.739-0.587l1.491-1.186
		c0.587,0.744,1.156,1.496,1.702,2.241c1.01,1.38,1.931,2.747,2.776,4.098l-0.733,0.592l-2.037,1.615l-0.745,0.592l-0.857,0.682
		l-0.458,0.357l-0.751,0.604l-0.558,0.441L51.545,49.607z M54.31,52.178l0.758-0.598l0.452-0.359l0.862-0.693l0.739-0.58l2.031-1.62
		l0.811-0.64c0.258,0.423,0.511,0.845,0.757,1.261c0.852,1.469,1.603,2.895,2.242,4.274l0.029,0.053l0,0l-0.293,0.229l-0.963,0.77
		l-2.031,1.615l-0.739,0.586l-0.863,0.688l-0.335,0.27l-0.352-0.441l-2.242-2.828l-1.304-1.633L54.31,52.178z M59.199,45.458
		c-0.997-1.497-2.084-3.018-3.264-4.532c-0.105-0.136-0.211-0.27-0.317-0.405l0.106-0.082l0.963-0.77l0.281-0.228l0.963-0.758
		l1.872-1.491l0.969-0.769c0.682,0.874,1.314,1.761,1.914,2.653c0.757,1.145,1.443,2.3,2.054,3.463
		c0.083,0.146,0.158,0.299,0.234,0.446l-0.028,0.022l-0.411,0.324l-1.532,1.221l-1.878,1.491l-0.951,0.757l-0.07,0.058
		C59.81,46.39,59.511,45.926,59.199,45.458z M57.544,31.985c-0.704-0.675-1.409-1.321-2.125-1.925l0.951-0.763l1.538-1.215
		l0.411-0.329l0.716-0.57c0.622,0.458,1.238,0.945,1.831,1.462c0.764,0.652,1.491,1.344,2.195,2.078
		c0.559,0.593,1.104,1.209,1.632,1.861l-0.609,0.487l-0.952,0.763l-1.619,1.28l-0.405,0.329l-0.247,0.199
		C59.798,34.328,58.688,33.106,57.544,31.985z M58.154,33.406c0.781,0.81,1.532,1.679,2.267,2.583l-0.846,0.675l-1.879,1.485
		l-0.956,0.763l-0.288,0.229l-0.957,0.763l-0.223,0.182c-1.567-1.961-3.176-3.774-4.79-5.412c-0.123-0.129-0.252-0.259-0.382-0.394
		l0.165-0.117l2.024-1.621l0.963-0.763l0.288-0.223l0.95-0.763l0.481-0.381C56.064,31.328,57.127,32.325,58.154,33.406z
		 M54.269,30.259l-0.963,0.763l-0.281,0.223l-0.963,0.769l-2.031,1.62l-0.323,0.252c-0.322-0.316-0.646-0.628-0.969-0.933
		c-0.64-0.604-1.28-1.18-1.913-1.732c-0.317-0.275-0.634-0.545-0.963-0.81c-0.305-0.253-0.61-0.499-0.916-0.734l0.446-0.358
		l0.446-0.358l0.862-0.687l0.746-0.587l1.603-1.274c0.252,0.129,0.499,0.264,0.757,0.399c0.587,0.334,1.168,0.692,1.755,1.068
		c0.182,0.118,0.358,0.235,0.534,0.364c0.64,0.423,1.269,0.887,1.89,1.368c0.183,0.146,0.364,0.288,0.547,0.44L54.269,30.259z
		 M46.368,31.563c0.329,0.282,0.657,0.569,0.986,0.869c0.634,0.575,1.268,1.18,1.913,1.808l-0.839,0.664l-0.452,0.358l-0.763,0.604
		l-1.215,0.975l-0.317,0.252l-1.726,1.368l-0.422,0.334l-0.358,0.287l-2.36-2.964l-1.538-1.937l0.517-0.411l1.157-0.916l0.428-0.34
		l1.726-1.368l0.305-0.252l1.086-0.863c0.094,0.07,0.182,0.147,0.275,0.217C45.299,30.665,45.827,31.104,46.368,31.563z
		 M43.18,30.365l-0.311,0.246l-1.726,1.368l-0.428,0.346l-1.145,0.91l-0.575,0.458l-0.064,0.053l-0.57-0.716l-1.385-1.744
		l-0.646-0.815l0.217-0.17l0.47-0.376l0.252-0.205l0.576-0.453l1.15-0.91l0.422-0.347l0.963-0.763
		c0.429,0.24,0.869,0.505,1.315,0.798l0.076,0.041c0.193,0.129,0.394,0.258,0.593,0.393c0.545,0.37,1.109,0.77,1.679,1.198
		L43.18,30.365z M37.845,33.277l0.646,0.816l-0.211,0.176l-0.869,0.681l-1.837,1.462l-0.904,0.728l-0.962,0.764l-0.288,0.229
		l-0.012,0.006c-0.199-0.44-0.387-0.887-0.563-1.309c-0.176-0.458-0.352-0.904-0.505-1.344c-0.182-0.499-0.34-0.986-0.481-1.461
		l0.123-0.094l0.957-0.763l0.916-0.722l1.831-1.462l0.206-0.164L37.845,33.277z M36.23,44.6v0.006l0,0l-0.857,0.681l-0.576,0.458
		L33.5,46.778l-1.315,1.045l-0.311,0.247l-0.47,0.375c-1.015-2.072-1.791-4.145-2.319-6.164l0.2-0.158l0.316-0.246l1.315-1.045
		l1.291-1.034l0.581-0.451l0.405-0.329C34.029,40.801,35.044,42.681,36.23,44.6z M35.044,55.377
		c0.124,0.158,0.253,0.322,0.382,0.494l-0.129,0.094l-1.421,1.133l-1.549,1.232l-0.74,0.588c-0.247-0.318-0.493-0.641-0.722-0.963
		c-0.593-0.822-1.133-1.662-1.626-2.514c-0.623-1.068-1.168-2.154-1.644-3.264l0.164-0.129l0.405-0.316l0.963-0.764l1.543-1.233
		l0.541-0.428C32.268,51.355,33.542,53.398,35.044,55.377z M32.562,58.865l1.543-1.234l1.427-1.137l0.246-0.189
		c0.064,0.082,0.135,0.164,0.206,0.254c1.062,1.303,2.183,2.512,3.34,3.627c0.622,0.598,1.256,1.156,1.884,1.695l-0.851,0.682
		l-1.31,1.045l-0.316,0.246l-1.133,0.904c-0.199-0.141-0.387-0.289-0.576-0.434c-1.203-0.924-2.348-1.957-3.433-3.09
		c-0.57-0.598-1.122-1.227-1.656-1.883L32.562,58.865z M38.725,58.793c-0.869-0.891-1.703-1.83-2.512-2.836l0.951-0.756l1.291-1.033
		l0.576-0.457l0.863-0.682l0.288-0.229l0.962-0.77l0.217-0.17c0.64,0.799,1.286,1.574,1.943,2.318
		c1.063,1.232,2.148,2.395,3.223,3.477l-1.273,1.014l-0.91,0.723l-0.963,0.764l-0.287,0.234l-0.857,0.682l-0.576,0.457h-0.006
		C40.656,60.689,39.676,59.779,38.725,58.793z M42.464,61.6l0.851-0.68l0.293-0.23l0.963-0.77l0.91-0.721l1.438-1.145
		c0.305,0.299,0.616,0.598,0.927,0.885c0.634,0.611,1.274,1.186,1.908,1.732c0.328,0.293,0.663,0.574,0.992,0.846
		c0.176,0.146,0.357,0.293,0.539,0.428c0.13,0.111,0.259,0.217,0.399,0.324l-0.199,0.15l-0.259,0.207l-0.469,0.369l-0.857,0.688
		l-1.832,1.461l-0.493,0.389c-0.247-0.123-0.493-0.26-0.739-0.4c-0.587-0.328-1.174-0.688-1.755-1.063
		c-0.182-0.117-0.37-0.246-0.546-0.363c-0.563-0.387-1.127-0.793-1.691-1.221c-0.246-0.195-0.499-0.389-0.751-0.594L42.464,61.6z
		 M50.794,60.83c-0.176-0.152-0.364-0.305-0.553-0.469c-0.334-0.289-0.674-0.588-1.009-0.898c-0.623-0.557-1.245-1.145-1.867-1.762
		l0.81-0.65l0.47-0.371l0.258-0.199l0.569-0.459l1.15-0.908l0.429-0.342l1.727-1.367l0.305-0.252l0.347-0.275l2.601,3.27
		l1.303,1.631l-0.446,0.348l-1.216,0.967l-0.316,0.254l-1.72,1.373l-0.429,0.334l-1.074,0.857l-0.152-0.123
		C51.592,61.482,51.192,61.166,50.794,60.83z M53.44,61.588l0.423-0.342l1.721-1.371l0.316-0.248l1.221-0.969l0.553-0.445
		l0.609,0.762l1.345,1.697l0.651,0.816l-0.223,0.176l-0.446,0.357l-0.763,0.605l-1.222,0.975l-0.317,0.246l-1.062,0.846
		c-0.394-0.225-0.792-0.459-1.191-0.711l-0.117-0.07c-0.224-0.152-0.458-0.305-0.693-0.463c-0.54-0.363-1.092-0.764-1.655-1.191
		L53.44,61.588z M58.765,58.682l-0.646-0.816l0.218-0.17l0.862-0.686l0.74-0.594l2.03-1.613l0.957-0.77l0.288-0.223l0.012-0.008
		c0.206,0.459,0.399,0.912,0.581,1.363c0.176,0.434,0.346,0.875,0.492,1.303c0.177,0.494,0.336,0.975,0.477,1.445l-0.117,0.1
		l-0.963,0.756l-2.031,1.615l-0.746,0.6l-0.199,0.156L58.765,58.682z M60.403,47.347v-0.019l0,0l0.956-0.757l1.867-1.49l1.543-1.215
		l0.405-0.329l0.053-0.041c0.641,1.314,1.192,2.63,1.639,3.933c0.258,0.746,0.481,1.491,0.681,2.225l-0.199,0.153l-1.533,1.22
		l-1.872,1.492l-0.505,0.398C62.604,51.139,61.589,49.266,60.403,47.347z M63.015,38.559c-0.445-0.656-0.915-1.314-1.408-1.96
		c-0.129-0.176-0.264-0.352-0.399-0.522l0.129-0.1l0.411-0.329l1.614-1.28l0.945-0.757l0.739-0.581
		c0.775,0.986,1.479,2.007,2.102,3.052c0.728,1.197,1.355,2.431,1.885,3.674l-0.207,0.171l-1.314,1.039l-0.95,0.758l-1.14,0.909
		C64.717,41.266,63.913,39.898,63.015,38.559z M62.452,29.32c-0.67-0.64-1.362-1.244-2.073-1.808
		c-0.299-0.235-0.593-0.464-0.897-0.687l0.445-0.352l0.952-0.757l0.451-0.358c0.581,0.394,1.145,0.81,1.709,1.256
		c0.897,0.723,1.761,1.509,2.582,2.366c0.517,0.534,1.011,1.098,1.491,1.679l-0.563,0.452l-1.156,0.921l-0.264,0.206
		C64.283,31.199,63.391,30.224,62.452,29.32z M60.649,25.182l-0.951,0.763l-0.687,0.54c-0.569-0.405-1.156-0.786-1.749-1.145
		c-0.247-0.153-0.493-0.293-0.74-0.435c-0.856-0.487-1.743-0.928-2.629-1.314c-0.282-0.124-0.57-0.241-0.857-0.352l0.517-0.412
		l0.95-0.751c0.306,0.094,0.623,0.199,0.928,0.311c0.218,0.07,0.435,0.159,0.657,0.241c0.916,0.346,1.814,0.757,2.701,1.215
		c0.575,0.299,1.138,0.628,1.702,0.975c0.117,0.07,0.234,0.141,0.346,0.217L60.649,25.182z M54.222,24.349
		c0.904,0.417,1.802,0.892,2.683,1.42c0.253,0.153,0.499,0.311,0.751,0.469c0.3,0.199,0.605,0.399,0.904,0.61l-0.476,0.376
		l-0.41,0.329l-1.533,1.221l-1.162,0.921c-0.476-0.393-0.962-0.769-1.449-1.127c-0.605-0.446-1.221-0.869-1.832-1.262
		c-0.176-0.112-0.352-0.223-0.528-0.334c-0.546-0.334-1.092-0.646-1.638-0.939l0.91-0.728l0.281-0.229l0.963-0.763l0.846-0.669
		C53.101,23.855,53.664,24.09,54.222,24.349z M51.451,23.785L50.5,24.548l-0.293,0.229l-0.963,0.763l-0.258,0.206
		c-0.98-0.499-1.967-0.928-2.941-1.286l-0.146-0.058c-0.346-0.124-0.687-0.235-1.027-0.335c-0.111-0.041-0.235-0.077-0.352-0.111
		l0.229-0.176l0.74-0.599l1.238-0.98c0.381,0.047,0.763,0.099,1.139,0.17c0.3,0.046,0.605,0.105,0.898,0.164
		c0.176,0.035,0.352,0.077,0.528,0.118c0.141,0.029,0.282,0.064,0.422,0.099c0.494,0.129,0.986,0.265,1.467,0.422
		c0.246,0.077,0.493,0.153,0.74,0.241L51.451,23.785z M45.17,24.741c0.176,0.064,0.352,0.124,0.534,0.188
		c0.217,0.076,0.44,0.158,0.652,0.247c0.716,0.275,1.432,0.593,2.148,0.951l-1.291,1.027l-0.739,0.593l-0.857,0.681l-0.458,0.358
		l-0.669,0.534l-0.177-0.135c-0.786-0.594-1.561-1.127-2.312-1.609l-0.047-0.029c-0.188-0.13-0.388-0.241-0.575-0.359
		c-0.176-0.105-0.352-0.217-0.528-0.311l0.288-0.235l0.317-0.252l1.215-0.969l0.763-0.599l0.458-0.364l0.088-0.076
		C44.372,24.489,44.771,24.612,45.17,24.741z M43.203,24.29l-0.757,0.604l-1.221,0.969l-0.317,0.247l-0.587,0.47
		c-0.669-0.364-1.315-0.675-1.931-0.928c-0.235-0.1-0.464-0.188-0.693-0.27c-0.123-0.041-0.252-0.088-0.369-0.129l0.234-0.182
		l0.423-0.346l1.238-0.98c0.217-0.006,0.44,0,0.663,0.006c0.141,0.005,0.282,0.012,0.423,0.018c0.57,0.035,1.145,0.1,1.731,0.194
		c0.37,0.059,0.746,0.135,1.116,0.217l0.135,0.035L43.203,24.29z M38.008,26.085c0.229,0.094,0.458,0.194,0.705,0.306
		c0.37,0.17,0.751,0.358,1.139,0.563l-0.67,0.528l-0.422,0.341l-1.15,0.916l-0.575,0.446l-0.252,0.205l-0.464,0.376l-0.341,0.27
		l-1.549-1.954l-0.258-0.323l0.088-0.07l0.863-0.681l0.464-0.37l0.258-0.206l0.57-0.452l0.394-0.317
		C37.192,25.78,37.592,25.922,38.008,26.085z M35.285,30.06l0.258,0.322l-0.094,0.07l-1.832,1.456l-0.904,0.722L31.751,33.4
		l-0.059,0.042c-0.035-0.142-0.07-0.276-0.105-0.411c-0.258-1.027-0.417-1.984-0.47-2.841l0.394-0.312l0.909-0.722l1.315-1.045
		L35.285,30.06z M30.625,30.817c0.046,0.44,0.117,0.892,0.211,1.373c0.1,0.522,0.229,1.063,0.387,1.626l-0.622,0.494l-0.576,0.463
		l-1.303,1.028l-0.475,0.382c0-0.47,0.017-0.928,0.047-1.38c0.064-0.939,0.199-1.843,0.405-2.688l0.129-0.1l0.575-0.458l0.856-0.687
		l0.288-0.229l0.053-0.041C30.612,30.67,30.612,30.741,30.625,30.817z M28.957,36.334l1.297-1.032l0.582-0.464l0.552-0.44
		c0.129,0.417,0.27,0.845,0.423,1.279c0.322,0.904,0.704,1.844,1.15,2.817l-0.399,0.317L31.98,39.27l-1.297,1.033l-1.315,1.045
		l-0.311,0.247l-0.118,0.094c-0.053-0.248-0.111-0.494-0.17-0.74c-0.106-0.553-0.206-1.098-0.282-1.638
		c-0.03-0.206-0.059-0.416-0.088-0.623c-0.064-0.609-0.123-1.215-0.135-1.801L28.957,36.334z M27.742,37.597
		c0.018,0.382,0.059,0.775,0.106,1.155l0.006,0.083c0.129,1.057,0.334,2.137,0.611,3.24l-0.834,0.651l-1.549,1.233l-0.552,0.44
		c-0.076-0.682-0.123-1.362-0.141-2.037c-0.012-0.412-0.018-0.822-0.012-1.233c0.018-0.692,0.064-1.379,0.141-2.061l0.388-0.311
		l1.426-1.133l0.311-0.246l0.083-0.06C27.725,37.409,27.73,37.502,27.742,37.597z M26.315,44.495l1.549-1.233l0.751-0.599
		c0.54,2.014,1.327,4.079,2.342,6.141l-0.51,0.405l-1.556,1.227l-0.963,0.77l-0.399,0.314l-0.153,0.125
		c-0.335-0.822-0.628-1.656-0.875-2.496c-0.282-0.933-0.511-1.866-0.681-2.799c-0.082-0.435-0.152-0.863-0.211-1.298L26.315,44.495z
		 M25.229,46.231c0.346,1.933,0.91,3.869,1.696,5.777l-0.534,0.416L25.4,53.217l-0.223,0.176l-0.082,0.064
		c-0.123-0.352-0.241-0.703-0.352-1.063c-0.188-0.604-0.353-1.221-0.5-1.824c-0.299-1.315-0.505-2.636-0.604-3.958l0.17-0.129
		l1.139-0.904l0.159-0.122C25.142,45.715,25.183,45.968,25.229,46.231z M25.406,53.922l0.223-0.176l0.992-0.787l0.528-0.418
		c0.88,2.045,2.02,4.033,3.404,5.936c0.194,0.264,0.394,0.523,0.599,0.787l-0.188,0.152l-1.139,0.904l-0.657,0.521
		c-0.405-0.521-0.787-1.057-1.151-1.596c-0.352-0.533-0.692-1.074-1.003-1.627c-0.669-1.174-1.239-2.377-1.708-3.609L25.406,53.922z
		 M30.055,60.848l1.139-0.904l0.312-0.24c0.082,0.107,0.17,0.217,0.258,0.324c0.775,0.926,1.585,1.801,2.437,2.611
		c0.945,0.898,1.931,1.727,2.946,2.484l-1.391,1.096l-0.458,0.365c-0.329-0.223-0.658-0.459-0.986-0.705
		c-0.271-0.199-0.54-0.41-0.81-0.627c-0.892-0.717-1.744-1.504-2.56-2.35c-0.493-0.516-0.962-1.063-1.42-1.625L30.055,60.848z
		 M35.989,66.754l1.55-1.232l0.077-0.064c0.816,0.58,1.655,1.115,2.506,1.59c0.188,0.105,0.364,0.205,0.552,0.307
		c0.734,0.393,1.479,0.75,2.236,1.072c0.223,0.094,0.452,0.195,0.675,0.283l-0.411,0.322l-1.051,0.84
		c-0.135-0.049-0.276-0.088-0.417-0.137c-0.165-0.057-0.329-0.109-0.494-0.17c-0.786-0.275-1.567-0.592-2.331-0.951
		c-0.933-0.434-1.849-0.92-2.729-1.473c-0.117-0.076-0.241-0.152-0.364-0.234L35.989,66.754z M42.587,67.676
		c-0.769-0.348-1.532-0.734-2.278-1.162c-0.188-0.107-0.376-0.213-0.563-0.324c-0.569-0.346-1.127-0.711-1.679-1.092l0.893-0.717
		l0.316-0.246l1.315-1.045l1.057-0.844c0.164,0.135,0.328,0.264,0.493,0.393c0.382,0.311,0.769,0.604,1.162,0.881
		c0.54,0.393,1.092,0.775,1.638,1.127c0.176,0.111,0.358,0.229,0.534,0.334c0.541,0.328,1.081,0.639,1.62,0.934l-0.898,0.717
		l-0.293,0.234l-0.851,0.682l-0.582,0.457l-0.381,0.299C43.585,68.115,43.08,67.904,42.587,67.676z M45.282,68.074l0.851-0.68
		l0.293-0.23l0.962-0.77l0.247-0.199c0.376,0.193,0.751,0.371,1.127,0.535c0.657,0.311,1.32,0.58,1.984,0.816
		c0.328,0.121,0.651,0.229,0.975,0.328c0.129,0.041,0.258,0.082,0.387,0.111l-0.246,0.199l-1.844,1.463l-0.117,0.098
		c-0.381-0.045-0.752-0.098-1.127-0.158c-0.305-0.053-0.599-0.111-0.898-0.176c-0.183-0.033-0.346-0.07-0.522-0.111
		c-0.141-0.035-0.288-0.07-0.435-0.105c-0.44-0.111-0.875-0.234-1.315-0.369c-0.293-0.088-0.599-0.193-0.893-0.295L45.282,68.074z
		 M51.427,67.193c-0.163-0.059-0.328-0.111-0.492-0.176c-0.834-0.293-1.673-0.645-2.513-1.057c-0.1-0.047-0.199-0.1-0.299-0.146
		l0.176-0.135l1.837-1.469l0.857-0.682l0.47-0.375l0.259-0.205l0.416-0.328c0.1,0.076,0.199,0.152,0.3,0.223
		c0.745,0.557,1.479,1.074,2.201,1.533l0.018,0.012c0.258,0.17,0.522,0.328,0.786,0.486c0.105,0.064,0.224,0.129,0.335,0.193
		l-0.182,0.152l-0.435,0.334l-1.15,0.916l-0.564,0.459l-0.258,0.199l-0.47,0.369l-0.07,0.061
		C52.237,67.451,51.839,67.328,51.427,67.193z M53.418,67.664l0.258-0.205L54.245,67l1.15-0.91l0.423-0.34l0.481-0.381
		c0.733,0.393,1.433,0.727,2.113,1.004c0.164,0.064,0.334,0.129,0.505,0.186c0.129,0.049,0.258,0.096,0.376,0.137l-0.235,0.188
		l-0.317,0.252l-1.344,1.068c-0.17,0.006-0.341,0-0.511,0c-0.193,0-0.387-0.012-0.587-0.023c-0.528-0.035-1.074-0.094-1.62-0.182
		c-0.281-0.041-0.558-0.094-0.834-0.152c-0.129-0.023-0.258-0.053-0.382-0.082l-0.135-0.031L53.418,67.664z M58.612,65.855
		c-0.176-0.07-0.346-0.146-0.522-0.225c-0.428-0.186-0.862-0.398-1.31-0.645l0.764-0.605l0.312-0.25l1.227-0.977l0.752-0.598
		l0.458-0.363l0.334-0.27l1.556,1.959l0.258,0.316l-0.088,0.064l-0.863,0.688l-0.452,0.357l-0.757,0.605l-0.457,0.371
		C59.429,66.168,59.029,66.02,58.612,65.855z M61.318,61.898l-0.252-0.322l0.082-0.064l0.751-0.592l2.031-1.615l0.963-0.764
		L64.94,58.5c0.034,0.135,0.07,0.27,0.105,0.406c0.258,1.025,0.417,1.982,0.47,2.84l-0.394,0.311l-2.024,1.621l-0.224,0.17
		L61.318,61.898z M66.015,61.125c-0.048-0.43-0.112-0.887-0.205-1.363c-0.105-0.521-0.234-1.074-0.394-1.637l0.716-0.576
		l1.872-1.484l0.389-0.313c0,0.383-0.012,0.764-0.03,1.133c-0.053,1.021-0.199,2.01-0.428,2.938l-0.61,0.486l-0.952,0.764
		l-0.286,0.229l-0.053,0.041C66.02,61.271,66.02,61.201,66.015,61.125z M67.77,55.529l-1.867,1.492l-0.656,0.521
		c-0.129-0.416-0.271-0.84-0.423-1.268c-0.317-0.91-0.705-1.855-1.15-2.83l0.505-0.393l1.866-1.496l1.538-1.215l0.111-0.088
		c0.053,0.234,0.112,0.475,0.158,0.715c0.165,0.775,0.294,1.543,0.387,2.295c0.071,0.605,0.118,1.197,0.143,1.785L67.77,55.529z
		 M68.791,53.193l-0.012-0.1c-0.083-0.67-0.193-1.35-0.329-2.037c-0.088-0.393-0.176-0.792-0.27-1.192l1.42-1.132l0.958-0.758
		l0.545-0.439c0.083,0.686,0.129,1.36,0.147,2.037c0.012,0.416,0.017,0.833,0.005,1.244c-0.012,0.518-0.034,1.027-0.081,1.531
		c-0.012,0.172-0.036,0.346-0.048,0.518l-1.408,1.121l-0.41,0.322l-0.389,0.311C68.885,54.15,68.851,53.674,68.791,53.193z
		 M70.323,47.441l-0.95,0.763l-1.356,1.069c-0.54-2.009-1.327-4.074-2.336-6.136l1.103-0.879l0.958-0.758l1.308-1.045l0.206-0.164
		c0.399,0.986,0.734,1.978,1.016,2.97c0.341,1.209,0.587,2.419,0.757,3.623L70.323,47.441z M71.451,45.973
		c-0.341-2.019-0.923-4.05-1.744-6.04l0.504-0.398l1.021-0.816l0.224-0.171l0.076-0.064c0.136,0.359,0.253,0.723,0.37,1.087
		c0.188,0.599,0.346,1.196,0.487,1.802c0.305,1.31,0.505,2.629,0.604,3.95l-0.199,0.153l-1.162,0.927l-0.101,0.082
		C71.503,46.314,71.479,46.15,71.451,45.973z M71.222,38.014l-0.217,0.176L69.977,39l-0.493,0.399
		c-0.916-2.119-2.102-4.185-3.563-6.146c-0.147-0.193-0.288-0.381-0.44-0.575l0.141-0.112l1.162-0.921l0.682-0.541
		c0.405,0.522,0.799,1.057,1.162,1.603c0.353,0.528,0.682,1.063,0.985,1.609c0.676,1.174,1.245,2.383,1.715,3.615L71.222,38.014z
		 M55.09,21.607l0.229-0.177c0.088,0.024,0.182,0.053,0.281,0.077c0.869,0.258,1.727,0.563,2.565,0.916
		c0.54,0.229,1.075,0.469,1.598,0.728c0.691,0.346,1.361,0.722,2.019,1.133l-0.481,0.387c-0.399-0.258-0.787-0.505-1.197-0.74
		c-0.546-0.311-1.104-0.61-1.667-0.892c-0.869-0.422-1.755-0.798-2.659-1.121c-0.218-0.083-0.429-0.153-0.651-0.223l-0.101-0.041
		L55.09,21.607z M50.03,20.509c0.394,0.029,0.787,0.059,1.175,0.106c0.504,0.059,0.997,0.123,1.479,0.211
		c0.663,0.111,1.315,0.252,1.961,0.422l-0.265,0.206c-0.534-0.159-1.063-0.294-1.602-0.423c-0.734-0.165-1.469-0.299-2.208-0.405
		c-0.176-0.024-0.346-0.047-0.517-0.071c-0.329-0.041-0.657-0.064-0.975-0.093C49.396,20.468,49.713,20.485,50.03,20.509z
		 M48.563,20.985c0.13,0.012,0.265,0.018,0.399,0.029c0.446,0.036,0.898,0.083,1.344,0.142l0.183,0.023
		c0.862,0.117,1.72,0.288,2.57,0.5c0.259,0.064,0.529,0.135,0.787,0.205l-0.517,0.417l-0.897,0.711
		c-0.511-0.188-1.027-0.358-1.538-0.511c-0.487-0.147-0.969-0.271-1.456-0.388c-0.141-0.035-0.288-0.064-0.429-0.094l-0.129-0.03
		c-0.422-0.087-0.851-0.165-1.274-0.229c-0.094-0.017-0.182-0.029-0.276-0.041l0.188-0.152l0.757-0.599
		C48.375,20.973,48.469,20.979,48.563,20.985z M42,21.53l0.105-0.076c0.141-0.036,0.288-0.065,0.434-0.089
		c0.364-0.07,0.716-0.135,1.081-0.182c0.317-0.046,0.633-0.088,0.951-0.117c0.886-0.094,1.785-0.135,2.677-0.129h0.165l-0.124,0.1
		l-0.733,0.587c-0.599-0.064-1.198-0.105-1.796-0.129c-0.335-0.006-0.669-0.006-1.004,0c-0.382,0-0.757,0.023-1.133,0.046
		c-0.199,0.018-0.398,0.03-0.587,0.053l-0.129,0.013L42,21.53z M41.296,22.241c0.323-0.041,0.646-0.076,0.968-0.105
		c0.2-0.018,0.394-0.035,0.593-0.047c0.375-0.024,0.763-0.036,1.139-0.041c0.34,0,0.669,0.005,1.009,0.017
		c0.306,0.012,0.611,0.036,0.922,0.059l-0.669,0.529l-0.74,0.587l-0.669,0.54c-0.1-0.029-0.194-0.053-0.294-0.077
		c-0.223-0.058-0.452-0.105-0.675-0.146c-0.37-0.082-0.74-0.146-1.104-0.199c-0.576-0.083-1.151-0.135-1.714-0.159l-0.141-0.006
		l0.1-0.088l1.051-0.828C41.143,22.265,41.213,22.259,41.296,22.241z M37.339,23.232c0.669-0.246,1.35-0.457,2.043-0.622
		c0.135-0.036,0.258-0.064,0.387-0.088l0.129-0.035l-0.106,0.082l-0.316,0.252l-0.452,0.364c-0.558,0.012-1.109,0.059-1.638,0.141
		c-0.17,0.023-0.341,0.047-0.505,0.083C37.034,23.35,37.187,23.286,37.339,23.232z M34.722,24.642
		c0.094-0.042,0.188-0.083,0.293-0.123c0.212-0.089,0.435-0.159,0.658-0.229c0.458-0.147,0.927-0.264,1.397-0.346
		c0.182-0.03,0.358-0.059,0.54-0.083c0.223-0.035,0.435-0.059,0.658-0.076l-0.505,0.411l-0.434,0.34l-0.658,0.522
		c-0.246-0.064-0.493-0.117-0.728-0.165c-0.282-0.047-0.552-0.088-0.816-0.111c-0.123-0.006-0.235-0.012-0.358-0.012
		c-0.117-0.006-0.235-0.006-0.346,0C34.521,24.724,34.616,24.683,34.722,24.642z M33.313,25.517c0.329-0.112,0.687-0.176,1.068-0.2
		c0.2-0.006,0.417-0.006,0.634,0.005c0.118,0.012,0.235,0.018,0.358,0.036c0.246,0.029,0.499,0.07,0.757,0.129l-0.517,0.411
		l-0.258,0.206l-0.47,0.375l-0.857,0.681l-0.212,0.165l-1.174-1.485C32.849,25.704,33.072,25.599,33.313,25.517z M32.209,26.191
		l1.174,1.479l-1.198,0.951l-0.903,0.722l-0.176,0.142c0-0.17,0.006-0.341,0.012-0.5c0.053-0.704,0.193-1.32,0.435-1.831
		C31.716,26.778,31.939,26.456,32.209,26.191z M29.65,29.473c0.07-0.135,0.141-0.27,0.211-0.405
		c0.235-0.417,0.493-0.822,0.775-1.204c0.047-0.07,0.1-0.135,0.152-0.199c-0.035,0.111-0.064,0.229-0.082,0.358
		c-0.117,0.569-0.164,1.203-0.141,1.896l-0.247,0.193l-0.293,0.229l-0.856,0.681l-0.206,0.165c0.041-0.124,0.076-0.241,0.123-0.364
		C29.25,30.354,29.438,29.907,29.65,29.473z M28.27,30.735c0.147-0.247,0.299-0.487,0.464-0.722c0.053-0.088,0.117-0.176,0.17-0.259
		c-0.047,0.111-0.094,0.217-0.141,0.329c-0.124,0.323-0.241,0.646-0.347,0.98c-0.077,0.241-0.147,0.481-0.211,0.728l-0.875,0.692
		C27.619,31.885,27.924,31.298,28.27,30.735z M26.861,33.576l0.663-0.534l0.482-0.382c-0.064,0.358-0.13,0.722-0.176,1.086
		c-0.111,0.922-0.159,1.884-0.135,2.876l-0.288,0.223l-0.305,0.252L25.67,38.23l-0.053,0.048l0.018-0.135
		c0.153-0.998,0.375-1.966,0.657-2.918c0.053-0.188,0.105-0.369,0.176-0.557C26.585,34.304,26.715,33.934,26.861,33.576z
		 M24.948,36.558c0.252-0.733,0.546-1.45,0.875-2.154l0.077-0.065l0.118-0.094c-0.024,0.071-0.047,0.135-0.065,0.206
		c-0.305,0.892-0.54,1.819-0.722,2.759c-0.1,0.517-0.182,1.039-0.241,1.562l-0.857,0.687C24.343,38.471,24.613,37.502,24.948,36.558
		z M23.967,40.303l0.388-0.311l0.552-0.441c-0.047,0.506-0.071,1.01-0.083,1.521v0.046c-0.023,1.075,0.023,2.166,0.141,3.264
		c0.018,0.147,0.036,0.288,0.047,0.429l-0.293,0.241l-1.121,0.886c-0.053-1.109-0.029-2.225,0.064-3.321l0.006-0.106
		c0.03-0.299,0.064-0.593,0.1-0.887C23.821,41.183,23.885,40.737,23.967,40.303z M22.852,44.283
		c0.024-0.399,0.059-0.798,0.105-1.196c0.059-0.522,0.135-1.045,0.223-1.563c0.035-0.182,0.07-0.364,0.106-0.546
		c-0.024,0.2-0.059,0.398-0.083,0.599c-0.035,0.294-0.07,0.594-0.088,0.881c-0.064,0.733-0.1,1.467-0.1,2.201
		c0,0.568,0.011,1.133,0.047,1.703l-0.265,0.21C22.782,45.809,22.799,45.045,22.852,44.283z M22.993,49.137
		c-0.047-0.34-0.083-0.681-0.111-1.026c-0.024-0.265-0.042-0.534-0.053-0.805v-0.042l0.288-0.229
		c0.035,0.424,0.088,0.84,0.146,1.257c0.047,0.364,0.106,0.722,0.165,1.086c0.094,0.498,0.2,1.009,0.317,1.508
		c0.241,0.986,0.54,1.967,0.892,2.941l-0.481,0.387C23.592,52.553,23.198,50.852,22.993,49.137z M24.343,54.768l0.504-0.4
		c0.675,1.732,1.538,3.418,2.595,5.025c0.288,0.43,0.587,0.857,0.898,1.279c0.13,0.17,0.265,0.348,0.394,0.518l-0.124,0.1
		l-0.252,0.199l-0.194,0.152C26.503,59.504,25.235,57.186,24.343,54.768z M34.345,67.346c-0.739-0.48-1.456-1.016-2.16-1.578
		c-0.774-0.635-1.514-1.322-2.219-2.055c-0.193-0.199-0.381-0.393-0.563-0.6c-0.235-0.252-0.458-0.51-0.681-0.773
		c-0.064-0.09-0.141-0.17-0.211-0.26l0.077-0.064l0.252-0.199l0.223-0.176l0.018-0.012c0.775,0.951,1.603,1.836,2.472,2.658
		c0.769,0.729,1.573,1.41,2.413,2.031c0.258,0.195,0.517,0.383,0.78,0.564l0.1,0.07l-0.053,0.035l-0.399,0.322L34.345,67.346z
		 M41.548,70.328l-0.241,0.188c-0.628-0.176-1.244-0.375-1.861-0.604c-0.875-0.324-1.732-0.699-2.571-1.115
		c-0.576-0.289-1.145-0.6-1.708-0.934c-0.106-0.07-0.218-0.135-0.323-0.199l0.176-0.148l0.311-0.238
		c0.399,0.258,0.798,0.504,1.204,0.744c0.875,0.498,1.767,0.957,2.683,1.357c0.751,0.326,1.521,0.621,2.301,0.879l0.083,0.029
		L41.548,70.328z M46.743,71.449c-0.27-0.012-0.528-0.035-0.798-0.059c-0.176-0.018-0.346-0.035-0.516-0.059
		c-0.446-0.047-0.893-0.111-1.338-0.182c-0.646-0.111-1.304-0.246-1.943-0.412l-0.17-0.035l0.117-0.094l0.153-0.121
		c0.576,0.174,1.174,0.326,1.761,0.463c0.628,0.135,1.256,0.258,1.896,0.352l0.158,0.023c0.229,0.029,0.446,0.059,0.664,0.082
		c0.276,0.029,0.558,0.059,0.833,0.082C47.283,71.479,47.013,71.467,46.743,71.449z M48.082,70.963
		c-0.141-0.006-0.271-0.012-0.405-0.031c-0.405-0.021-0.804-0.068-1.203-0.117c-0.106-0.016-0.223-0.027-0.329-0.039
		c-0.165-0.025-0.34-0.053-0.505-0.078c-0.634-0.105-1.28-0.234-1.914-0.387c-0.316-0.076-0.633-0.158-0.945-0.246l0.623-0.5
		l0.792-0.627c0.271,0.094,0.541,0.188,0.798,0.275c0.305,0.105,0.605,0.199,0.904,0.287c0.434,0.125,0.869,0.234,1.297,0.336
		c0.146,0.035,0.288,0.064,0.434,0.1l0.129,0.029c0.429,0.088,0.851,0.158,1.28,0.229c0.082,0.012,0.17,0.023,0.252,0.035
		l-0.176,0.141l-0.769,0.611C48.258,70.975,48.164,70.975,48.082,70.963z M54.615,70.416l-0.106,0.088
		c-0.146,0.029-0.299,0.059-0.445,0.088c-0.358,0.07-0.717,0.131-1.08,0.184c-0.793,0.111-1.585,0.176-2.378,0.209
		c-0.405,0.02-0.81,0.031-1.214,0.025h-0.183l0.135-0.105l0.722-0.576c0.089,0.006,0.176,0.018,0.265,0.023
		c0.839,0.088,1.685,0.117,2.519,0.105c0.375-0.006,0.763-0.023,1.138-0.047c0.2-0.018,0.399-0.035,0.6-0.053l0.123-0.012
		L54.615,70.416z M55.419,69.693c-0.246,0.037-0.486,0.064-0.733,0.096c-0.105,0.006-0.217,0.021-0.329,0.029
		c-0.199,0.018-0.404,0.035-0.61,0.047c-0.376,0.018-0.757,0.035-1.139,0.035c-0.64,0-1.273-0.025-1.908-0.07l1.392-1.109
		l0.688-0.547c0.081,0.023,0.176,0.047,0.258,0.064c0.234,0.053,0.47,0.111,0.704,0.16c0.123,0.021,0.246,0.053,0.376,0.074
		c0.275,0.047,0.552,0.096,0.822,0.135c0.551,0.072,1.085,0.125,1.62,0.146c0.046,0,0.093,0.008,0.146,0.008l-0.112,0.088
		l-1.045,0.828L55.419,69.693z M59.411,68.674c-0.67,0.252-1.345,0.463-2.043,0.639c-0.177,0.041-0.341,0.082-0.517,0.119
		l-0.141,0.033l0.117-0.086l0.422-0.342l0.347-0.275c0.605-0.012,1.203-0.064,1.785-0.154c0.123-0.023,0.246-0.047,0.369-0.068
		C59.646,68.584,59.528,68.633,59.411,68.674z M61.905,67.316c-0.287,0.123-0.575,0.23-0.875,0.328
		c-0.48,0.154-0.974,0.271-1.49,0.365c-0.129,0.023-0.259,0.041-0.388,0.064c-0.264,0.041-0.534,0.064-0.804,0.088l0.622-0.494
		l0.316-0.25l0.664-0.535c0.281,0.082,0.563,0.141,0.833,0.182c0.364,0.064,0.729,0.105,1.068,0.117c0.123,0,0.247,0,0.364-0.006
		C62.111,67.223,62.011,67.27,61.905,67.316z M63.297,66.441c-0.329,0.105-0.693,0.178-1.074,0.189
		c-0.2,0.006-0.405,0.006-0.616-0.008c-0.347-0.023-0.711-0.076-1.093-0.164h-0.017l0.017-0.01l0.752-0.605l0.458-0.365l0.857-0.68
		l0.199-0.164l1.186,1.49C63.761,66.26,63.537,66.361,63.297,66.441z M64.406,65.779L63.52,64.67l-0.299-0.375l0.1-0.088
		l2.031-1.615l0.188-0.141c-0.012,0.17-0.012,0.346-0.023,0.51C65.433,64.184,65.069,65.145,64.406,65.779z M66.983,62.475
		c-0.07,0.141-0.136,0.275-0.211,0.404c-0.235,0.424-0.488,0.828-0.764,1.209c-0.054,0.07-0.106,0.135-0.152,0.207
		c0.022-0.119,0.053-0.248,0.082-0.365c0.117-0.574,0.152-1.215,0.141-1.908l0.235-0.193l0.287-0.229l0.957-0.764l0.118-0.094
		c-0.025,0.072-0.048,0.141-0.071,0.217C67.43,61.482,67.224,61.992,66.983,62.475z M67.987,61.816
		c-0.088,0.129-0.17,0.252-0.253,0.377c0.071-0.16,0.136-0.324,0.2-0.494c0.199-0.498,0.357-1.016,0.499-1.555l0.886-0.699
		C68.932,60.273,68.486,61.061,67.987,61.816z M69.202,58.816l-0.57,0.459c0.078-0.43,0.147-0.863,0.2-1.309
		c0.1-0.857,0.136-1.744,0.112-2.654l0.599-0.477l0.405-0.322l1.073-0.855c-0.111,0.773-0.264,1.537-0.458,2.277
		c-0.059,0.264-0.141,0.521-0.21,0.779c-0.166,0.559-0.359,1.105-0.564,1.639L69.202,58.816z M72.031,54.326
		c-0.27,0.922-0.599,1.826-0.985,2.713c-0.071,0.164-0.142,0.328-0.218,0.486l-0.088,0.07l-0.117,0.088l0.07-0.193
		c0.081-0.24,0.152-0.488,0.222-0.734c0.329-1.098,0.559-2.223,0.705-3.375l0.029-0.217l0.863-0.688
		C72.372,53.1,72.22,53.715,72.031,54.326z M72.277,51.943l-0.545,0.439c0.041-0.498,0.07-1.008,0.076-1.52v-0.029
		c0.034-1.22-0.035-2.46-0.188-3.704l0.247-0.2l1.163-0.921l0.005-0.007v0.03c0.053,1.139,0.029,2.283-0.064,3.404l-0.007,0.023
		c-0.064,0.728-0.157,1.45-0.286,2.165L72.277,51.943z M73.78,47.741c-0.022,0.375-0.058,0.751-0.099,1.127
		c-0.064,0.558-0.147,1.115-0.253,1.667c-0.023,0.146-0.047,0.293-0.083,0.439c0.03-0.158,0.048-0.318,0.071-0.481
		c0.041-0.334,0.082-0.67,0.105-1.004c0.064-0.704,0.1-1.403,0.106-2.113c0-0.599-0.019-1.203-0.06-1.802l0.271-0.212
		C73.852,46.155,73.84,46.949,73.78,47.741z M73.651,42.81c0.035,0.341,0.076,0.687,0.106,1.033
		c0.022,0.263,0.041,0.534,0.053,0.797v0.03L73.522,44.9c-0.041-0.418-0.088-0.835-0.141-1.257
		c-0.053-0.358-0.105-0.711-0.177-1.068c-0.094-0.511-0.2-1.016-0.317-1.521c-0.239-0.992-0.539-1.973-0.892-2.941l0.481-0.387
		C73.053,39.387,73.435,41.095,73.651,42.81z M72.289,37.174l-0.504,0.393c-0.675-1.725-1.538-3.398-2.583-5
		c-0.294-0.435-0.593-0.869-0.91-1.292c-0.129-0.176-0.259-0.346-0.393-0.522l0.123-0.099l0.258-0.2l0.182-0.152
		C70.13,32.437,71.398,34.756,72.289,37.174z"/>
	<path fill-rule="evenodd" clip-rule="evenodd" fill="#000426" d="M42,63.578c-2.061,1.637-4.145,3.627-5.096,5.523
		c1.021,0.504,2.078,0.939,3.159,1.303c0.992-1.115,2.207-2.201,3.428-3.17l30.453-24.219c-0.164-1.397-0.439-2.788-0.838-4.173
		L42,63.578z"/>
	<path fill="#BBBDBF" d="M69.859,31.263l-0.434,0.352c1.197,1.761,2.147,3.627,2.863,5.559l-0.504,0.393
		c-0.746-1.901-1.72-3.75-2.93-5.505l-0.44,0.346c1.209,1.761,2.178,3.616,2.912,5.523l-1.844,1.468
		c-0.804-1.854-1.818-3.674-3.04-5.418l-0.435,0.347c1.221,1.743,2.229,3.568,3.023,5.429l-3.611,2.877
		c-0.915-1.779-1.988-3.545-3.239-5.266l-0.435,0.352c1.244,1.722,2.324,3.487,3.228,5.267l-4.871,3.873
		c-1.045-1.666-2.219-3.362-3.499-5.053l-0.434,0.34c1.279,1.697,2.453,3.398,3.492,5.061l-6.14,4.883l-3.816-4.795l-0.44,0.347
		l3.816,4.802l-6.117,4.865c-1.385-1.396-2.777-2.916-4.144-4.543l-0.435,0.346c1.362,1.633,2.754,3.152,4.139,4.545l-4.866,3.873
		c-1.526-1.279-3.005-2.73-4.409-4.332l-0.44,0.346c1.397,1.609,2.876,3.059,4.396,4.338l-3.61,2.877
		c-1.632-1.186-3.17-2.576-4.591-4.15c-0.152,0.117-0.287,0.24-0.428,0.357c1.415,1.574,2.953,2.959,4.567,4.158l-1.849,1.461
		c-1.644-1.109-3.188-2.426-4.591-3.939c-0.141,0.129-0.27,0.258-0.405,0.389c1.391,1.496,2.917,2.805,4.543,3.92l-0.5,0.393
		c-1.632-1.074-3.169-2.342-4.561-3.816c-0.135,0.131-0.264,0.266-0.394,0.395c2.97,3.141,6.575,5.395,10.455,6.721
		c0.129-0.146,0.264-0.299,0.405-0.451c-1.885-0.629-3.698-1.473-5.406-2.529l0.487-0.387c1.644,1.072,3.394,1.953,5.189,2.629
		c0.142-0.148,0.282-0.293,0.429-0.436c-1.791-0.65-3.522-1.508-5.16-2.564l1.826-1.449c1.52,1.078,3.105,1.99,4.731,2.723
		c0.158-0.135,0.311-0.264,0.47-0.398c-1.626-0.717-3.223-1.613-4.75-2.684l3.582-2.852c1.408,1.15,2.853,2.158,4.309,3.027
		l0.469-0.375c-1.461-0.852-2.912-1.855-4.333-3.006l4.826-3.838c1.279,1.256,2.547,2.406,3.792,3.434l0.446-0.352
		c-1.244-1.021-2.512-2.174-3.792-3.436l6.064-4.824l3.141,3.951l0.439-0.348l-3.141-3.951l6.094-4.841
		c0.938,1.525,1.772,3.023,2.489,4.472l0.445-0.357c-0.722-1.445-1.562-2.941-2.501-4.467l4.831-3.839
		c0.806,1.644,1.457,3.281,1.955,4.896l0.469-0.37c-0.516-1.614-1.174-3.252-1.971-4.885l3.574-2.846
		c0.698,1.72,1.216,3.475,1.543,5.224l0.494-0.394c-0.352-1.736-0.881-3.48-1.585-5.188l1.825-1.45
		c0.64,1.768,1.074,3.581,1.31,5.407l0.511-0.405c-0.265-1.809-0.711-3.616-1.356-5.372l0.481-0.387
		c0.617,1.79,1.021,3.634,1.221,5.489l0.518-0.417C73.723,38.771,72.277,34.809,69.859,31.263z"/>
	
		<radialGradient id="SVGID_3_" cx="43.9219" cy="36.6558" r="49.4437" gradientTransform="matrix(0.9171 -0.3987 0.3987 0.9171 -33.8278 44.2192)" gradientUnits="userSpaceOnUse">
		<stop  offset="0" style="stop-color:#00ADEE"/>
		<stop  offset="0.0016" style="stop-color:#01ADEE"/>
		<stop  offset="0.0526" style="stop-color:#15ABE6"/>
		<stop  offset="0.1029" style="stop-color:#22A9E2"/>
		<stop  offset="0.1515" style="stop-color:#26A9E0"/>
		<stop  offset="0.3273" style="stop-color:#1B75BB"/>
		<stop  offset="0.5212" style="stop-color:#2B388F"/>
		<stop  offset="0.7576" style="stop-color:#1C1651"/>
		<stop  offset="1" style="stop-color:#120742"/>
	</radialGradient>
	<path fill-rule="evenodd" clip-rule="evenodd" fill="url(#SVGID_3_)" d="M66.726,22.299l18.655,2.131l-2.126,18.661l-4.613-5.8
		L42.928,65.697c-6.199,4.924-12.55,12.979,11.928,12.25C10.196,86.23,20.129,68.83,33.712,58.025l37.621-29.92L66.726,22.299z"/>
</g>
</svg>
