<?xml version="1.0" encoding="utf-8"?>
<!-- Generator: Adobe Illustrator 16.0.0, SVG Export Plug-In . SVG Version: 6.00 Build 0)  -->
<!DOCTYPE svg PUBLIC "-//W3C//DTD SVG 1.1//EN" "http://www.w3.org/Graphics/SVG/1.1/DTD/svg11.dtd">
<svg version="1.1" id="Layer_1" xmlns="http://www.w3.org/2000/svg" xmlns:xlink="http://www.w3.org/1999/xlink" x="0px" y="0px"
	 width="100px" height="100px" viewBox="0 0 100 100" enable-background="new 0 0 100 100" xml:space="preserve">
<g>
	<g>
		<linearGradient id="SVGID_1_" gradientUnits="userSpaceOnUse" x1="50.6123" y1="14.3662" x2="52.9503" y2="94.949">
			<stop  offset="0" style="stop-color:#00ADEE"/>
			<stop  offset="0.0019" style="stop-color:#01ADEE"/>
			<stop  offset="0.061" style="stop-color:#15ABE6"/>
			<stop  offset="0.1194" style="stop-color:#22A9E2"/>
			<stop  offset="0.1758" style="stop-color:#26A9E0"/>
			<stop  offset="0.3576" style="stop-color:#1B75BB"/>
			<stop  offset="0.5879" style="stop-color:#2B388F"/>
			<stop  offset="0.8121" style="stop-color:#292666"/>
			<stop  offset="1" style="stop-color:#150C46"/>
		</linearGradient>
		<path fill="url(#SVGID_1_)" d="M25.024,34.544c1.138,0.894,2.333,1.708,3.576,2.44c4.46-12.417,16.337-21.299,30.289-21.299
			c6.838,0,13.178,2.134,18.392,5.769c-5.849-4.441-13.145-7.078-21.053-7.078c-13.908,0-25.912,8.149-31.499,19.93
			C24.826,34.386,24.924,34.468,25.024,34.544z"/>
		<linearGradient id="SVGID_2_" gradientUnits="userSpaceOnUse" x1="55.0811" y1="14.2349" x2="57.4193" y2="94.8258">
			<stop  offset="0" style="stop-color:#00ADEE"/>
			<stop  offset="0.0019" style="stop-color:#01ADEE"/>
			<stop  offset="0.061" style="stop-color:#15ABE6"/>
			<stop  offset="0.1194" style="stop-color:#22A9E2"/>
			<stop  offset="0.1758" style="stop-color:#26A9E0"/>
			<stop  offset="0.3576" style="stop-color:#1B75BB"/>
			<stop  offset="0.5879" style="stop-color:#2B388F"/>
			<stop  offset="0.8121" style="stop-color:#292666"/>
			<stop  offset="1" style="stop-color:#150C46"/>
		</linearGradient>
		<path fill="url(#SVGID_2_)" d="M59.747,24.231c-11.031,0-20.592,6.285-25.298,15.47c0.574,0.202,1.152,0.391,1.736,0.566
			c0.596,0.177,1.198,0.341,1.805,0.492c4.111-9.116,13.279-15.461,23.926-15.461c5.575,0,10.745,1.741,14.991,4.706
			C72.143,26.382,66.196,24.231,59.747,24.231z"/>
		<g>
			<linearGradient id="SVGID_3_" gradientUnits="userSpaceOnUse" x1="33.085" y1="14.8809" x2="35.4227" y2="95.4531">
				<stop  offset="0" style="stop-color:#00ADEE"/>
				<stop  offset="0.0019" style="stop-color:#01ADEE"/>
				<stop  offset="0.061" style="stop-color:#15ABE6"/>
				<stop  offset="0.1194" style="stop-color:#22A9E2"/>
				<stop  offset="0.1758" style="stop-color:#26A9E0"/>
				<stop  offset="0.3576" style="stop-color:#1B75BB"/>
				<stop  offset="0.5879" style="stop-color:#2B388F"/>
				<stop  offset="0.8121" style="stop-color:#292666"/>
				<stop  offset="1" style="stop-color:#150C46"/>
			</linearGradient>
			<path fill="url(#SVGID_3_)" d="M35.679,57.883c0.279,0.082,0.559,0.16,0.84,0.236c-0.545-2.105-0.835-4.313-0.835-6.588
				c0-2.618,0.385-5.148,1.099-7.534c-0.503-0.093-1.005-0.197-1.506-0.314c-0.764-0.18-1.525-0.393-2.276-0.634
				c-1.075,2.995-1.661,6.222-1.661,9.59c0,1.268,0.083,2.52,0.245,3.742C32.911,56.961,34.278,57.461,35.679,57.883z"/>
			<linearGradient id="SVGID_4_" gradientUnits="userSpaceOnUse" x1="23.5894" y1="15.1514" x2="25.9274" y2="95.7356">
				<stop  offset="0" style="stop-color:#00ADEE"/>
				<stop  offset="0.0019" style="stop-color:#01ADEE"/>
				<stop  offset="0.061" style="stop-color:#15ABE6"/>
				<stop  offset="0.1194" style="stop-color:#22A9E2"/>
				<stop  offset="0.1758" style="stop-color:#26A9E0"/>
				<stop  offset="0.3576" style="stop-color:#1B75BB"/>
				<stop  offset="0.5879" style="stop-color:#2B388F"/>
				<stop  offset="0.8121" style="stop-color:#292666"/>
				<stop  offset="1" style="stop-color:#150C46"/>
			</linearGradient>
			<path fill="url(#SVGID_4_)" d="M24.516,52.156c0.903,0.709,1.842,1.367,2.809,1.975c-0.401-2.029-0.611-4.125-0.611-6.27
				c0-2.479,0.28-4.892,0.812-7.212c-1.487-0.842-2.896-1.823-4.202-2.918c-1.256,3.596-1.94,7.463-1.94,11.488
				c0,0.049,0.001,0.099,0.001,0.147C22.379,50.364,23.421,51.297,24.516,52.156z"/>
			<linearGradient id="SVGID_5_" gradientUnits="userSpaceOnUse" x1="55.334" y1="14.2324" x2="57.672" y2="94.8149">
				<stop  offset="0" style="stop-color:#00ADEE"/>
				<stop  offset="0.0019" style="stop-color:#01ADEE"/>
				<stop  offset="0.061" style="stop-color:#15ABE6"/>
				<stop  offset="0.1194" style="stop-color:#22A9E2"/>
				<stop  offset="0.1758" style="stop-color:#26A9E0"/>
				<stop  offset="0.3576" style="stop-color:#1B75BB"/>
				<stop  offset="0.5879" style="stop-color:#2B388F"/>
				<stop  offset="0.8121" style="stop-color:#292666"/>
				<stop  offset="1" style="stop-color:#150C46"/>
			</linearGradient>
			<path fill="url(#SVGID_5_)" d="M91.059,48.498c-0.159,8.352-3.509,15.924-8.87,21.553c3.738-4.811,5.962-10.85,5.962-17.412
				c0-0.197,0-0.395-0.005-0.592c-0.276,14.252-11.912,25.719-26.229,25.719c-10.823,0-20.113-6.553-24.122-15.91
				c-1.014-0.139-2.024-0.326-3.025-0.563c-0.767-0.182-1.527-0.391-2.282-0.635c1.989,6.77,6.433,12.492,12.301,16.131
				c-7.351-3.588-13.132-9.896-16.031-17.617c-0.213-0.102-0.425-0.205-0.635-0.314c-2.115-1.08-4.097-2.426-5.869-3.998
				c-0.163-0.145-0.324-0.293-0.485-0.438c2.512,16.773,16.981,29.639,34.458,29.639c19.241,0,34.842-15.598,34.842-34.841
				C91.069,48.979,91.063,48.739,91.059,48.498z"/>
		</g>
	</g>
	<linearGradient id="SVGID_6_" gradientUnits="userSpaceOnUse" x1="59.5996" y1="17.4243" x2="15.6444" y2="49.2218">
		<stop  offset="0" style="stop-color:#00ADEE"/>
		<stop  offset="0.0019" style="stop-color:#01ADEE"/>
		<stop  offset="0.061" style="stop-color:#15ABE6"/>
		<stop  offset="0.1194" style="stop-color:#22A9E2"/>
		<stop  offset="0.1758" style="stop-color:#26A9E0"/>
		<stop  offset="0.3576" style="stop-color:#1B75BB"/>
		<stop  offset="0.5879" style="stop-color:#2B388F"/>
		<stop  offset="0.8121" style="stop-color:#292666"/>
		<stop  offset="1" style="stop-color:#150C46"/>
	</linearGradient>
	<path fill="url(#SVGID_6_)" d="M62.994,45.314l-1.063-2.574l-0.609-0.022l-0.351-0.858c-0.865-0.027-1.729-0.057-2.593-0.084
		l-1.114-0.418c-0.2-0.074-0.348-0.115-0.555-0.003l-0.214,0.115l-3.712-1.262c-0.102-0.036-0.188-0.033-0.281,0.019l-0.627,0.333
		c-0.102,0.058-0.151,0.175-0.117,0.29l0.061,0.229c0.018,0.065,0.063,0.12,0.123,0.153l0.901,0.506l-0.411,0.224l-2.487,0.265
		c-0.205,0.022-0.396,0.082-0.577,0.181l-0.32,0.172c-0.057-0.098-0.173-0.156-0.287-0.15l-0.735,0.079
		c-0.109,0.011-0.209,0.043-0.305,0.096l-0.226,0.123c-0.06-0.087-0.169-0.142-0.274-0.131l-0.59,0.063
		c-0.109,0.011-0.209,0.041-0.305,0.096l-0.187,0.101c-0.066-0.085-0.179-0.131-0.286-0.112l-1.371,0.145
		c-0.202,0.022-0.395,0.079-0.575,0.178l-0.914,0.497c-0.005,0-0.007,0.003-0.012,0.005c-0.346-0.041-0.693-0.087-1.037-0.137
		c-2.137-0.306-4.236-0.743-6.266-1.353c-2.032-0.606-3.995-1.38-5.864-2.333s-3.642-2.091-5.299-3.392
		c-1.656-1.301-3.197-2.765-4.62-4.37c-1.419-1.601-2.726-3.333-3.915-5.178c-0.597-0.918-1.159-1.867-1.7-2.836
		c-0.54-0.973-1.045-1.971-1.537-2.995c0.094,1.134,0.3,2.26,0.577,3.369c0.274,1.112,0.625,2.206,1.038,3.282
		c0.827,2.15,1.908,4.225,3.233,6.151c1.321,1.929,2.889,3.714,4.662,5.282c1.772,1.568,3.753,2.918,5.869,3.998
		c2.112,1.082,4.357,1.894,6.647,2.435c2.293,0.541,4.628,0.82,6.948,0.861c0.1,0.003,0.201,0,0.304,0.003l0.067,0.175
		c0.059,0.153,0.19,0.257,0.351,0.284l1.042,0.164c0.135,0.033,0.238-0.039,0.35-0.101c0.042,0.104,0.127,0.178,0.239,0.194
		l0.551,0.087c0.075,0.019,0.154,0.011,0.223-0.027l0.164-0.09c0.046,0.112,0.122,0.197,0.249,0.218l0.691,0.109
		c0.075,0.019,0.15,0.008,0.219-0.03l0.202-0.109l0.038,0.096c0.062,0.153,0.195,0.254,0.357,0.278l2.25,0.358l0.118,0.287
		c0.877,0.07,1.756,0.142,2.634,0.213l0.848-0.454c1.637,0.134,3.272,0.27,4.909,0.402l0.956-0.542l-0.064-0.158
		c0.109,0.002,0.219,0.008,0.327,0.011l0.312-0.178l-0.065-0.156l0.322,0.008l0.317-0.178l-0.066-0.156l0.323,0.011
		c0.106-0.06,0.208-0.121,0.313-0.178l-0.064-0.159l0.324,0.011l0.313-0.178l-0.063-0.156l0.325,0.008l0.312-0.175L61.28,46.09
		l0.322,0.011l0.314-0.177l-0.065-0.156l0.324,0.008L62.994,45.314z M61.545,42.898l-0.483,0.26l-0.05-0.123l0.273-0.145
		L61.545,42.898z M61.051,43.604l-2.586,1.386l-0.467-1.124l2.602-1.404L61.051,43.604z M61.157,42.765l-0.208,0.109l-0.246-0.618
		l-0.183-0.008l0.347-0.183L61.157,42.765z M60.586,42.019l-0.412,0.221l-0.618-0.021l-0.678-0.254L60.586,42.019z M59.559,42.393
		l0.748,0.03l-2.439,1.317l-0.744-0.033L59.559,42.393z M56.787,43.869l1.045,0.044l0.459,1.106l-1.211-0.036
		c-0.115-0.279-0.232-0.56-0.35-0.839c-0.717-0.284-1.422-0.601-2.139-0.891c-0.093-0.06-0.096-0.134-0.093-0.249L56.787,43.869z
		 M51.956,40.712l0.627-0.333c0.055-0.03,0.093-0.027,0.149-0.008l3.555,1.208l-1.332,0.716l-2.995-1.454
		C51.906,40.813,51.906,40.74,51.956,40.712z M52.021,41.079c-0.02-0.011-0.027-0.024-0.03-0.03l2.776,1.347l-0.2,0.107
		L52.021,41.079z M51.792,48.254l-0.134-0.322l0.639,0.052L51.792,48.254z M53.291,44.694c0.637-0.197,1.268-0.41,1.893-0.65
		c-1.139,0-2.263,0.014-3.381,0.011c-0.93-0.005-1.856-0.016-2.776-0.043l3.994-2.175l1.376,0.771
		c-0.043,0.044-0.065,0.101-0.068,0.162c-0.004,0.12-0.002,0.24-0.004,0.36c0.007,0.131,0.094,0.241,0.215,0.29
		c0.645,0.263,1.278,0.547,1.924,0.807l-1.018,0.541L53.291,44.694z M55.577,44.891l1.044-0.558
		c0.098,0.232,0.196,0.465,0.292,0.697l-1.046,0.558L55.577,44.891z M56.15,45.634l0.895-0.478l0.265,0.008l-0.894,0.478
		L56.15,45.634z M58.342,47.539l-0.272-0.664l0.196-0.106l0.322,0.776L58.342,47.539z M58.916,47.213l-0.273-0.661l0.197-0.106
		l0.322,0.773L58.916,47.213z M59.487,46.888l-0.271-0.661l0.197-0.106l0.316,0.776L59.487,46.888z M60.062,46.563l-0.273-0.661
		l0.199-0.104l0.317,0.773L60.062,46.563z M60.635,46.241l-0.275-0.662l0.202-0.106l0.317,0.776L60.635,46.241z M61.206,45.916
		l-0.272-0.662l0.196-0.106l0.322,0.776L61.206,45.916z M61.621,45.891l-0.404-0.986l-0.502,0.271l0.41,0.998l-0.072,0.043
		l-0.409-0.986l-0.503,0.268l0.415,1l-0.076,0.041l-0.407-0.987l-0.506,0.271l0.416,1l-0.076,0.041l-0.405-0.987l-0.505,0.271
		l0.412,0.997l-0.076,0.044l-0.404-0.987l-0.504,0.268l0.41,1l-0.073,0.041l-0.407-0.984l-0.503,0.268l0.409,0.998l-0.715,0.404
		l-1-2.429l1.114-0.596l0.782,0.021l2.825-1.511l-0.142-0.363l0.705-0.377l0.945,2.298l-0.58,0.328
		c-0.137-0.331-0.268-0.659-0.404-0.989l-0.503,0.271c0.137,0.333,0.273,0.667,0.41,1L61.621,45.891z M61.78,45.593l-0.273-0.664
		l0.196-0.106l0.323,0.776L61.78,45.593z"/>
	<linearGradient id="SVGID_7_" gradientUnits="userSpaceOnUse" x1="66.2441" y1="26.6113" x2="22.2896" y2="58.4083">
		<stop  offset="0" style="stop-color:#00ADEE"/>
		<stop  offset="0.0019" style="stop-color:#01ADEE"/>
		<stop  offset="0.061" style="stop-color:#15ABE6"/>
		<stop  offset="0.1194" style="stop-color:#22A9E2"/>
		<stop  offset="0.1758" style="stop-color:#26A9E0"/>
		<stop  offset="0.3576" style="stop-color:#1B75BB"/>
		<stop  offset="0.5879" style="stop-color:#2B388F"/>
		<stop  offset="0.8121" style="stop-color:#292666"/>
		<stop  offset="1" style="stop-color:#150C46"/>
	</linearGradient>
	<path fill="url(#SVGID_7_)" d="M62.994,59.309l-1.063-2.576l-0.609-0.023l-0.351-0.857c-0.865-0.029-1.729-0.055-2.593-0.084
		l-1.114-0.422c-0.2-0.074-0.348-0.109-0.555-0.002l-0.214,0.115l-3.714-1.262c-0.1-0.035-0.186-0.031-0.279,0.02l-0.627,0.336
		c-0.102,0.055-0.151,0.176-0.117,0.285l0.061,0.229c0.018,0.068,0.063,0.121,0.123,0.156l0.901,0.506l-0.411,0.225l-2.487,0.264
		c-0.205,0.023-0.396,0.082-0.577,0.182l-0.32,0.172c-0.057-0.098-0.173-0.158-0.287-0.148L48.026,56.5
		c-0.109,0.01-0.21,0.043-0.305,0.096l-0.226,0.123c-0.06-0.092-0.169-0.141-0.274-0.133l-0.59,0.064
		c-0.109,0.01-0.209,0.041-0.305,0.092l-0.187,0.104c-0.066-0.084-0.179-0.131-0.286-0.113l-1.371,0.146
		c-0.202,0.021-0.395,0.082-0.575,0.178l-0.914,0.498c-0.005,0.002-0.007,0.002-0.012,0.004c-0.346-0.043-0.693-0.086-1.037-0.137
		c-2.137-0.305-4.236-0.744-6.266-1.354c-2.032-0.605-3.995-1.381-5.864-2.332c-1.869-0.953-3.642-2.088-5.299-3.388
		c-1.657-1.301-3.197-2.771-4.62-4.37c-1.419-1.604-2.726-3.339-3.915-5.181c-0.597-0.918-1.16-1.866-1.7-2.836
		c-0.54-0.976-1.045-1.97-1.539-2.992c0.096,1.131,0.302,2.257,0.578,3.367c0.274,1.112,0.625,2.205,1.038,3.282
		c0.827,2.151,1.908,4.222,3.233,6.151c1.321,1.93,2.889,3.714,4.662,5.279c1.772,1.572,3.753,2.922,5.869,4.002
		c2.112,1.078,4.357,1.893,6.647,2.434c2.293,0.541,4.628,0.824,6.947,0.861c0.101,0.004,0.202,0,0.305,0.004l0.067,0.174
		c0.059,0.15,0.19,0.26,0.351,0.285l1.042,0.164c0.135,0.031,0.238-0.039,0.35-0.1c0.042,0.102,0.127,0.176,0.239,0.191l0.551,0.086
		c0.075,0.021,0.154,0.014,0.223-0.025l0.164-0.09c0.046,0.115,0.122,0.197,0.249,0.219l0.691,0.109
		c0.075,0.016,0.15,0.004,0.219-0.031l0.202-0.109l0.038,0.096c0.062,0.154,0.195,0.254,0.357,0.279l2.25,0.355l0.118,0.289
		c0.877,0.072,1.756,0.143,2.634,0.213L52.613,62c1.637,0.135,3.272,0.271,4.909,0.402l0.956-0.541l-0.064-0.158
		c0.109,0.002,0.219,0.008,0.327,0.01l0.312-0.178l-0.065-0.158l0.322,0.014l0.317-0.18l-0.066-0.156l0.323,0.012
		c0.106-0.061,0.208-0.121,0.313-0.178l-0.064-0.16l0.324,0.012l0.313-0.178l-0.063-0.156l0.325,0.012l0.312-0.18l-0.063-0.156
		l0.322,0.01l0.314-0.176l-0.065-0.156l0.324,0.008L62.994,59.309z M61.545,56.891l-0.483,0.26l-0.05-0.123l0.273-0.146
		L61.545,56.891z M61.051,57.596l-2.586,1.383l-0.467-1.121l2.602-1.404L61.051,57.596z M61.157,56.754l-0.208,0.111l-0.246-0.617
		l-0.183-0.006l0.347-0.186L61.157,56.754z M60.586,56.01l-0.412,0.221l-0.618-0.018l-0.678-0.258L60.586,56.01z M59.559,56.385
		l0.748,0.029l-2.439,1.318l-0.744-0.033L59.559,56.385z M56.787,57.857l1.045,0.043l0.459,1.109l-1.211-0.035
		c-0.115-0.279-0.232-0.561-0.35-0.838c-0.717-0.285-1.422-0.602-2.139-0.895c-0.093-0.057-0.096-0.131-0.093-0.246L56.787,57.857z
		 M51.956,54.707l0.627-0.34c0.055-0.029,0.093-0.023,0.149-0.006l3.555,1.209l-1.332,0.715l-2.995-1.453
		C51.906,54.805,51.906,54.73,51.956,54.707z M52.021,55.066c-0.02-0.01-0.027-0.021-0.03-0.029l2.776,1.35l-0.2,0.109
		L52.021,55.066z M51.792,62.246l-0.134-0.322l0.639,0.051L51.792,62.246z M53.291,58.686c0.637-0.197,1.268-0.412,1.893-0.652
		c-1.139,0-2.263,0.016-3.381,0.012c-0.932-0.002-1.856-0.016-2.776-0.043l3.994-2.176l1.376,0.771
		c-0.043,0.043-0.065,0.102-0.068,0.16c-0.004,0.119-0.002,0.242-0.004,0.361c0.007,0.131,0.094,0.24,0.215,0.289
		c0.645,0.264,1.278,0.545,1.924,0.805l-1.018,0.543L53.291,58.686z M55.577,58.883l1.044-0.561
		c0.098,0.234,0.196,0.467,0.292,0.699l-1.046,0.557L55.577,58.883z M56.148,59.623l0.896-0.477l0.265,0.006l-0.894,0.48
		L56.148,59.623z M58.342,61.527l-0.272-0.662l0.196-0.105l0.322,0.775L58.342,61.527z M58.916,61.203l-0.273-0.662l0.197-0.104
		l0.322,0.773L58.916,61.203z M59.487,60.879l-0.271-0.66l0.197-0.107l0.316,0.777L59.487,60.879z M60.062,60.557l-0.273-0.664
		l0.199-0.105l0.317,0.775L60.062,60.557z M60.635,60.232l-0.275-0.664l0.202-0.104l0.317,0.773L60.635,60.232z M61.206,59.906
		l-0.272-0.66l0.196-0.104l0.322,0.773L61.206,59.906z M61.621,59.883l-0.404-0.986l-0.502,0.27l0.41,0.998l-0.072,0.043
		l-0.409-0.986l-0.503,0.268l0.415,1l-0.076,0.041l-0.407-0.982l-0.506,0.268l0.416,0.996l-0.076,0.041l-0.405-0.982l-0.505,0.268
		l0.412,1l-0.076,0.041l-0.404-0.986l-0.504,0.27l0.41,1l-0.073,0.041l-0.407-0.982l-0.503,0.268l0.409,0.998l-0.715,0.404l-1-2.43
		l1.114-0.594l0.782,0.021l2.825-1.514l-0.142-0.363l0.705-0.375l0.945,2.297l-0.58,0.324c-0.137-0.328-0.268-0.656-0.404-0.982
		l-0.503,0.268c0.137,0.332,0.273,0.666,0.41,1L61.621,59.883z M61.78,59.582l-0.273-0.664l0.196-0.104l0.323,0.777L61.78,59.582z"
		/>
</g>
</svg>
