<?xml version="1.0" encoding="utf-8"?>
<!-- Generator: Adobe Illustrator 16.0.0, SVG Export Plug-In . SVG Version: 6.00 Build 0)  -->
<!DOCTYPE svg PUBLIC "-//W3C//DTD SVG 1.1//EN" "http://www.w3.org/Graphics/SVG/1.1/DTD/svg11.dtd">
<svg version="1.1" id="Layer_1" xmlns="http://www.w3.org/2000/svg" xmlns:xlink="http://www.w3.org/1999/xlink" x="0px" y="0px"
	 width="100px" height="100px" viewBox="0 0 100 100" enable-background="new 0 0 100 100" xml:space="preserve">
<g>
	<path fill-rule="evenodd" clip-rule="evenodd" fill="#929497" d="M89.405,28.703c2.27-3.021,3.13-5.482,2.225-7.056
		c-2.868-4.959-22.381,0.937-43.582,13.175c-15.088,8.714-26.97,18.295-31.528,24.88c6.33-5.266,14.47-10.913,23.694-16.242
		C63.538,29.997,85.179,23.559,89.405,28.703z"/>
	<radialGradient id="SVGID_1_" cx="51.3154" cy="37.5205" r="51.6906" gradientUnits="userSpaceOnUse">
		<stop  offset="0" style="stop-color:#FFFFFF"/>
		<stop  offset="0.3515" style="stop-color:#E6E7E8"/>
		<stop  offset="0.7425" style="stop-color:#A6A8AB"/>
		<stop  offset="1" style="stop-color:#808184"/>
	</radialGradient>
	<path fill="url(#SVGID_1_)" d="M82.941,47.036c0,16.981-13.769,30.744-30.744,30.744c-16.981,0-30.75-13.763-30.75-30.744
		s13.769-30.744,30.75-30.744C69.173,16.292,82.941,30.055,82.941,47.036z"/>
	<path fill="#004022" d="M59.943,76.295c-0.269,0-0.906,0.465-1.76,0.434c-0.842-0.032-0.842-0.313-1.033-0.415
		c-0.178-0.108-0.701-0.879-0.815-0.892c-0.103-0.02-0.644-0.294-1.103-0.479c-0.466-0.185-0.727-0.88-1.357-1.785
		c-0.632-0.911-1.295-1.173-1.543-1.173c-0.242,0-0.555,0-0.771-0.013c-0.217-0.019-0.439-0.376-0.619-0.382
		c-0.165-0.026-0.458,0.146-0.522,0.286c-0.064,0.141-0.797,0.829-0.797,0.976c0,0.134,0.096,0.287,0.159,0.427
		c0.051,0.134,0.051,0.351-0.548,0.555c-0.599,0.198-0.491,1.014-0.491,1.014s0.28,0.434,0.37,0.65
		c0.095,0.217,0.338,0.459-0.529,0.369c-0.854-0.095-1.938-1.173-1.963-1.479c-0.032-0.306,0.765-0.988,1.045-1.294
		c0.281-0.313,0.242-0.65,0.025-0.86c-0.204-0.217-1.721-0.032-2.524-0.032S44.402,72.782,44,72.91
		c-0.325,0.096-1.976,2.122-2.607,2.919c3.359,1.263,7,1.951,10.804,1.951c2.875,0,5.668-0.401,8.307-1.142
		c-0.025-0.051-0.051-0.108-0.134-0.172C60.186,76.326,60.204,76.295,59.943,76.295z M40.711,31.82c0,0-0.134,0.064-0.216,0.134
		c-0.07,0.07-0.166,0.402-0.249,0.612c-0.089,0.197,0.064,0.229,0.077,0.313c0.006,0.082,0.255,0.19,0.357,0.19
		c0.089,0,0.293-0.063,0.357-0.095c0.064-0.026,0.064-0.274,0.115-0.383c0.039-0.115,0.223-0.287,0.293-0.421
		c0.076-0.134-0.019-0.261-0.096-0.332C41.266,31.763,40.921,31.839,40.711,31.82z M37.964,37.079
		c0.051,0.096,0.249,0.07,0.376,0.083c0.121,0.013,0.313-0.127,0.313-0.179c0-0.044-0.172-0.261-0.204-0.363
		c-0.038-0.114,0.044-0.472,0.025-0.65c0,0,0.025-0.051-0.051-0.102c-0.077-0.051-0.102-0.013-0.198-0.013
		c-0.102,0-0.21,0.032-0.37,0.032c-0.159,0.013-0.07,0.051-0.083,0.146c-0.025,0.108-0.013,0.555-0.019,0.714
		S37.906,36.983,37.964,37.079z M42.993,30.354c0.013-0.032,0.146-0.07,0.185-0.249c0.038-0.172-0.134-0.28-0.134-0.28
		s-0.057,0.032-0.108,0.108c-0.039,0.07-0.058,0.108-0.128,0.217c-0.07,0.102-0.063,0.223-0.051,0.255
		C42.77,30.431,42.987,30.38,42.993,30.354z M42.094,64.355c0.351-0.013,0.434-0.306,0.472-0.389
		c0.039-0.083,0.204-0.332,0.319-0.701c0.115-0.363,0.019-0.466-0.268-0.517c-0.281-0.058-0.523,0.287-0.523,0.287
		s-0.242-0.032-0.484-0.032c-0.255,0-0.28,0.185-0.319,0.255c-0.032,0.07,0.249,0.523,0.249,0.6
		C41.54,63.941,41.75,64.375,42.094,64.355z M39.328,34.383c-0.108,0.172-0.357,0.389-0.459,0.51
		c-0.102,0.128-0.408,0.038-0.58,0.07c-0.166,0.032-0.727,0.567-0.733,0.631c-0.013,0.058,0.229,0.103,0.389,0.103
		c0.159-0.013,0.28-0.058,0.484-0.115c0.21-0.051,0.363,0.02,0.478,0.032c0.115,0.019,0.255,0.248,0.325,0.376
		c0.07,0.121,0.134,0.045,0.197,0.013c0.07-0.032,0.191-0.191,0.255-0.331c0.07-0.141,0.548-0.428,0.675-0.555
		c0.134-0.128,0.191-0.421,0.21-0.65c0.019-0.224-0.134-0.612-0.287-0.911c-0.153-0.307-0.115-0.479-0.179-0.632
		c-0.076-0.159-0.025-0.21-0.191-0.235c0,0-0.045,0.006-0.179,0.096c-0.14,0.083,0,0.114,0.013,0.204
		c0.013,0.089-0.102,0.586-0.178,0.688C39.5,33.777,39.43,34.204,39.328,34.383z M41.508,62.214c0.357-0.166,0.701,0.14,0.956,0.076
		c0.255-0.07,0.874-1.339,0.74-3.104c-0.127-1.771-0.089-2.122-0.376-2.467c-0.287-0.344-0.912-0.931-1.364-1.491
		c-0.44-0.562-0.982-0.484-1.205-0.618c-0.229-0.128-0.797-1.243-1.071-1.187c-0.28,0.058-0.153,1.147-0.42,1.275
		c-0.262,0.134-0.396,0.242-0.529,0.242c-0.14,0-0.255-0.02-0.313-0.121c-0.063-0.096-0.121-0.867-0.446-0.905
		c-0.319-0.038-1.721-0.089-1.721-0.089s-0.714,0.057-0.771,0.739c-0.057,0.676-0.077,0.988-0.159,1.058
		c-0.077,0.058-0.357,0.07-0.497,0.16c-0.134,0.089-0.472,0.516-0.523,0.707c-0.038,0.191-0.268,0.587-0.332,0.804
		c-0.076,0.223-0.28,0.338-0.293,0.439c-0.006,0.115-0.026,0.344,0,0.396c0.025,0.057,0.268,0.555,0.089,0.669
		c-0.172,0.121-0.268,0.197-0.446,0.224c-0.185,0.031-0.421,0.172-0.472,0.268c-0.051,0.102-0.383,0.937-0.332,1.281
		c0.051,0.344,0.127,1.204,0.376,1.517c0.249,0.319,0.86,1.817,0.924,2.008c0.063,0.198-0.038,0.204,0.07,0.44
		c0.108,0.242-0.032,0.261,0.249,0.273c0.057,0,1.064,0.083,1.332-0.21c0.261-0.287,0.261-0.427,0.631-0.694
		c0.37-0.269,0.675-0.842,0.969-1.173c0.287-0.325,0.574-0.925,1.141-0.849c0.567,0.07,0.81,0.472,1.128,0.363
		c0.306-0.102,0.229-0.382,0.376-0.42c0.631-0.141,0.669,1.026,1.376,0.962C41.304,62.73,41.157,62.373,41.508,62.214z
		 M37.173,45.742c0.127-0.038,0.166-0.159,0.223-0.274c0.057-0.114-0.045-0.083-0.083-0.159c-0.038-0.089-0.191-0.363-0.255-0.465
		c-0.064-0.103-0.153-0.103-0.249-0.064c-0.089,0.045-0.313,0.16-0.465,0.211c-0.172,0.051-0.293,0.025-0.37,0.07
		c-0.064,0.038-0.077,0.356-0.108,0.452c-0.032,0.089,0.166,0.223,0.268,0.242s0.325,0,0.357-0.02
		c0.032-0.019,0.096,0.077,0.096,0.147c0,0.069,0.063,0.235,0.102,0.248c0.032,0.025,0.223-0.21,0.229-0.28c0,0-0.16,0.102-0.102,0
		C36.88,45.742,37.033,45.793,37.173,45.742z M38.48,52.613c0.134,0.103,0.108,0.3,0.338,0.217c0.217-0.076,0.146-0.452,0.376-0.203
		c0.223,0.248,0.376,0.503,0.465,0.618c0.077,0.114,0.21,0.338,0.357,0.338c0.141,0,0.472,0.19,0.612,0.019s0.191-0.165,0.293-0.401
		c0.089-0.235,0.108-0.446,0.236-0.421c0.121,0.032,0.242,0.103,0.504,0.172c0.255,0.077,0.363,0.128,0.542,0.121
		c0.172-0.013,0.351,0.026,0.357-0.146c0.006-0.172,0.07-0.452-0.032-0.605c-0.102-0.152-0.319-0.516-0.357-0.439
		c-0.038,0.07-0.051,0.363-0.166,0.229c-0.115-0.128-0.128-0.051-0.172-0.357c-0.044-0.306,0.058-0.51-0.217-0.573
		c-0.274-0.063-0.72-0.198-1.192-0.204c-0.217-0.007-0.236,0.02-0.229,0.032c-0.013-0.007-0.057-0.032-0.159-0.083
		c-0.364-0.186-0.81-0.612-0.842-0.65c-0.032-0.045-0.095-0.3-0.172-0.185c-0.064,0.114-0.166,0.121-0.166,0.121
		s0,0.459-0.089,0.618c-0.102,0.166-0.396,0.421-0.485,0.624c-0.095,0.211-0.255,0.128-0.204,0.332
		C38.142,51.989,38.346,52.512,38.48,52.613z M54.812,40.827c0.083,0.07,0.325-0.108,0.325-0.108s0.102-0.331,0.063-0.395
		c-0.025-0.064,0.198-0.319-0.108-0.383c-0.313-0.058-0.236,0.268-0.299,0.28c-0.256,0.038-0.122,0.166-0.166,0.268
		C54.588,40.592,54.729,40.758,54.812,40.827z M56.5,57.197c0.084,0,0.16-0.064,0.205-0.141c0.031-0.076,0.089-0.229,0.096-0.306
		c0.006-0.077,0.019-0.217-0.014-0.236c-0.031-0.013-0.172-0.07-0.172-0.07l-0.102,0.026c-0.051,0.069-0.224,0.165-0.217,0.268
		c0.013,0.114,0,0.185,0.07,0.261C56.438,57.076,56.411,57.197,56.5,57.197z M50.916,56.955c0.153-0.025,0.338-0.313,0.453-0.421
		c0.121-0.108,0.262-0.345,0.3-0.414c0.038-0.07-0.026-0.217-0.077-0.217c-0.057,0-0.242,0.108-0.313,0.159
		c-0.082,0.058-0.242,0.089-0.4,0.102c-0.18,0.007-0.166,0.262-0.262,0.363c-0.096,0.103,0.031,0.179,0.057,0.281
		C50.699,56.903,50.776,56.974,50.916,56.955z M79.78,46.348c-0.434-0.102-0.835,0.051-0.912-1.052
		c-0.083-1.103-1.153-1.186-1.153-1.186s-0.529,0.006-0.893-0.293c-0.351-0.982-0.88-1.084-0.88-1.084
		c-0.235-0.587-0.472-0.701-0.472-0.701s-1.466-0.025-1.746-0.038c-0.274-0.013-0.688-0.593-0.835-0.593
		c-0.147,0-0.542,0.172-0.542,0.172s-1.772,0.669-2.237,0.701c-0.472,0.045-0.351-0.363-0.351-0.363s0.114-0.491,0.217-1.141
		c0.102-0.65-0.511-0.632-0.511-0.632s-0.879-0.031-1.108-0.025c-0.236,0.007-0.332,0.013-0.37-0.242
		c-0.038-0.268,0.306-0.179,0.618-0.21c0.319-0.032,0.3-0.287,0.3-0.287l-0.013-1.032c0,0,0.293-0.695-0.318-0.708
		c-0.625-0.019-0.797,0.733-1.301,0.79c-0.497,0.064-0.65-0.107-0.65-0.107s-0.504,0.019-0.561-0.032
		c-0.051-0.058-0.058-0.65-0.115-0.918c-0.051-0.268,0.153-0.6,0.332-0.746c0.185-0.146,0.107-0.248,0.141-0.65
		c0.025-0.401,0.369-0.42,0.522-0.611c0.152-0.179,0.178-0.44,0.459-0.415c0.293,0.026,0.28,0.191,0.637,0.352
		c0.357,0.152,0.65-0.115,0.65-0.115c0.306-0.357,0.695,0.204,0.695,0.204s0.312-0.076,0.599-0.025
		c0.3,0.044,0.262,0.676,0.274,0.752c0.013,0.07-0.051,0.925,0.452,0.925c0.504,0,0.376-0.549,0.376-0.549s-0.006-1.466-0.038-1.759
		c-0.025-0.3,0.401-0.529,0.401-0.529c0.249-0.81,0.377-0.338,0.912-0.886c0.535-0.549,0.166-0.549,0.306-1.116
		c0.141-0.574,1.747-1.645,1.747-1.645s-0.007-0.096-0.025-0.318c-0.014-0.223,0.051-0.293,0.14-0.364
		c0.096-0.07,0.332-0.42,0.535-0.535c0.217-0.115,0.555-0.019,0.771-0.019c0.211,0,0.3,0.121,0.389,0.185
		c0.096,0.07-0.152,0.714-0.152,0.714s-0.415,0.752,0.223,0.529c0.644-0.223,0.778-0.912,0.778-0.912
		c-6.024-6.757-11.659-12.22-24.415-12.22c-25.943,1.352-29.647,23.821-29.647,23.821c-0.038,0.128,0.14,0.593,0.191,0.714
		c0.051,0.128,0.51,0.562,0.739,0.574c0.223,0.013,0.497-0.236,0.497-0.376c0-0.141,0.128-0.721,0.115-0.981
		c-0.025-0.262,0.032-0.281,0.064-0.377c0.044-0.082,0.395-0.644,0.484-0.822c0.083-0.19,0.51-0.51,0.714-0.707
		c0.198-0.185,1.288-0.676,1.53-0.804c0.243-0.134,0.491-0.102,0.561-0.095c0.07,0.006,0.236,0.318,0.37,0.593
		c0.128,0.28,0.612,1.714,0.51,1.523c-0.089-0.179,0.236,0.478,0.319,0.618c0.083,0.134,0.025-0.063,0.063-0.09
		c0.025-0.031,0.204-0.127,0.242-0.165c0.039-0.025,0.051,0.025,0.146,0.083c0.083,0.057,0.108,0.229,0.147,0.395
		c0.051,0.166,0.268,0.618,0.319,0.969c0.044,0.351,0.331,1.575,0.382,1.919c0.051,0.345,0.446,0.918,0.561,1.071
		c0.121,0.152,0.484,0.465,0.573,0.465c0.089,0.007,0.243-0.025,0.345-0.051c0.089-0.025,0.013-0.172,0-0.242
		c-0.013-0.07-0.122-0.37-0.166-0.452c-0.038-0.09-0.204-0.319-0.313-0.498c-0.108-0.178-0.363-0.611-0.478-0.822
		c-0.127-0.217-0.115-0.344-0.115-0.605c-0.013-0.255,0.108-0.28,0.153-0.459c0.051-0.19,0.051,0.038,0.166,0.096
		c0.102,0.051,0.198,0.108,0.3,0.217c0.095,0.096,0.299,0.172,0.465,0.217c0.153,0.045,0.344,0.103,0.497,0.128
		c0.146,0.025,0.344-0.134,0.535-0.313c0.191-0.179,0.434-0.542,0.459-0.663c0.02-0.121,0.115-0.389,0.147-0.504
		c0.032-0.108-0.051-0.28-0.121-0.522c-0.077-0.242-0.344-0.249-0.421-0.363c-0.077-0.115-0.217-0.274-0.382-0.465
		c-0.153-0.186-0.025-0.045-0.102-0.357c-0.07-0.313,0.178-0.357,0.217-0.517c0.038-0.159,0.204,0.038,0.325,0.045
		c0.115,0.013,0.287-0.032,0.427-0.089c0.14-0.064,0.293-0.186,0.472-0.307c0.179-0.127,0.344-0.389,0.612-0.624
		c0.268-0.236,0.536-0.446,0.702-0.562c0.153-0.102,0.331-0.248,0.497-0.472c0.166-0.235,0.249-0.351,0.382-0.631
		c0.134-0.293,0.434-0.593,0.503-0.95c0.064-0.356,0.039-0.669,0.026-0.803c-0.02-0.141-0.153-0.37-0.262-0.535
		c-0.115-0.173-0.548-0.619-0.675-0.804c-0.127-0.179-0.102-0.504-0.006-0.631c0.095-0.121,0.172-0.083,0.197-0.28
		c0.032-0.186-0.14-0.357-0.434-0.357c-0.293,0-0.255-0.108-0.312-0.204c-0.064-0.089,0.057-0.134,0.057-0.318
		c0.013-0.185,0.089-0.217,0.198-0.332c0.115-0.115,0.229,0.178,0.363,0.21c0.127,0.032,0.415-0.013,0.714-0.013
		c0.293-0.006,0.332,0.178,0.332,0.178s0.019,0.498,0,0.752c-0.013,0.255-0.013,0.522,0.013,0.72
		c0.025,0.191,0.229,0.484,0.58,0.484s0.363-0.242,0.504-0.414c0.127-0.185,0.127-0.421,0.063-0.714
		c-0.063-0.293-0.204-0.618-0.357-0.943c-0.159-0.332,0.14-0.465,0.204-0.625c0.051-0.166,0.255-0.434,0.299-0.625
		c0.039-0.185,0.249-0.79,0.453-1.122c0.191-0.338,0.65-0.3,0.848-0.612c0.197-0.312,0.268-0.325,0.268-0.325
		s0.096,2.779,0.096,3.047c0,0.261,0.063,0.229,0.102,0.287c0.038,0.058,0.204-0.089,0.268-0.127
		c0.063-0.038,0.178-0.127,0.255-0.191c0.077-0.064-0.038-0.172-0.006-0.262c0.032-0.089,0.083-0.312,0.083-0.459
		c0-0.159-0.089-0.172-0.141-0.287c-0.051-0.115-0.191-0.255-0.255-0.395c-0.063-0.141,0.013-0.223-0.013-0.319
		c-0.025-0.089,0.127-0.083,0.217-0.115c0.083-0.025,0.064,0.108,0.249,0.268c0.185,0.159,0.083,0.096,0.198,0.121
		c0.121,0.025,0.191-0.121,0.268-0.28c0.077-0.16-0.083-0.179-0.14-0.242c-0.057-0.07-0.166-0.229-0.344-0.351
		c-0.166-0.134-0.714-1.23-0.714-1.23s0.102-1.122,0-2.116c-0.089-0.995-0.688-0.822-1.281-0.854c-0.593-0.039-0.65-0.6-0.708-0.823
		c-0.064-0.236,0.038-0.535,0.446-1.039c0.414-0.504,1.134-0.491,1.479-0.536c0.344-0.051,0.688,0.07,0.995,0.108
		s0.867,0.389,1.071,0.389c0.21,0,0.306-0.414,0.338-0.644c0.032-0.236,0.657-0.88,0.962-1.026c0.3-0.153,0.599,0.076,0.676,0.21
		c0.077,0.134,0.025,0.42-0.077,0.567c-0.089,0.159-0.268,0.389-0.465,0.663c-0.197,0.287-0.242,0.325-0.299,0.491
		c-0.064,0.172-0.064,0.281-0.102,0.593c-0.044,0.306,0.108,0.663,0.108,0.733c0,0.077,0.287,1.562,0.306,1.842
		c0.032,0.287,0.249,0.453,0.401,0.459c0.14,0.013,0.153-0.096,0.242-0.313c0.077-0.217,0.446-1.09,0.561-1.326
		c0.108-0.229,0.408-0.944,0.421-1.116c0.013-0.179,0.013-0.376-0.02-0.676c-0.032-0.299-0.376-0.332-0.491-0.401
		c-0.102-0.064-0.127-0.191-0.191-0.338c-0.064-0.14,0.063-0.217,0.089-0.242c0.025-0.039,0.396-0.032,0.663-0.058
		c0.261-0.025,0.306-0.057,0.548-0.089c0.242-0.025,0.918-0.337,1.039-0.465c0.108-0.127,0.28-0.108,0.389-0.178
		c0.108-0.07,0.344-0.21,0.548-0.261c0.204-0.051,0.408-0.077,0.637-0.077c0.217,0,0.306-0.255,0.217-0.523
		c-0.077-0.274-0.038-0.268-0.115-0.427c-0.063-0.159,0-0.261,0-0.389c-0.006-0.122,0.089-0.089,0.115-0.122
		c0.038-0.032,0.293-0.006,0.465-0.013c0.166-0.013,0.376-0.013,0.529-0.025c0.146-0.019,0.363-0.121,0.58-0.223
		c0.21-0.108,0.554-0.357,0.611-0.395c0.058-0.039,0.313-0.255,0.44-0.402c0.128-0.134,0.37-0.229,0.459-0.274
		c0.083-0.038,0.146-0.146,0.216-0.28c0.064-0.134,0.217-0.243,0.287-0.281c0.07-0.032,0.153,0,0.383,0.013s0.223,0.141,0.318,0.229
		c0.096,0.096,0.07,0.172,0.07,0.172s-0.07,0.159-0.096,0.229c-0.025,0.07-0.248,0.044-0.504,0.076
		c-0.242,0.026-0.433,0.179-0.688,0.262c-0.256,0.076-0.045,0.337-0.045,0.357c0,0.019,0.248,0.274,0.351,0.325
		c0.096,0.051,0.235,0,0.421,0c0.191,0,0.465,0.025,0.51,0.07c0.051,0.038,0.038,0.083,0.083,0.274
		c0.038,0.191-0.007,0.243-0.045,0.293s-0.165,0.032-0.414,0.089c-0.235,0.07-0.415,0.07-0.51,0.121
		c-0.096,0.044-0.198,0.197-0.255,0.332c-0.058,0.134,0,0.644-0.02,0.79c-0.02,0.147,0.121,0.274,0.313,0.351
		c0.197,0.077,0.262,0.045,0.389,0.051c0.141,0.006,0.166,0.178,0.197,0.268c0.032,0.077,0.02,0.313,0.032,0.357
		c0.025,0.045,0.025,0.16,0.019,0.198c-0.006,0.038-0.133,0.134-0.268,0.204c-0.133,0.076-0.484,0.236-0.662,0.293
		c-0.172,0.07-0.307,0.21-0.542,0.268c-0.229,0.063-0.893,0.618-1.097,0.727c-0.204,0.121-0.14,0.299-0.14,0.351
		c0,0.051,0.255,0.096,0.523,0.096c0.273,0,0.344-0.026,0.522-0.083c0.165-0.051,0.573-0.274,0.701-0.332
		c0.128-0.057,0.694-0.414,0.931-0.542c0.242-0.127,0.549-0.478,0.676-0.656c0.134-0.179,0.676-0.644,0.752-0.727
		c0.083-0.083,0.076-0.338,0.083-0.567s0.134,0,0.287-0.026c0.153-0.025,0.19-0.166,0.242-0.287
		c0.038-0.115,0.058-0.242,0.229-0.401c0.178-0.153,0.02,0.159,0,0.235c-0.025,0.077,0.051,0.293,0.051,0.345
		c0.013,0.057,0.268,0.013,0.383,0.013c0.114,0,0.383-0.128,0.49-0.185c0.108-0.051,0.377-0.006,0.567-0.006
		c0.185,0,0.491,0.3,0.548,0.3c0.07,0,0.191-0.051,0.281-0.179c0.089-0.127,0.268-0.434,0.357-0.478
		c0.102-0.051,0.242,0,0.356,0.038c0.102,0.032,0.063,0.185,0.051,0.3c-0.007,0.121-0.051,0.682-0.051,0.682s0.089,0.044,0.28,0.14
		c0.191,0.102,0.255,0.344,0.307,0.51c0.051,0.16,0.051,0.867,0.019,0.976c-0.032,0.102,0.089,0.318,0.198,0.459
		c0.114,0.14,0.178,0.21,0.541,0.21s0.535,0.179,0.497,0.453c-0.044,0.274,0.045,1.109,0.077,1.269
		c0.031,0.153,0.197,0.548,0.261,0.72c0.07,0.179,0.026,0.351,0,0.708c-0.019,0.357-0.229,0.778-0.331,1.109
		s-0.014,0.816,0.025,0.995c0.051,0.178,0.268,0.905,0.357,1.096c0.089,0.198,0.459,1.485,0.407,1.932
		c-0.044,0.446,0.179,0.898,0.383,1.02c0.19,0.121,0.376,0.325,0.51,0.421c0.134,0.102,0.28,0.484,0.306,0.694
		c0.032,0.211,0.135,0.594,0.204,1.199c0.063,0.605,0.446,1.166,0.688,1.619c0.242,0.459,0.307,0.363,0.561,0.363
		c0.256,0.019,0.236-0.242,0.191-0.383c-0.038-0.141-0.49-0.746-0.58-1.071c-0.096-0.318,0.428,0,0.65,0.325s1.39,1.467,1.651,1.791
		c0.268,0.332,1.899,1.339,2.256,1.498c0.357,0.16,1.192,1.008,1.46,1.498c0.268,0.484,0.733,1.026,1.275,1.026
		c0.555,0.007,0.924-0.217,1.103-0.152c0.179,0.057,0.153,1,0.153,1.37c0,0.376-0.287,0.727-0.701,1.103
		c-0.408,0.37-0.338,0.753-0.229,0.887c0.114,0.134,0.076,0.528-0.09,0.586c-0.159,0.063-0.624,0.529-0.548,0.899
		c0.076,0.376,1.032,1.887,1.173,2.129c0.153,0.235,0.886,1.415,1.619,1.695c0.739,0.268,0.663,1.249,0.663,1.249l-1.059,8
		c0,0-0.14,1.319-0.096,2.193c0.052,0.873-0.714,2.485-1.542,3.531c-0.835,1.052-0.733,1.491-0.746,1.657
		c0,0.166,0.452,0.389,0.561,0.389s0.663-0.179,0.766-0.229c0.096-0.051,0.663-0.108,0.828-0.108c0.166,0,0.612,0.179,0.562-0.255
		c-0.038-0.434,0.102-0.497,0.102-0.497c1.887-1.307,2.346-3.327,2.346-3.327l0.497-1.001c0,0,0.51-1.186,1.097-1.384
		c0.587-0.197,0.6-0.51,0.587-0.879c-0.014-0.37-0.204-1.046,0.796-1.308c1.001-0.268,0.606-2.039,0.606-2.039l0.828-0.676
		l1.198-0.09l0.893-10.09C81.271,46.922,80.22,46.449,79.78,46.348z M46.429,64.285c-0.147,0.204-0.325,0.6-0.485,0.791
		c-0.166,0.19-0.408,0.541-0.644,0.758c-0.236,0.211-0.172,0.44-0.172,0.567c0,0.134,0.191,0.287,0.351,0.3
		c0.16,0.013,0.274-0.032,0.364-0.063c0.089-0.025,0.255-0.319,0.344-0.522c0.096-0.198,0.714-0.931,0.778-1.033
		c0.064-0.096,0.382-0.185,0.459-0.842c0.077-0.649-0.299-0.637-0.299-0.637C46.741,63.609,46.588,64.075,46.429,64.285z
		 M47.634,61.271c-0.172-0.045-0.351-0.166-0.427-0.02c-0.063,0.134-0.025,0.103-0.025,0.103c-0.025,0.235-0.077,0.484-0.013,0.656
		c0.07,0.166,0.217,0.555,0.191,0.79c-0.026,0.229-0.02,0.37,0.025,0.497c0.032,0.121-0.019,0.294,0.306,0.281
		c0.319,0,0.408,0,0.625-0.338c0.229-0.351,0.229-0.555,0.357-0.797c0.115-0.249,0.191-0.376,0.191-0.453
		c-0.013-0.083,0.013-0.165-0.166-0.185c-0.178-0.013-0.293,0.045-0.44-0.07C48.112,61.614,47.806,61.321,47.634,61.271z
		 M48.596,55.081c-0.083-0.179-0.268-0.115-0.268-0.115s-0.019,0.204-0.051,0.396c-0.025,0.191,0.013,0.242,0.032,0.306
		c0.025,0.076,0.172,0.28,0.249,0.414c0.077,0.128,0.223,0.153,0.255,0.141c0.032-0.02-0.006-0.172-0.019-0.249
		c-0.006-0.076,0.025-0.21,0.019-0.306C48.807,55.578,48.686,55.259,48.596,55.081z M47.34,57.389
		c-0.146-0.07-0.146,0.025-0.21,0.107c-0.051,0.09,0.134,0.115,0.178,0.236c0.051,0.115,0.191,0.146,0.408,0.179
		c0.229,0.031,0.166-0.179,0.185-0.255c0.025-0.09-0.019-0.09-0.191-0.09C47.532,57.566,47.34,57.389,47.34,57.389z"/>
	<radialGradient id="SVGID_2_" cx="45.6841" cy="33.0825" r="40.7786" gradientUnits="userSpaceOnUse">
		<stop  offset="0" style="stop-color:#F9EC31"/>
		<stop  offset="0.055" style="stop-color:#D6E035"/>
		<stop  offset="0.1485" style="stop-color:#A0CC3C"/>
		<stop  offset="0.1939" style="stop-color:#8BC53F"/>
		<stop  offset="0.4" style="stop-color:#37B34A"/>
		<stop  offset="0.6303" style="stop-color:#009345"/>
		<stop  offset="0.8606" style="stop-color:#006838"/>
		<stop  offset="1" style="stop-color:#00502A"/>
	</radialGradient>
	<path fill="url(#SVGID_2_)" d="M79.257,45.525c-0.439-0.102-0.841,0.051-0.917-1.052c-0.077-1.103-1.154-1.186-1.154-1.186
		s-0.517,0.006-0.893-0.293c-0.344-0.982-0.866-1.084-0.866-1.084c-0.243-0.587-0.479-0.708-0.479-0.708s-1.466-0.025-1.747-0.038
		c-0.268-0.013-0.688-0.593-0.835-0.593s-0.535,0.179-0.535,0.179s-1.778,0.663-2.25,0.701c-0.466,0.038-0.345-0.37-0.345-0.37
		s0.121-0.49,0.217-1.141c0.103-0.644-0.51-0.631-0.51-0.631s-0.88-0.025-1.109-0.02c-0.229,0.007-0.325,0.013-0.369-0.248
		c-0.038-0.262,0.306-0.179,0.624-0.211c0.307-0.031,0.294-0.28,0.294-0.28L68.37,37.52c0,0,0.293-0.695-0.325-0.708
		c-0.618-0.02-0.797,0.727-1.295,0.79c-0.496,0.058-0.649-0.108-0.649-0.108s-0.504,0.014-0.555-0.038
		c-0.058-0.051-0.07-0.644-0.121-0.918c-0.051-0.268,0.146-0.593,0.331-0.739c0.191-0.146,0.115-0.248,0.141-0.656
		c0.031-0.396,0.369-0.421,0.523-0.605c0.152-0.186,0.178-0.44,0.465-0.415c0.28,0.02,0.273,0.191,0.631,0.345
		c0.351,0.159,0.656-0.115,0.656-0.115c0.307-0.351,0.695,0.204,0.695,0.204s0.306-0.069,0.599-0.025
		c0.294,0.045,0.249,0.676,0.269,0.752c0.013,0.077-0.052,0.925,0.458,0.925c0.498,0,0.37-0.542,0.37-0.542s0-1.473-0.038-1.766
		c-0.032-0.293,0.401-0.522,0.401-0.522c0.249-0.81,0.37-0.345,0.912-0.887c0.535-0.548,0.165-0.548,0.306-1.115
		c0.141-0.574,1.746-1.651,1.746-1.651s0-0.096-0.019-0.313c-0.02-0.229,0.044-0.293,0.134-0.363
		c0.089-0.07,0.325-0.427,0.542-0.542s0.542-0.02,0.758-0.02c0.217,0,0.307,0.121,0.396,0.191c0.09,0.07-0.152,0.714-0.152,0.714
		s-0.415,0.746,0.216,0.523c0.65-0.223,0.791-0.912,0.791-0.912c-6.03-6.75-11.666-12.22-24.427-12.22
		C26.197,18.141,22.487,40.61,22.487,40.61c-0.039,0.128,0.14,0.587,0.191,0.714c0.051,0.121,0.51,0.562,0.74,0.574
		c0.223,0.013,0.497-0.236,0.497-0.376c0-0.141,0.134-0.727,0.115-0.988c-0.025-0.262,0.038-0.28,0.07-0.37
		c0.032-0.082,0.389-0.644,0.478-0.828c0.089-0.185,0.51-0.51,0.714-0.701s1.281-0.683,1.53-0.81
		c0.242-0.128,0.497-0.096,0.561-0.089c0.076,0,0.242,0.312,0.37,0.593c0.127,0.28,0.612,1.714,0.516,1.523
		c-0.095-0.186,0.236,0.478,0.313,0.611c0.083,0.141,0.032-0.058,0.064-0.083c0.025-0.031,0.21-0.134,0.242-0.165
		c0.038-0.032,0.057,0.019,0.14,0.076c0.096,0.058,0.121,0.236,0.159,0.401c0.045,0.159,0.262,0.618,0.313,0.969
		c0.038,0.345,0.332,1.568,0.382,1.913c0.051,0.351,0.446,0.918,0.561,1.077c0.127,0.146,0.484,0.459,0.574,0.465
		c0.089,0.007,0.242-0.025,0.338-0.051s0.019-0.172,0.006-0.242c-0.013-0.076-0.115-0.37-0.159-0.459
		c-0.045-0.083-0.21-0.313-0.325-0.491c-0.108-0.178-0.351-0.618-0.478-0.822c-0.121-0.217-0.108-0.351-0.108-0.605
		c-0.006-0.255,0.102-0.28,0.153-0.465c0.051-0.186,0.051,0.038,0.166,0.096c0.102,0.057,0.204,0.114,0.3,0.217
		c0.102,0.102,0.3,0.172,0.465,0.223c0.153,0.045,0.344,0.096,0.497,0.121c0.141,0.025,0.351-0.127,0.536-0.313
		c0.185-0.179,0.427-0.542,0.453-0.656c0.025-0.121,0.121-0.389,0.159-0.51c0.025-0.108-0.057-0.28-0.127-0.517
		c-0.076-0.242-0.344-0.249-0.421-0.37c-0.076-0.114-0.223-0.273-0.382-0.459c-0.159-0.19-0.025-0.044-0.102-0.356
		c-0.07-0.313,0.179-0.363,0.217-0.517c0.039-0.159,0.204,0.038,0.319,0.045c0.121,0.006,0.293-0.032,0.434-0.096
		c0.146-0.058,0.287-0.179,0.472-0.306c0.178-0.128,0.344-0.383,0.612-0.619c0.268-0.235,0.542-0.452,0.701-0.561
		s0.332-0.248,0.497-0.478c0.172-0.236,0.255-0.345,0.383-0.632c0.14-0.286,0.433-0.586,0.497-0.943
		c0.07-0.356,0.044-0.669,0.025-0.81c-0.013-0.134-0.14-0.363-0.255-0.535c-0.115-0.166-0.555-0.618-0.676-0.797
		c-0.127-0.185-0.102-0.51-0.006-0.631c0.096-0.128,0.172-0.09,0.204-0.281s-0.153-0.363-0.446-0.363s-0.249-0.108-0.306-0.198
		c-0.057-0.095,0.058-0.14,0.058-0.318c0.006-0.185,0.089-0.223,0.197-0.332c0.108-0.121,0.236,0.172,0.364,0.204
		c0.127,0.038,0.408-0.006,0.714-0.013c0.293-0.006,0.338,0.185,0.338,0.185s0.019,0.497,0,0.746
		c-0.019,0.262-0.019,0.523,0.006,0.721c0.025,0.191,0.236,0.484,0.586,0.484c0.344,0,0.357-0.236,0.497-0.414
		c0.127-0.186,0.127-0.415,0.064-0.708c-0.064-0.293-0.204-0.618-0.357-0.943c-0.153-0.332,0.14-0.472,0.197-0.625
		c0.058-0.166,0.261-0.44,0.3-0.625c0.044-0.185,0.261-0.79,0.453-1.122c0.197-0.338,0.663-0.3,0.854-0.612
		c0.198-0.312,0.268-0.325,0.268-0.325s0.096,2.779,0.096,3.047c0,0.261,0.07,0.229,0.102,0.287
		c0.038,0.051,0.204-0.089,0.268-0.134c0.058-0.038,0.179-0.121,0.262-0.185c0.076-0.064-0.045-0.179-0.006-0.262
		c0.025-0.089,0.076-0.312,0.076-0.465c0-0.153-0.089-0.166-0.146-0.287c-0.051-0.108-0.185-0.255-0.249-0.389
		c-0.07-0.141,0.013-0.229-0.013-0.319c-0.032-0.096,0.127-0.083,0.21-0.115c0.096-0.032,0.07,0.108,0.249,0.268
		c0.191,0.159,0.089,0.096,0.204,0.121s0.191-0.127,0.268-0.287c0.076-0.16-0.083-0.179-0.141-0.242
		c-0.051-0.064-0.159-0.229-0.337-0.351c-0.172-0.128-0.721-1.224-0.721-1.224s0.096-1.128,0-2.123
		c-0.089-0.995-0.688-0.816-1.288-0.848c-0.586-0.038-0.65-0.599-0.701-0.829c-0.057-0.236,0.039-0.529,0.453-1.033
		c0.408-0.503,1.128-0.491,1.473-0.542c0.344-0.045,0.695,0.07,0.994,0.108c0.306,0.044,0.867,0.389,1.071,0.389
		c0.216,0,0.306-0.415,0.344-0.644c0.032-0.229,0.65-0.874,0.956-1.026c0.306-0.153,0.599,0.083,0.676,0.217
		c0.076,0.127,0.025,0.414-0.07,0.567c-0.102,0.153-0.274,0.389-0.472,0.663c-0.198,0.281-0.249,0.319-0.3,0.484
		c-0.057,0.172-0.063,0.287-0.102,0.593c-0.039,0.306,0.102,0.669,0.102,0.74c0,0.07,0.293,1.555,0.319,1.842
		c0.025,0.28,0.249,0.453,0.395,0.459c0.141,0.013,0.153-0.102,0.243-0.313c0.083-0.223,0.446-1.097,0.554-1.333
		c0.108-0.229,0.415-0.937,0.427-1.115c0.013-0.172,0.019-0.376-0.013-0.676c-0.044-0.3-0.389-0.325-0.497-0.395
		c-0.108-0.064-0.127-0.198-0.191-0.338c-0.064-0.146,0.064-0.223,0.096-0.249c0.019-0.032,0.389-0.026,0.657-0.051
		c0.268-0.025,0.306-0.063,0.542-0.096c0.242-0.025,0.931-0.338,1.039-0.459c0.115-0.134,0.293-0.108,0.395-0.185
		c0.115-0.07,0.338-0.204,0.548-0.261c0.204-0.051,0.408-0.077,0.638-0.077c0.223,0,0.306-0.255,0.223-0.523
		c-0.083-0.274-0.045-0.261-0.115-0.42c-0.077-0.16,0-0.268-0.006-0.389c0-0.127,0.089-0.089,0.121-0.127
		c0.032-0.032,0.293-0.006,0.459-0.013c0.159-0.013,0.376-0.013,0.529-0.025c0.153-0.019,0.37-0.115,0.574-0.223
		c0.217-0.102,0.561-0.357,0.612-0.395c0.058-0.032,0.319-0.255,0.453-0.396c0.121-0.14,0.363-0.236,0.453-0.274
		c0.082-0.038,0.146-0.153,0.217-0.281c0.063-0.14,0.223-0.242,0.293-0.28c0.063-0.038,0.141,0,0.376,0.013
		c0.229,0.006,0.224,0.134,0.312,0.229c0.103,0.089,0.07,0.166,0.07,0.166s-0.07,0.166-0.089,0.236
		c-0.025,0.063-0.255,0.038-0.497,0.07c-0.248,0.025-0.439,0.179-0.695,0.262c-0.254,0.076-0.051,0.337-0.051,0.357
		c0,0.025,0.256,0.274,0.357,0.325c0.096,0.051,0.229,0,0.42,0c0.191,0,0.466,0.032,0.511,0.077
		c0.044,0.038,0.038,0.083,0.076,0.274c0.052,0.185,0,0.236-0.038,0.293c-0.038,0.051-0.166,0.032-0.408,0.089
		c-0.248,0.063-0.42,0.07-0.522,0.115c-0.089,0.044-0.191,0.197-0.249,0.332c-0.057,0.134,0,0.644-0.019,0.79
		c-0.026,0.153,0.128,0.274,0.312,0.351c0.191,0.077,0.256,0.045,0.39,0.051s0.165,0.185,0.19,0.268
		c0.039,0.083,0.02,0.313,0.039,0.357c0.025,0.051,0.031,0.159,0.025,0.198c-0.013,0.038-0.141,0.14-0.268,0.21
		c-0.141,0.07-0.498,0.229-0.67,0.293c-0.172,0.064-0.313,0.21-0.535,0.268c-0.236,0.064-0.893,0.619-1.103,0.727
		c-0.204,0.115-0.141,0.293-0.141,0.344c0,0.051,0.249,0.096,0.523,0.096c0.268,0,0.351-0.02,0.523-0.083
		c0.166-0.051,0.58-0.274,0.701-0.332c0.127-0.051,0.701-0.408,0.931-0.542c0.235-0.121,0.548-0.472,0.682-0.65
		c0.121-0.185,0.669-0.65,0.746-0.733c0.089-0.083,0.076-0.331,0.089-0.561c0-0.236,0.128,0,0.281-0.026
		c0.152-0.025,0.191-0.172,0.235-0.287c0.044-0.121,0.058-0.249,0.235-0.408c0.18-0.146,0.014,0.16,0,0.236
		c-0.025,0.077,0.052,0.293,0.052,0.351c0.007,0.058,0.268,0.006,0.382,0.006c0.115,0,0.383-0.121,0.491-0.178
		c0.108-0.051,0.37-0.006,0.562-0.006c0.19,0,0.49,0.299,0.561,0.299c0.057,0,0.191-0.057,0.273-0.185
		c0.09-0.127,0.268-0.427,0.363-0.478c0.09-0.045,0.242,0.006,0.352,0.044c0.102,0.032,0.063,0.179,0.051,0.3
		c-0.013,0.115-0.051,0.682-0.051,0.682s0.082,0.038,0.28,0.14c0.19,0.102,0.261,0.338,0.306,0.503
		c0.045,0.166,0.045,0.867,0.013,0.976c-0.025,0.108,0.103,0.325,0.21,0.465c0.109,0.141,0.173,0.21,0.536,0.21
		s0.535,0.172,0.491,0.446c-0.039,0.274,0.051,1.116,0.082,1.269c0.025,0.159,0.197,0.548,0.268,0.727
		c0.07,0.172,0.02,0.344,0,0.701c-0.025,0.357-0.235,0.784-0.338,1.109c-0.102,0.332-0.019,0.822,0.025,0.994
		c0.045,0.185,0.269,0.905,0.357,1.103c0.09,0.198,0.459,1.485,0.408,1.932c-0.038,0.446,0.185,0.898,0.376,1.02
		c0.198,0.115,0.376,0.325,0.517,0.421c0.127,0.096,0.287,0.484,0.313,0.694c0.025,0.211,0.121,0.587,0.197,1.192
		c0.063,0.605,0.446,1.167,0.688,1.626s0.306,0.356,0.562,0.363c0.254,0.013,0.229-0.242,0.19-0.39
		c-0.038-0.134-0.484-0.745-0.587-1.07c-0.089-0.319,0.434,0,0.664,0.325c0.217,0.325,1.377,1.466,1.645,1.791
		c0.268,0.331,1.898,1.345,2.256,1.498c0.357,0.166,1.198,1.007,1.454,1.498c0.268,0.49,0.739,1.026,1.287,1.032
		c0.542,0.007,0.918-0.223,1.097-0.159c0.179,0.058,0.159,1.001,0.159,1.377s-0.287,0.721-0.701,1.097
		c-0.421,0.376-0.345,0.759-0.236,0.886c0.108,0.141,0.077,0.529-0.089,0.587c-0.166,0.063-0.625,0.528-0.548,0.898
		c0.076,0.376,1.032,1.887,1.179,2.129c0.141,0.236,0.887,1.422,1.613,1.695c0.739,0.274,0.663,1.25,0.663,1.25l-1.059,8.006
		c0,0-0.146,1.319-0.096,2.193c0.058,0.873-0.714,2.485-1.549,3.531c-0.829,1.045-0.727,1.491-0.733,1.65
		c-0.006,0.166,0.44,0.396,0.555,0.396c0.103,0,0.663-0.179,0.765-0.229c0.103-0.051,0.663-0.108,0.829-0.108
		s0.612,0.172,0.567-0.255c-0.045-0.434,0.089-0.497,0.089-0.497c1.899-1.307,2.358-3.327,2.358-3.327l0.491-1.001
		c0,0,0.51-1.186,1.097-1.384c0.586-0.204,0.599-0.51,0.586-0.879c-0.013-0.37-0.197-1.046,0.804-1.308
		c0.994-0.268,0.599-2.039,0.599-2.039l0.829-0.676l1.205-0.096l0.892-10.085C80.755,46.099,79.703,45.627,79.257,45.525z
		 M40.819,31.011c-0.07-0.07-0.42,0-0.631-0.013c0,0-0.134,0.064-0.21,0.134c-0.077,0.07-0.166,0.402-0.261,0.605
		c-0.083,0.204,0.076,0.229,0.083,0.319c0.013,0.083,0.255,0.185,0.357,0.185c0.095,0,0.287-0.064,0.357-0.089
		c0.063-0.032,0.063-0.274,0.108-0.389c0.044-0.115,0.223-0.281,0.299-0.415C40.998,31.215,40.896,31.087,40.819,31.011z
		 M38.805,33.561c-0.115,0.172-0.357,0.383-0.459,0.51c-0.096,0.121-0.408,0.032-0.574,0.064c-0.178,0.031-0.739,0.566-0.746,0.631
		c-0.006,0.063,0.236,0.108,0.395,0.102c0.159-0.006,0.274-0.051,0.491-0.108c0.204-0.058,0.357,0.013,0.472,0.032
		c0.115,0.013,0.255,0.248,0.325,0.369c0.07,0.121,0.134,0.045,0.198,0.014c0.07-0.032,0.185-0.191,0.255-0.325
		c0.07-0.147,0.548-0.428,0.676-0.562c0.14-0.127,0.191-0.421,0.217-0.644c0.006-0.229-0.134-0.618-0.293-0.918
		c-0.153-0.3-0.115-0.472-0.178-0.631c-0.077-0.153-0.025-0.21-0.191-0.229c0,0-0.038,0.006-0.185,0.095
		c-0.134,0.083,0,0.108,0.019,0.204c0.013,0.089-0.108,0.586-0.179,0.689C38.978,32.955,38.907,33.382,38.805,33.561z
		 M37.435,36.257c0.058,0.096,0.262,0.07,0.376,0.083c0.128,0.013,0.319-0.134,0.319-0.179c0-0.051-0.166-0.261-0.204-0.369
		c-0.038-0.108,0.045-0.472,0.02-0.65c0,0,0.032-0.045-0.045-0.103c-0.076-0.044-0.102-0.013-0.204-0.013
		c-0.102,0-0.204,0.032-0.37,0.039c-0.153,0.013-0.057,0.051-0.083,0.146c-0.02,0.102-0.006,0.555-0.013,0.707
		C37.224,36.085,37.39,36.155,37.435,36.257z M36.65,44.92c0.128-0.038,0.16-0.166,0.217-0.274c0.07-0.114-0.038-0.089-0.076-0.165
		c-0.039-0.083-0.191-0.364-0.255-0.459c-0.064-0.103-0.153-0.103-0.255-0.064c-0.089,0.038-0.306,0.153-0.465,0.204
		c-0.159,0.051-0.287,0.032-0.357,0.076c-0.07,0.039-0.083,0.357-0.121,0.446c-0.025,0.09,0.166,0.229,0.268,0.249
		c0.108,0.02,0.331,0,0.363-0.02c0.032-0.019,0.095,0.07,0.095,0.141s0.07,0.235,0.102,0.255c0.026,0.025,0.229-0.217,0.236-0.287
		c0,0-0.166,0.103-0.102,0C36.357,44.92,36.51,44.965,36.65,44.92z M37.964,51.785c0.134,0.108,0.102,0.306,0.325,0.223
		c0.223-0.082,0.159-0.452,0.389-0.203c0.217,0.248,0.37,0.503,0.459,0.611c0.077,0.115,0.217,0.338,0.357,0.338
		s0.472,0.197,0.612,0.025c0.146-0.179,0.198-0.166,0.293-0.401c0.089-0.236,0.115-0.452,0.229-0.421
		c0.127,0.025,0.255,0.096,0.51,0.172c0.255,0.07,0.37,0.121,0.548,0.115c0.166-0.013,0.344,0.025,0.357-0.141
		c0.006-0.178,0.063-0.459-0.032-0.611c-0.108-0.153-0.319-0.511-0.363-0.44c-0.039,0.077-0.051,0.37-0.166,0.236
		c-0.108-0.134-0.134-0.051-0.179-0.357c-0.038-0.313,0.07-0.516-0.204-0.573c-0.281-0.063-0.727-0.198-1.199-0.211
		c-0.216-0.006-0.242,0.025-0.229,0.039c-0.013-0.014-0.051-0.039-0.166-0.09c-0.363-0.185-0.803-0.605-0.829-0.644
		c-0.038-0.045-0.102-0.3-0.172-0.191c-0.07,0.121-0.172,0.128-0.172,0.128s0,0.452-0.096,0.618
		c-0.089,0.159-0.389,0.421-0.484,0.624c-0.089,0.204-0.242,0.121-0.191,0.332C37.613,51.16,37.83,51.689,37.964,51.785z
		 M40.992,61.385c0.351-0.159,0.701,0.146,0.95,0.077c0.255-0.07,0.867-1.339,0.739-3.104s-0.089-2.116-0.37-2.467
		c-0.293-0.345-0.918-0.925-1.364-1.492c-0.452-0.561-0.994-0.484-1.211-0.618c-0.229-0.128-0.797-1.236-1.071-1.186
		c-0.281,0.058-0.153,1.153-0.415,1.281c-0.261,0.127-0.395,0.242-0.535,0.242c-0.134,0-0.255-0.02-0.313-0.121
		c-0.064-0.103-0.115-0.867-0.44-0.905c-0.325-0.045-1.728-0.096-1.728-0.096s-0.714,0.063-0.765,0.739
		c-0.058,0.676-0.083,0.995-0.16,1.059c-0.076,0.063-0.363,0.07-0.503,0.159s-0.472,0.517-0.522,0.714
		c-0.045,0.191-0.268,0.587-0.338,0.804c-0.07,0.217-0.274,0.331-0.281,0.439c-0.013,0.108-0.025,0.338,0,0.396
		c0.019,0.051,0.268,0.548,0.089,0.669c-0.172,0.115-0.274,0.191-0.453,0.223c-0.191,0.032-0.42,0.166-0.472,0.269
		c-0.051,0.102-0.389,0.931-0.332,1.281c0.051,0.344,0.127,1.198,0.383,1.517c0.242,0.313,0.854,1.816,0.917,2.008
		c0.064,0.191-0.038,0.204,0.077,0.44c0.102,0.235-0.044,0.261,0.242,0.273c0.058,0,1.064,0.077,1.326-0.21
		c0.268-0.287,0.268-0.434,0.637-0.701c0.376-0.268,0.682-0.842,0.969-1.167c0.293-0.331,0.574-0.931,1.135-0.854
		c0.574,0.076,0.816,0.478,1.128,0.369c0.319-0.108,0.242-0.389,0.376-0.42c0.638-0.141,0.676,1.026,1.377,0.962
		C40.781,61.907,40.641,61.544,40.992,61.385z M41.565,62.207c0,0-0.236-0.031-0.484-0.031c-0.249,0-0.274,0.19-0.313,0.261
		c-0.038,0.063,0.255,0.522,0.255,0.593c0,0.083,0.204,0.523,0.548,0.504c0.344-0.013,0.434-0.306,0.472-0.389
		c0.038-0.09,0.198-0.338,0.319-0.701c0.115-0.37,0.025-0.466-0.268-0.517C41.814,61.869,41.565,62.207,41.565,62.207z
		 M45.913,63.457c-0.159,0.21-0.338,0.599-0.491,0.797c-0.166,0.19-0.401,0.541-0.644,0.752c-0.236,0.217-0.178,0.439-0.178,0.567
		c0,0.134,0.198,0.286,0.351,0.306c0.159,0.013,0.274-0.032,0.37-0.063c0.089-0.032,0.249-0.325,0.344-0.529
		c0.089-0.197,0.714-0.931,0.778-1.026c0.063-0.102,0.382-0.185,0.459-0.842c0.083-0.656-0.293-0.637-0.293-0.637
		C46.225,62.787,46.059,63.253,45.913,63.457z M47.117,60.448c-0.178-0.045-0.363-0.166-0.427-0.025
		c-0.07,0.14-0.032,0.108-0.032,0.108c-0.026,0.229-0.077,0.484-0.013,0.656c0.077,0.166,0.21,0.548,0.191,0.784
		c-0.025,0.229-0.013,0.376,0.019,0.497c0.045,0.127-0.019,0.293,0.313,0.287c0.319-0.007,0.408,0,0.625-0.345
		c0.229-0.351,0.229-0.548,0.351-0.797c0.127-0.242,0.198-0.376,0.191-0.452c-0.006-0.077,0.019-0.159-0.159-0.179
		c-0.179-0.013-0.293,0.038-0.44-0.07C47.589,60.792,47.29,60.492,47.117,60.448z M47.194,56.738c-0.178,0-0.37-0.172-0.37-0.172
		c-0.153-0.07-0.159,0.025-0.217,0.102c-0.051,0.089,0.134,0.114,0.185,0.235c0.044,0.115,0.185,0.153,0.401,0.186
		c0.229,0.031,0.166-0.179,0.191-0.262C47.411,56.738,47.366,56.738,47.194,56.738z M50.4,56.126
		c0.146-0.019,0.325-0.313,0.439-0.414c0.121-0.115,0.268-0.351,0.307-0.421c0.038-0.063-0.025-0.21-0.077-0.21
		c-0.051,0-0.235,0.102-0.318,0.159c-0.077,0.051-0.235,0.089-0.396,0.096c-0.178,0.013-0.172,0.261-0.268,0.363
		c-0.089,0.102,0.044,0.179,0.064,0.28C50.177,56.081,50.254,56.151,50.4,56.126z M48.291,54.845
		c-0.006-0.089-0.127-0.414-0.217-0.593s-0.268-0.114-0.268-0.114s-0.013,0.203-0.044,0.401c-0.032,0.191,0.006,0.235,0.032,0.306
		c0.013,0.07,0.166,0.28,0.242,0.414c0.077,0.121,0.223,0.147,0.255,0.134c0.025-0.013-0.006-0.165-0.013-0.248
		C48.271,55.068,48.297,54.94,48.291,54.845z M55.979,56.375c0.089,0,0.152-0.07,0.197-0.146c0.045-0.077,0.096-0.224,0.102-0.3
		c0.006-0.083,0.013-0.217-0.02-0.236c-0.025-0.013-0.165-0.07-0.165-0.07l-0.103,0.026c-0.051,0.069-0.223,0.165-0.217,0.268
		c0.014,0.108,0,0.178,0.077,0.255C55.914,56.254,55.889,56.375,55.979,56.375z M54.295,39.999c0.076,0.076,0.325-0.108,0.325-0.108
		s0.096-0.332,0.058-0.389c-0.025-0.064,0.191-0.319-0.115-0.383c-0.299-0.063-0.223,0.268-0.293,0.28
		c-0.255,0.038-0.127,0.159-0.166,0.262C54.065,39.77,54.206,39.929,54.295,39.999z M42.471,29.532
		c0.006-0.032,0.146-0.07,0.185-0.249c0.038-0.178-0.134-0.28-0.134-0.28s-0.064,0.032-0.102,0.102
		c-0.044,0.076-0.057,0.115-0.134,0.217s-0.064,0.223-0.051,0.261C42.241,29.608,42.458,29.558,42.471,29.532z M60.262,75.919
		c-0.351-0.013-0.223-0.134-0.408-0.28c-0.191-0.135-0.179-0.166-0.434-0.166c-0.262,0-0.904,0.459-1.76,0.434
		c-0.841-0.032-0.841-0.313-1.032-0.415c-0.179-0.114-0.701-0.886-0.81-0.892c-0.108-0.02-0.656-0.294-1.115-0.485
		c-0.459-0.178-0.727-0.873-1.352-1.784c-0.637-0.912-1.294-1.173-1.543-1.173c-0.248,0-0.548,0-0.765-0.013
		c-0.217-0.02-0.452-0.37-0.618-0.383c-0.172-0.02-0.465,0.146-0.529,0.293c-0.057,0.134-0.803,0.829-0.803,0.969
		c0,0.135,0.095,0.294,0.159,0.434c0.063,0.134,0.063,0.351-0.542,0.549c-0.599,0.204-0.491,1.02-0.491,1.02
		s0.274,0.427,0.376,0.644c0.089,0.217,0.332,0.459-0.529,0.37c-0.861-0.089-1.944-1.167-1.97-1.479
		c-0.039-0.307,0.765-0.982,1.045-1.295c0.28-0.306,0.242-0.644,0.032-0.86c-0.217-0.217-1.728-0.031-2.531-0.031
		c-0.797,0-0.765,0.586-1.167,0.707c-0.401,0.128-2.862,3.238-2.862,3.238c9.791,4.902,20.118,0.893,20.118,0.893
		C60.733,76.136,60.625,75.932,60.262,75.919z"/>
	<defs>
		<filter id="Adobe_OpacityMaskFilter" filterUnits="userSpaceOnUse" x="28.708" y="40.451" width="53.87" height="30.961">
			<feFlood  style="flood-color:white;flood-opacity:1" result="back"/>
			<feBlend  in="SourceGraphic" in2="back" mode="normal"/>
		</filter>
	</defs>
	<mask maskUnits="userSpaceOnUse" x="28.708" y="40.451" width="53.87" height="30.961" id="SVGID_3_">
		<g filter="url(#Adobe_OpacityMaskFilter)">
			<defs>
				<filter id="Adobe_OpacityMaskFilter_1_" filterUnits="userSpaceOnUse" x="28.708" y="40.451" width="53.87" height="30.961">
					<feFlood  style="flood-color:white;flood-opacity:1" result="back"/>
					<feBlend  in="SourceGraphic" in2="back" mode="normal"/>
				</filter>
			</defs>
			<mask maskUnits="userSpaceOnUse" x="28.708" y="40.451" width="53.87" height="30.961" id="SVGID_3_">
				<g filter="url(#Adobe_OpacityMaskFilter_1_)">
				</g>
			</mask>
			<linearGradient id="SVGID_4_" gradientUnits="userSpaceOnUse" x1="64.5078" y1="66.5537" x2="52.2332" y2="49.0489">
				<stop  offset="0" style="stop-color:#FFFFFF"/>
				<stop  offset="0.0524" style="stop-color:#E8E8E8"/>
				<stop  offset="0.2031" style="stop-color:#ABABAB"/>
				<stop  offset="0.3529" style="stop-color:#777777"/>
				<stop  offset="0.4983" style="stop-color:#4C4C4C"/>
				<stop  offset="0.6383" style="stop-color:#2B2B2B"/>
				<stop  offset="0.7716" style="stop-color:#131313"/>
				<stop  offset="0.8952" style="stop-color:#050505"/>
				<stop  offset="1" style="stop-color:#000000"/>
			</linearGradient>
			<path mask="url(#SVGID_3_)" fill-rule="evenodd" clip-rule="evenodd" fill="url(#SVGID_4_)" d="M82.578,42.3
				c-0.096-0.625-0.217-1.243-0.351-1.849c-4.914,3.576-10.505,7.216-16.573,10.716c-14.081,8.134-27.557,13.698-36.946,15.706
				c1.415,1.677,3.009,3.2,4.749,4.539c7.133-2.569,15.598-6.547,24.363-11.602C67.93,53.972,76.587,47.757,82.578,42.3z"/>
		</g>
	</mask>
	<linearGradient id="SVGID_5_" gradientUnits="userSpaceOnUse" x1="64.5078" y1="66.5537" x2="52.2332" y2="49.0489">
		<stop  offset="0" style="stop-color:#231F20"/>
		<stop  offset="1" style="stop-color:#231F20"/>
	</linearGradient>
	<path fill-rule="evenodd" clip-rule="evenodd" fill="url(#SVGID_5_)" d="M82.578,42.3c-0.096-0.625-0.217-1.243-0.351-1.849
		c-4.914,3.576-10.505,7.216-16.573,10.716c-14.081,8.134-27.557,13.698-36.946,15.706c1.415,1.677,3.009,3.2,4.749,4.539
		c7.133-2.569,15.598-6.547,24.363-11.602C67.93,53.972,76.587,47.757,82.578,42.3z"/>
	<path fill-rule="evenodd" clip-rule="evenodd" fill="#FFFFFF" d="M14.99,60.537c-2.269,2.868-3.136,5.278-2.231,6.903
		c2.869,5.15,22.387,0.549,43.583-10.281c15.088-7.714,26.97-16.504,31.527-22.796c-6.33,4.852-14.47,9.957-23.693,14.675
		C40.858,60.958,19.21,65.962,14.99,60.537z"/>
	<path fill-rule="evenodd" clip-rule="evenodd" fill="#231F20" d="M14.99,65.375c-2.269,3.016-3.136,5.482-2.231,7.044
		c2.869,4.973,22.387-0.924,43.583-13.169c15.088-8.714,26.97-18.295,31.527-24.887c-6.33,5.272-14.47,10.92-23.693,16.249
		C40.858,64.075,19.21,70.52,14.99,65.375z"/>
</g>
</svg>
