<?xml version="1.0" encoding="iso-8859-1"?>
<!-- Generator: Adobe Illustrator 13.0.0, SVG Export Plug-In . SVG Version: 6.00 Build 14948)  -->
<!DOCTYPE svg PUBLIC "-//W3C//DTD SVG 1.1//EN" "http://www.w3.org/Graphics/SVG/1.1/DTD/svg11.dtd">
<svg version="1.1" id="Layer_1" xmlns="http://www.w3.org/2000/svg" xmlns:xlink="http://www.w3.org/1999/xlink" x="0px" y="0px"
	 width="100px" height="100px" viewBox="0 0 100 100" enable-background="new 0 0 100 100" xml:space="preserve">
<g>
	<g>
		<g>
			<g>
				<g>
					<path fill="#24241F" d="M26.88,21.73c-0.463,0.458,0.479-0.012-0.244,0.357C26.614,21.935,26.644,21.786,26.88,21.73z"/>
					<path fill="#24241F" d="M18.195,53.687c1.345,1.777,1.376,4.658,3.114,6.383c0.152,0.216-0.451,0.161-0.067,0.64
						c1.4,1.772,3.36,4.493,4.689,6.982l-0.2-0.033c0.271,0.463,0.937,0.69,1.353,1.043c-0.058,0.063-0.228-0.022-0.211,0.149
						c0.29-0.109,0.855,0.542,1.161,0.542c0.102,0.211-0.055,0.36,0.086,0.626l0.439-0.029c1.129,0,1.6,1.387,2.736,1.841
						l-0.172,0.103c1.732,0.823,3.882,1.804,5.756,2.713c-0.119,0.063-0.267,0.205-0.212,0.376c0.239-0.273,0.804,0.048,1.372,0.142
						c0.118,0.377,1.023,0.008,1.58,0.377l-0.079,0.047c0.577-0.172,0.624,0.407,1.125,0.141l0.22,0.33
						c0.337-0.376,0.596,0.447,1.051,0.346l0.012-0.094l0.871,0.321l0.02,0.055c0.803,0.165,1.218,0.493,1.278,0.117
						c0.219,0.353-0.808-0.015-0.455,0.486c2.78-0.173,5.505,0.713,8.235,0.361c0.313,0.126,0.513,0.155,0.588,0.29
						c0.271-0.096,1.027-0.135,1.263-0.338c-0.095,0.016,0.188,0.174,0.337,0.18c0.513,0.103,0.502-0.431,1.066-0.305
						c-0.207,0.109-0.267,0.235-0.181,0.36c0.431-0.313,1.067-0.29,1.592-0.447l-0.156,0.235c0.533-0.423,1.078-0.204,1.553-0.532
						l-0.149,0.258c0.878,0.031,0.153-0.486,0.894-0.533c-0.156,0.109-0.078,0.173-0.086,0.267c0.576-0.55,1.67-0.705,2.29-1.012
						v0.095c0.689-0.267,1.522-0.243,2.195-0.761c0.299-0.047,0.095,0.518,0.777,0.094c-0.181-0.377,1.137-0.753,0.532-0.98
						c0.62-0.227,1.64-0.557,1.977-0.869c-0.2,0.273,0.529,0.305,0.039,0.579l0.502,0.039c0.024,0.181-0.423,0.142-0.199,0.275
						c0.247-0.142,0.913-0.651,1.172-0.707c0.321-0.493,0.589-0.979,1.192-1.583c-0.228,0.384,0.423,0.25,0.251,0.478l0.478-1.379
						c0.212-0.189,0.24,0.234,0.495-0.103l0.058-0.384c0.114-0.024,0.844-0.778,1.192-0.526c0.2,0.048-0.311,0.337,0.027,0.267
						c0.408-0.313,0.338-0.438,0.737-0.76l0.047,0.039c0.31-0.165,0.676-0.745,0.236-0.69c-0.197,0.133,0.234,0.133-0.123,0.251
						c0.036-0.322,0.456-0.729,0.852-1.044l0.023,0.354l1.09-1.961c-0.138-0.141,0.071,0.455-0.078,0.479
						c0.839-0.556,1.019-1.779,1.851-2.123c-0.062,0.118-0.262-0.125-0.216-0.098c0.326-0.338,0.533-0.142,0.647-0.439
						c0.156,0.079,0.211-0.322,0.376-0.584c0.009-0.196,0.118-0.02-0.047,0.2c0.267-0.354,0.934-1.98,1.601-2.749
						c-0.103-0.039-0.048-0.741,0.074-0.93l0.184,0.208c0.234-0.109,0.357-0.687,0.568-0.615c-0.027-0.581-0.701,1.791-0.584,1.09
						c0.274-0.043,0.103-1.012,0.337-0.714c0.22-0.412,0.181-0.934,0.612-1.208c-0.098,0.091,0.134,0.49,0.305,0.154
						c0.287-0.604-0.019-0.221,0.17-0.727l0.07-0.338c-0.216-0.12,0.321-0.493-0.055-0.398c0.235,0.012,0.181-0.95,0.548-0.726
						l0.275,0.216c0.066-0.287-0.173-0.581-0.239-0.843l0.169-0.039c-0.455-0.224,0.25-0.64-0.013-1.087
						c0.353-0.506,0.486-1.423,0.876-1.604c-0.006-0.479-0.048-0.91,0.223-1.385l0.078,0.302c0.234-0.278,0.172-0.38,0.13-0.693
						c0.065,0.087,0.363-0.592,0.584-0.926c-0.095-0.486-0.381-0.372-0.534-0.446c0.538-0.341-0.164-1.317,0.347-1.772
						c0.046,0.165,0.155,0.694,0.329,0.329c0.541-0.368-0.264-0.882,0.055-1.525l-0.428,0.133c0.289-0.282-0.118-0.992,0.294-0.902
						c-0.121-0.227,0.231-0.776-0.181-0.717c0.26-1.098-0.407-2.631,0.26-3.36c-0.079-0.153-0.044-0.557-0.244-0.455
						c-0.2,0.287,0.188,0.354,0.044,0.467l-0.192-0.176c0.071-0.345,0.078-0.619,0.432-0.33c0.188-0.804-0.738-0.709-0.651-1.689
						c0.168,0.023,0.229-0.063,0.181-0.341l-0.394-0.471c-0.108-0.612,0.268-0.416,0.542-0.486
						c-0.141-0.317-0.242-0.721-0.486-0.819l0.228-0.478c-0.164,0.348-0.242-0.228-0.353-0.361l0.11,0.133
						c0.101-0.09-0.079-0.447-0.165-0.631c-0.158,0.094-0.117,0.498-0.107,0.713l-0.411-0.576c0.282,0,0.039-0.573-0.007-0.839
						c-0.023-0.314-0.329-0.259-0.345-0.346c0.137-0.05-0.11-0.485,0.145-0.321c0.071,0.09-0.066,0.271,0.098,0.404
						c0.048-0.227,0.289-0.287,0.004-0.631c-0.216-0.263-0.49,0.251-0.49-0.377l0.346,0.205l-0.015-0.592l-0.244,0.062l0.094-0.094
						c-0.286-0.07-0.297-0.795-0.674-0.78l-0.212-0.843l0.042,0.035c-0.019-0.348-0.31-0.702-0.592-0.87l0.056-0.012
						c-0.062-0.164-0.294-0.521-0.53-0.658c-0.038-0.486,0.773-0.569,0.255-0.871c-0.222-0.417-0.736-0.424-0.791-0.185
						c-0.26-0.799-0.957-1.462-1.083-2.286c-0.156-0.035-0.164,0.059-0.368-0.098c-0.689-0.992-1.835-1.78-2.062-2.843
						c0.298,0.204,0.204-0.149,0.306-0.243c-0.353-0.082-0.047-0.428-0.399-0.259c-0.153,0.172-0.251,0.223-0.11,0.549
						c-0.541-0.478-1.223-1.325-1.325-1.78c0.048,0.231-0.078,0.141-0.258,0.094c0.297-0.22-0.079-0.596-0.479-0.76l-0.197,0.125
						l-0.047-0.33c-0.168-0.051-0.447,0.231-0.611-0.177l0.071-0.251c-0.448-0.133-1.09-0.266-1.318-0.694l-0.082-0.482
						c-0.168-0.099-0.537-0.157-0.333,0.133c-0.475-0.643-0.84-0.977-0.871-1.356c-1.407-0.322-3.187-1.004-4.474-1.834l0.114-0.126
						c-0.291-0.333-0.314,0.161-0.519-0.078c0.188-0.079-0.126-0.459,0.243-0.479c-0.447-0.443-0.791-0.105-1.16-0.219
						c-0.137,0.168,0.329,0.024,0.148,0.231c-0.09,0.051-0.635-0.569-0.866-0.251c-0.09-0.157,0.111-0.346,0.24-0.447l-0.408,0.04
						c-0.279-0.506,1.223-0.302,0.965-0.894l-0.347-0.062c-0.18-0.428,1.02-0.063,0.24-0.455c-0.428,0.035-0.901,0.38-0.64,0.616
						c-0.772-0.149-0.627,0.619-1.391,0.353c-0.146-0.251,0.638,0.152,0.583-0.15c-0.278-0.364-0.792-0.097-1.085-0.282
						c0.325,0.231-0.09,0.448-0.342,0.432c-0.346-0.275,0.352-0.216-0.195-0.423c-0.15,0.148-0.698,0.125-0.299,0.388
						c-0.329,0.349-0.541-0.294-0.934-0.075c-0.102-0.345,0.77-0.482,0.192-0.823c0.016,0.306-0.858,0.137-0.65,0.659
						c-0.212-0.157-0.181-0.384,0.035-0.506c-0.299-0.278-0.949,0.251-0.93-0.345l-0.184,0.255l-0.362-0.463
						c-0.32-0.039-1.089,0.278-0.979-0.156c-0.11,0.031-0.828-0.075-0.602,0.267c0.412,0.239,0.554-0.161,0.718,0.278
						c-0.246-0.376-0.642-0.027-0.912,0.05l-0.013-0.176c-0.164,0.051-0.509-0.027-0.627,0.149c0.125-0.086,0.086-0.212-0.032-0.266
						l-0.195,0.243c-0.628,0.055-0.082-0.479-0.693-0.479l0.482-0.149c-0.103,0.035-0.283-0.239-0.585-0.192l-0.49,0.667
						c-0.346,0.062-0.125-0.29-0.479-0.086l0.459-0.231c0.074-0.074-0.259-0.435-0.717-0.486c-0.303,0.047-0.77,0.337-0.322,0.525
						c-0.228-0.023-0.533-0.212-0.346-0.365c-0.521,0.023,0.057,0.267-0.392,0.365c-0.173-0.224-0.737-0.412-1.082-0.616
						l0.479-0.432l-0.318,0.016c0.415-0.353-0.207-0.231,0.028-0.592l-0.698,0.2c0.635,0.505-0.698,0.796-0.498,1.278
						c-0.835,0.195-0.592-1.169-1.443-0.329c0.153,0.121-0.236,0.524,0.287,0.341c-0.53-0.016-0.318,0.525-0.949,0.361
						c0.439-0.235-0.545-0.467,0.094-0.808c-0.028,0.165,0.392,0.102,0.485,0.043c-0.231-0.177,0.016-0.499-0.541-0.467
						c-0.337,0.075-0.8,0.114-0.702,0.364c0.043,0.286,0.506-0.062,0.325,0.239c-0.65,0.142-0.819-0.282-1.027,0.239
						c0.412-0.066,0.549,0.216,0.564,0.412L46.343,15.5l0.071-0.192c-0.788-0.086-0.18,0.353-0.925,0.345l-0.4-0.278
						c0.109-0.42,1.098,0.019,0.886-0.498c-0.494,0-0.616,0.267-1.083,0.27l0.322-0.192c-0.172,0.027-0.471-0.607-1.082-0.027
						c-0.321,0.251-0.055,0.208-0.024,0.404c-0.749,0.258-0.925,0.517-1.403,0.674c0.003-0.396-0.875,0.196-0.436-0.33
						c0.31,0.15,1.392-0.156,1.592-0.592c-0.373-0.369,0.616-0.102,0.694-0.596c-0.624,0.16-0.682-0.29-0.847-0.545l-0.416,0.263
						c-0.016,0.286,0.212,0.227,0.283,0.497c-0.714,0.114-1.35,0.443-1.655,0.804c-0.271-0.075-0.274-0.361,0-0.455l-2.525,0.623
						c0.651,0.255-0.828,0.373-0.353,0.627c0.431-0.09,0.909,0.169,0.745,0.404c-0.267,0.039-0.059-0.188-0.2-0.251
						c-0.247,0.294-0.624-0.173-0.792,0.329c0.636-0.478-0.062-0.58-0.062-0.972c-0.439,0.439-0.066-0.243-0.576,0.007l-1.529,1.227
						c-0.855,0.051-1.8,0.875-2.42,1.196c-0.419,0.004-0.396-0.447-0.796-0.326c-0.423,0.215,0.534,0.208-0.188,0.365l0.02-0.098
						c-0.185,0.102-1.188,0.541-1.047,1.122l-0.067-0.494l-0.227,0.31c-0.082-0.113-0.278-0.125-0.161-0.329
						c-0.509,0.023-0.698,0.611-1.062,0.909l0.388,0.02c-0.514,0.66-1.09,0.789-1.655,1.35l-0.141-0.211l-0.271,0.403
						c-0.067-0.254-0.505-0.11-0.568,0.2l0.572-1.224c0.361-0.102-0.106,0.458,0.22,0.518c0.282,0.055,0.808-0.443,0.757-0.714
						c-0.239,0.157-0.216,0.208-0.333,0.412c-0.29-0.216,0.055-0.467,0.083-0.784c-0.106,0.105-0.341,0.153-0.298,0.259
						c0.126-0.318,0.345-0.521,0.726-0.828c-0.18,0.31,0.271,0.063,0.231,0.216c-0.152-0.267,0.16-0.631,0.69-0.941
						c0.545,0.047,0.749-0.925,1.404-1.203l-0.498,1.199c0.431-0.137,0.368-0.317,0.808-0.431c0.066-0.29,0.015-0.663,0.463-1.035
						l0.141,0.184c0.407-0.33,0.243-0.623,0.87-0.871c1.082-0.4,2.133-0.917,2.925-1.27l0.118,0.192
						c0.243-0.659,1.36-0.917,1.944-1.211c1.137-0.075,2.278-0.832,2.93-0.596c1.831-0.776,3.501-1.247,5.563-1.192l-0.313,0.353
						c0.345-0.267,0.251,0.177,0.604,0.102c-0.431-0.23,0.462-0.372,0.706-0.596c0.918,0.204,2.066-0.172,2.886-0.427l0.023,0.235
						c0.832-0.338,1.796,0.156,2.789,0.344c0.105,0.11,0.262,0.35,0.56,0.361c0.597-0.301,0.879-0.239,1.726-0.373
						c0.588,0.083,1.537,0.235,2.062,0.62c2.234,0.235,4.418,1.031,6.631,1.76l0.034,0.322c2.195,0.65,4.604,2.145,6.188,3.243
						l-0.415,0.258c0.379,0.494,1.133,0.772,1.214,0.42c0.385,0.493,1.325,0.803,1.376,1.337c0.429,0.454,0.73,0.325,1.173,0.615
						c0.887,0.886,1.169,1.243,1.976,2.109l-0.164-0.247c-0.156-0.032-0.306,0.094-0.141,0.337c0.368,0.255,0.921,1.333,1.062,0.64
						c0.549,1.168,2.07,2.144,2.495,3.348c0.058-0.165,0.284,0.051,0.418,0.125c0.528,0.988,0.805,2.172,1.436,2.838
						c0.016,0.189-0.354-0.129-0.157,0.274c0.173,0.208,0.173-0.085,0.399,0.168c1.125,1.479,1.459,3.353,1.851,4.933
						c1.22,2.689,1.719,5.709,1.78,8.528l-0.113-0.032c0.467,0.93-0.216,2.192,0.356,2.941c-0.125,0.216-0.145,0.839-0.337,0.667
						c0.208,0.765-0.525,2.031-0.282,3.145l-0.024-0.278c-0.406,1.031-0.081,2.066-0.603,3.117l-0.079-0.384
						c-0.336,0.363,0.13,1.101-0.459,1.198c-0.073,0.239,0.2,0.239,0.236,0.09c-1.024,2.287-1.278,5.027-2.662,7.298
						c-1.2,1.475-0.835-0.341-1.213,1.134c-0.145,0.051,0.129,0.18,0.028,0.141c-0.157,0.576-0.933,0.451-0.894,0.934
						c0.352,0.039,0.023,0.329,0.184,0.45c-0.702,0.898-1.204,0.796-1.548,1.651l-0.095-0.161c-0.299,1.088-1.29,1.842-1.464,2.893
						c-3.822,4.446-8.637,7.652-14.002,9.785c-5.434,1.507-11.108,2.784-16.805,1.451c-1.278-0.611-1.356-0.604-2.862-0.611
						c0.078-0.062,0.172-0.071,0.09-0.141c-0.153,0.36-0.996-0.268-1.215,0.031c-1.997-0.737-3.949-1.106-5.964-1.969
						c0.325,0.126,0.596-0.07,0.228-0.235l-0.475,0.008l-0.02-0.124c-0.267-0.087-0.62-0.063-0.411,0.18
						c-5.094-2.22-9.321-5.992-12.497-10.281c-0.619-1.14-2.094-2.309-2.693-3.586c-1.753-3.819-2.564-7.306-3.933-11.241
						C16.418,51.844,17.509,52.182,18.195,53.687z"/>
					<path fill="#24241F" d="M27.476,21.212c0.235,0.051,0.658-0.152,0.541,0.251L27.476,21.212z"/>
					<path fill="#24241F" d="M38.498,16.472l0.219,0.008c-0.122,0.078-0.185,0.282-0.321,0.243L38.498,16.472z"/>
					<path fill="#24241F" d="M41.34,15.684c0,0.168-0.564,0.455-0.914,0.561L41.34,15.684z"/>
					<path fill="#24241F" d="M44.132,15.637c0.255,0.079,0.204,0.172-0.094,0.243L44.132,15.637z"/>
					<path fill="#24241F" d="M44.246,15.222l0.466,0.071C44.681,15.154,44.227,15.512,44.246,15.222z"/>
					<path fill="#24241F" d="M50.124,15.092c0.137-0.023,0.439-0.185,0.569-0.012C50.547,14.966,50.014,15.335,50.124,15.092z"/>
					<path fill="#24241F" d="M52.837,14.916l0.224,0.023c0.152,0.094-0.024,0.193-0.161,0.193L52.837,14.916z"/>
					<polygon fill="#24241F" points="82.73,48.436 82.683,48.13 82.841,48.185 					"/>
					<path fill="#24241F" d="M73.348,67.997c-0.164,0.258-0.27,0.016-0.325,0.022C73.226,67.847,73.084,68.231,73.348,67.997z"/>
					<polygon fill="#24241F" points="63.585,75.124 63.667,75.085 63.765,75.407 					"/>
				</g>
			</g>
		</g>
		<g>
			<g>
				<g>
					<path fill="#24241F" d="M21.194,49.562c-0.251-0.102,0.032,0.208-0.188-0.027L21.194,49.562z"/>
					<path fill="#24241F" d="M80.813,32.682c0.31,0.902-0.255,1.957-0.259,2.917c-0.021,0.106-0.246-0.102-0.271,0.142
						c0,0.945-0.564,2.325-1.427,3.105l-0.035-0.09l-0.196,0.666l-0.113-0.086c0.104,0.126-0.139,0.38-0.087,0.522L78.119,39.9
						l0.086,0.196c0.16,0.518-0.426,0.745-0.54,1.255l-0.071-0.094c-0.274,0.757-0.917,1.502-1.395,2.247l-0.169-0.168
						c0.108,0.152-0.023,0.396-0.146,0.604c-0.211-0.051-0.168,0.392-0.447,0.51l-0.016-0.043c-0.007,0.279-0.297,0.125-0.25,0.404
						l-0.204-0.012c0.122,0.251-0.309,0.102-0.337,0.314l0.039,0.031l-0.302,0.251l-0.031-0.012c-0.209,0.286-0.45,0.313-0.31,0.463
						c-0.196-0.047,0.196-0.286-0.102-0.337c-0.667,0.957-1.577,1.702-2.562,2.286l-0.307-0.016l-0.355,0.416l-0.181-0.02
						c-0.212,0.051-0.059,0.314-0.298,0.365l-0.035-0.216l-0.467,0.541l0.008-0.149c-0.11,0.298-0.399,0.224-0.522,0.443
						l0.009-0.145c-0.364,0.075,0.043,0.271-0.256,0.369l-0.019-0.149c-0.137,0.329-0.608,0.435-0.835,0.615l-0.009-0.051
						l-0.873,0.439c-0.138,0-0.1-0.274-0.376-0.109c0.12,0.211-0.468,0.314-0.169,0.478c-0.278,0.075-0.727,0.169-0.864,0.317
						c0.08-0.129-0.25-0.211-0.046-0.317l-0.22-0.062c-0.016-0.102,0.181-0.04,0.079-0.13l-0.486,0.279
						c-0.138,0.219-0.213,0.545-0.522,0.717c0.114-0.156-0.192-0.208-0.105-0.29l-0.271,0.62c-0.105,0.055-0.095-0.165-0.228-0.039
						l-0.052,0.184c-0.046-0.004-0.423,0.25-0.556,0.051c-0.082-0.066,0.156-0.125,0.009-0.145l-0.378,0.254l-0.016-0.027
						c-0.141,0.024-0.353,0.26-0.164,0.318c0.095-0.028-0.079-0.113,0.078-0.11l-0.463,0.393l0.032-0.196l-0.75,0.67
						c0.032,0.106,0.048-0.238,0.106-0.203c-0.432,0.016-0.726,0.549-1.114,0.47l0.063,0.114l-0.334,0.017
						c-0.042-0.083-0.177,0.109-0.223,0.175c-0.023,0.087-0.039-0.03,0.034-0.081c0.012,0.152-0.921,0.572-1.289,0.497
						c0.023,0.06-0.196,0.286-0.299,0.302v-0.145l-0.367-0.032c-0.161,0.225,0.756-0.341,0.509-0.14
						c-0.102-0.103-0.325,0.324-0.317,0.113c-0.191,0.059-0.342,0.263-0.561,0.173c0.062,0.007,0.109-0.234-0.048-0.189
						c-0.267,0.095-0.059,0.091-0.271,0.193l-0.125,0.09c0.027,0.142-0.251,0.039-0.109,0.172c-0.062-0.102-0.385,0.169-0.413-0.07
						l-0.007-0.188l-0.225,0.345l-0.058-0.074c0.048,0.283-0.29,0.043-0.381,0.294c-0.273-0.035-0.639,0.15-0.795,0.009
						l-0.562,0.267l0.095-0.122l-0.291,0.11c0.02-0.052-0.31-0.099-0.486-0.161c-0.172,0.134-0.074,0.267-0.074,0.364
						c-0.235-0.23-0.502,0.314-0.772,0.115c0.059-0.056,0.247-0.205,0.074-0.24c-0.227-0.23-0.306,0.298-0.619,0.228l0.117,0.215
						c-0.152-0.113-0.387,0.235-0.407-0.003c-0.075,0.113-0.346-0.007-0.275,0.207c-0.508-0.133-1.144,0.251-1.505-0.117
						c-0.062,0.048-0.235,0.026-0.181,0.142c0.134,0.109,0.142-0.115,0.196-0.028l-0.062,0.109
						c-0.156-0.035-0.274-0.042-0.164-0.246c-0.354-0.095-0.283,0.428-0.714,0.389l-0.157-0.099l-0.211,0.188
						c-0.274-0.004-0.181-0.191-0.208-0.352l-0.373,0.184l-0.196-0.177c0.145,0.126-0.11,0.106-0.172,0.153l0.062-0.047
						l-0.278,0.027l0.302,0.134l-0.271,0.168c0.015-0.156-0.247-0.082-0.365-0.082l-0.172,0.152
						c-0.016-0.082-0.22,0.013-0.125-0.113l0.173-0.013c-0.091-0.051-0.095-0.191-0.267-0.07c-0.126,0.096,0.066,0.311-0.204,0.235
						l0.122-0.172l-0.247-0.051v0.145l-0.031-0.062l-0.408,0.258l-0.384-0.066l0.023-0.017L46.07,56.6v-0.035l-0.354,0.145
						c-0.204-0.086-0.094-0.537-0.301-0.333c-0.201,0.031-0.302,0.298-0.217,0.385c-0.467-0.048-0.611,0.207-1.042,0.031
						L44.03,56.94c-0.612,0.048-1.145,0.13-1.592-0.148c0.158-0.051,0.016-0.141,0.009-0.22c-0.126,0.118-0.15-0.14-0.197,0.075
						l0.149,0.255c-0.318,0.046-0.804,0.011-0.977-0.122l-0.051,0.138c0.024-0.205-0.208-0.252-0.384-0.192l-0.031,0.126
						l-0.109-0.139c-0.071,0.035-0.087,0.263-0.259,0.126l-0.047-0.137c-0.188,0.09-0.455,0.251-0.651,0.133l-0.149-0.2
						c-0.085,0.017-0.239,0.117-0.093,0.181c-0.33-0.138-0.549-0.164-0.643-0.329c-0.62,0.349-1.482,0.301-2.161,0.227l0.036-0.09
						c-0.173-0.102-0.119,0.157-0.236,0.086c0.07-0.086-0.118-0.208,0.047-0.309c-0.25-0.115-0.361,0.145-0.541,0.172
						c-0.043,0.118,0.149-0.071,0.095,0.087c-0.04,0.038-0.35-0.122-0.42,0.058l0.066-0.282l-0.172,0.078
						c-0.156-0.228,0.502-0.355,0.345-0.634l-0.149,0.016c-0.11-0.199,0.415-0.189,0.062-0.279c-0.173,0.08-0.353,0.338-0.227,0.428
						c-0.33,0.023-0.235,0.447-0.573,0.377c-0.071-0.122,0.278,0.02,0.239-0.149c-0.133-0.16-0.341,0.023-0.475-0.051
						c0.148,0.101-0.02,0.262-0.125,0.271c-0.166-0.118,0.141-0.145-0.106-0.22c-0.059,0.102-0.302,0.137-0.114,0.251
						c-0.133,0.22-0.251-0.121-0.415,0.039c-0.055-0.188,0.321-0.341,0.062-0.482c0.016,0.177-0.376,0.157-0.275,0.423l0.008-0.281
						c-0.133-0.13-0.423,0.227-0.416-0.109l-0.078,0.16l-0.165-0.228c-0.133-0.028-0.474,0.142-0.419-0.113
						c-0.02,0.036-0.498-0.111-0.353,0.113c0.349,0.212,0.29-0.063,0.396,0.203c-0.032-0.199-0.365-0.045-0.526-0.035l0.004-0.101
						l-0.365,0.022l0.016-0.153l-0.137,0.114c-0.419-0.051,0.682-0.121,0.051-0.199c-0.059-0.063,0.431,0.007-0.078-0.165
						c0.533,0.16,0.031-0.091,0.031-0.024c-0.172,0.11,0.094,0.338-0.471,0.35c-0.161,0.012-0.023-0.172-0.204-0.075l0.231-0.109
						c0.043-0.03-0.06-0.255-0.255-0.306c-0.133,0.004-0.376,0.141-0.204,0.275c-0.102-0.032-0.212-0.149-0.11-0.225
						c-0.227-0.016-0.007,0.153-0.219,0.177l-0.361-0.479l0.259-0.164l-0.133-0.039c0.219-0.126-0.047-0.161,0.102-0.318h-0.306
						c0.259,0.408-0.517,0.279-0.525,0.557c-0.345-0.077,0.196-0.693-0.384-0.438c0.039,0.091-0.201,0.235,0.05,0.239
						c-0.216-0.113-0.231,0.215-0.467,0c0.228-0.036-0.125-0.354,0.204-0.409l0.188,0.118c-0.063-0.137,0.098-0.267-0.125-0.353
						c-0.149-0.027-0.337-0.094-0.353,0.06c-0.048,0.156,0.211,0.062,0.078,0.188c-0.297-0.052-0.267-0.31-0.47-0.074
						c0.181,0.043,0.177,0.219,0.137,0.329l-0.227-0.016l0.074-0.086c-0.305-0.205-0.156,0.146-0.475-0.009l-0.082-0.254
						c0.137-0.148,0.439,0.254,0.479-0.052l-0.49-0.125h0.164c-0.071-0.036-0.011-0.438-0.38-0.329
						c-0.18,0.022-0.079,0.078-0.122,0.188l-0.706-0.098c0.126-0.188-0.373-0.164-0.051-0.282c0.06,0.165,0.549,0.333,0.737,0.184
						c-0.031-0.289,0.248,0.135,0.409-0.082c-0.263-0.109-0.161-0.35-0.146-0.517l-0.216,0.012l-0.039,0.32
						c-0.278-0.152-0.592-0.18-0.811-0.101c-0.071-0.106,0.02-0.244,0.145-0.213l-1.043-0.424c0.109,0.311-0.392-0.094-0.337,0.157
						c0.153,0.126,0.231,0.354,0.086,0.415c-0.11-0.054,0.047-0.101,0.023-0.164c-0.2,0.071-0.126-0.294-0.36-0.148
						c0.36,0.051,0.196-0.255,0.341-0.42c-0.279,0.016,0.071-0.126-0.153-0.211l-0.839-0.13c-0.204-0.349-0.736-0.442-1.003-0.596
						c-0.086-0.173,0.117-0.313-0.008-0.438c-0.177-0.1,0.008,0.293-0.2,0.05l0.05-0.028c-0.109,0-0.392-0.411-0.635-0.176
						l0.204-0.164l-0.161-0.031l0.125-0.165c-0.066-0.239-0.341-0.169-0.517-0.267l0.036,0.188l-0.785-0.443l0.086-0.112
						l-0.215-0.028c0.113-0.094,0.011-0.262-0.138-0.219l0.62-0.031c0.079,0.141-0.219,0.067-0.219,0.231
						c-0.008,0.146,0.278,0.268,0.393,0.173l-0.22-0.052c0.079-0.188,0.224-0.093,0.369-0.16l-0.141-0.066l0.431,0.118
						c-0.153,0,0,0.14-0.071,0.165c0.102-0.137,0.29-0.09,0.478,0.083c0.043,0.258,0.455,0.117,0.667,0.309l-0.565,0.122
						l0.283,0.267l0.53-0.172l-0.051,0.125c0.212,0.047,0.306-0.117,0.514,0.047l1.07,0.698l-0.047,0.121
						c0.307-0.185,0.651,0.137,0.941,0.118c0.361,0.273,0.941,0.228,1.067,0.518c0.768,0.188,1.427,0.337,2.164,0.674l-0.18,0.135
						c0.172-0.083,0.055,0.136,0.196,0.159c-0.109-0.2,0.243-0.113,0.365-0.191c0.412,0.364,0.702,0.271,1.129,0.255l-0.023,0.129
						c0.333-0.168,0.803,0.238,0.969,0.271c0.098,0.071-0.024,0.152,0.356,0.216l0.647-0.145c0.133,0.031,0.572,0.163,0.772,0.289
						c0.921-0.126,1.792,0.298,2.725,0.126l0.04,0.153c0.925-0.267,1.963,0.105,2.729-0.017l-0.095,0.255
						c0.231,0.099,0.541-0.027,0.494-0.22c0.231,0.099,0.597-0.085,0.733,0.143l0.498-0.126l1.114,0.101l-0.118-0.019l0.06,0.185
						c0.169-0.055,0.624,0.113,0.455-0.208c0.49,0.208,1.133-0.036,1.533,0.113l0.086-0.172c0.666-0.074,0.945,0.062,1.329-0.126
						c0.07,0.036-0.098,0.161,0.074,0.148l0.118-0.176c0.675-0.239,1.399,0,2.023-0.113c1.09-0.294,2.251-0.349,3.31-0.495v0.063
						c0.313-0.279,0.882,0.145,1.098-0.247c0.095,0.035,0.321-0.051,0.282,0.082c0.251-0.234,0.819-0.035,1.181-0.35l-0.094,0.064
						l1.22-0.22l-0.11,0.133c0.188,0.083,0.333-0.354,0.493-0.078l-0.022-0.142c0.972-0.121,1.937-0.557,2.905-0.867
						c0.748,0,0.176,0.487,0.67,0.134l0.031-0.062c0.188-0.137,0.424,0.243,0.529,0.051c-0.109-0.165,0.074-0.125,0.048-0.235
						c0.474,0.036,0.387,0.153,0.89-0.188l-0.008,0.109c0.242-0.416,0.753-0.471,0.957-0.906l5.87-2.831
						c2.014-0.705,3.548-2.204,5.351-3.321c0.534-0.145,0.565-0.184,0.895-0.634l0.047,0.082c-0.121-0.176,0.275-0.278,0.173-0.466
						l1.646-1.624c-0.059,0.114,0.031,0.278,0.114,0.149l-0.004-0.211l0.063,0.019c0.039-0.102,0.03-0.262-0.087-0.223
						c1.172-1.631,2.563-3.079,3.396-4.89c0.239-0.403,0.393-1.067,0.529-1.548c0.918-1.279,1.109-2.69,1.254-4.215
						C80.287,31.776,80.802,32.007,80.813,32.682z"/>
					<path fill="#24241F" d="M21.477,49.707c-0.008,0.118,0.117,0.259-0.087,0.303L21.477,49.707z"/>
					<polygon fill="#24241F" points="25.268,53.146 25.327,53.23 25.146,53.208 					"/>
					<path fill="#24241F" d="M26.464,53.675c-0.055,0.083-0.349,0.051-0.51,0H26.464z"/>
					<path fill="#24241F" d="M27.468,54.479l-0.102,0.091L27.468,54.479z"/>
					<path fill="#24241F" d="M27.625,54.314l0.148,0.168C27.797,54.404,27.539,54.451,27.625,54.314z"/>
					<path fill="#24241F" d="M30.001,55.548l0.239,0.083C30.197,55.548,29.923,55.666,30.001,55.548z"/>
					<polygon fill="#24241F" points="31.189,55.745 31.283,55.776 31.189,55.87 					"/>
					<polygon fill="#24241F" points="53.213,55.588 53.096,55.666 53.096,55.568 					"/>
					<path fill="#24241F" d="M62.42,52.839c0.102-0.104,0.117,0.048,0.141,0.051L62.42,52.839z"/>
					<polygon fill="#24241F" points="67.019,50.35 66.983,50.365 66.905,50.189 					"/>
				</g>
			</g>
			<g>
				<g>
					<path fill="#24241F" d="M25.249,65.435c-0.22-0.131-0.015,0.211-0.176-0.052L25.249,65.435z"/>
					<path fill="#24241F" d="M83.812,47.538c0.236,0.957-0.658,1.808-0.729,2.764c-0.023,0.11-0.236-0.137-0.275,0.114
						c-0.008,0.972-0.937,2.11-1.683,2.901l-0.034-0.097l-0.235,0.642l-0.109-0.09c0.097,0.125-0.165,0.356-0.122,0.494
						l-0.313,0.023l0.075,0.2c0.141,0.518-0.502,0.671-0.597,1.188l-0.07-0.099c-0.197,0.809-0.895,1.482-1.396,2.176l-0.173-0.172
						c0.109,0.153-0.031,0.381-0.156,0.577c-0.212-0.056-0.137,0.407-0.392,0.536l-0.016-0.043c0.007,0.282-0.283,0.142-0.22,0.427
						l-0.188-0.007c0.129,0.251-0.291,0.122-0.307,0.337l0.044,0.031l-0.275,0.263l-0.03-0.012c-0.208,0.267-0.459,0.286-0.31,0.436
						c-0.204-0.047,0.195-0.271-0.11-0.321c-0.698,0.866-1.604,1.584-2.451,2.305h-0.294l-0.31,0.455l-0.168-0.012
						c-0.205,0.062-0.052,0.307-0.29,0.353l-0.041-0.211l-0.457,0.506v-0.142c-0.105,0.286-0.405,0.204-0.521,0.415l0.004-0.141
						c-0.373,0.063,0.05,0.26-0.248,0.345l-0.023-0.141c-0.118,0.33-0.541,0.514-0.74,0.718l-0.016-0.047l-0.785,0.553
						c-0.129,0.016-0.112-0.275-0.364-0.063c0.133,0.2-0.411,0.369-0.117,0.506c-0.255,0.114-0.667,0.263-0.785,0.431
						c0.063-0.145-0.251-0.187-0.071-0.321l-0.21-0.043c-0.024-0.102,0.165-0.062,0.062-0.141l-0.463,0.273
						c-0.134,0.205-0.2,0.523-0.51,0.676c0.113-0.142-0.192-0.207-0.109-0.283l-0.259,0.584c-0.103,0.052-0.099-0.163-0.228-0.043
						l-0.048,0.184c-0.047-0.016-0.419,0.22-0.556,0.023c-0.087-0.065,0.153-0.112,0-0.144l-0.369,0.229l-0.016-0.024
						c-0.141,0.017-0.345,0.236-0.148,0.306c0.095-0.03-0.092-0.117,0.07-0.109c-0.039,0.166-0.255,0.283-0.456,0.369l0.023-0.188
						l-0.721,0.62c0.035,0.102,0.035-0.235,0.103-0.196c-0.439,0-0.706,0.509-1.106,0.415l0.07,0.11h-0.337
						c-0.047-0.079-0.141,0.086-0.251,0.164c-0.04,0.086-0.047-0.039,0.056-0.085c-0.141,0.142-0.777,0.541-1.224,0.564
						c0.031,0.054-0.165,0.313-0.26,0.337l-0.016-0.149c-0.108-0.055-0.298,0.126-0.353,0.008c-0.14,0.244,0.698-0.424,0.479-0.195
						c-0.11-0.087-0.29,0.36-0.297,0.147c-0.182,0.079-0.307,0.298-0.526,0.237c0.058,0.007,0.082-0.252-0.062-0.182
						c-0.251,0.125-0.048,0.095-0.243,0.221l-0.117,0.108c0.039,0.134-0.235,0.071-0.087,0.181c-0.07-0.094-0.356,0.219-0.403-0.023
						l-0.021-0.188l-0.188,0.369l-0.063-0.062c0.067,0.273-0.277,0.079-0.345,0.337c-0.267,0-0.604,0.229-0.769,0.094l-0.518,0.329
						l0.086-0.134l-0.282,0.119c0.016-0.048-0.32-0.103-0.497-0.173c-0.164,0.125-0.06,0.258-0.052,0.354
						c-0.251-0.244-0.489,0.289-0.772,0.085c0.056-0.055,0.239-0.188,0.067-0.227c-0.247-0.235-0.299,0.273-0.611,0.203l0.124,0.212
						c-0.155-0.118-0.375,0.22-0.407-0.016c-0.07,0.103-0.344-0.008-0.259,0.204c-0.502-0.086-1.094,0.353-1.466,0.008
						c-0.055,0.055-0.229,0.055-0.169,0.156c0.138,0.11,0.138-0.117,0.191-0.04l-0.054,0.111c-0.158-0.024-0.271-0.009-0.174-0.228
						c-0.345-0.07-0.251,0.447-0.674,0.447l-0.149-0.087l-0.196,0.213c-0.266,0.015-0.188-0.189-0.227-0.346l-0.345,0.22
						l-0.205-0.165c0.15,0.117-0.093,0.126-0.157,0.173l0.064-0.047l-0.271,0.047l0.302,0.108l-0.255,0.196
						c0.004-0.164-0.247-0.062-0.356-0.062L51.19,71.65c-0.017-0.078-0.205,0.031-0.126-0.102l0.173-0.031
						c-0.095-0.039-0.105-0.18-0.263-0.039c-0.121,0.101,0.082,0.298-0.185,0.251l0.103-0.189l-0.244-0.022l0.013,0.142
						l-0.035-0.063l-0.377,0.298l-0.376-0.039l0.023-0.016l-0.427,0.157v-0.032l-0.333,0.165c-0.204-0.078-0.129-0.525-0.321-0.337
						c-0.197,0.015-0.274,0.274-0.188,0.36c-0.361-0.078-0.745,0.164-1.095-0.047l-0.113,0.141c-0.526-0.039-1.09,0.204-1.521-0.062
						c0.149-0.062,0.003-0.149,0-0.229c-0.118,0.134-0.157-0.126-0.197,0.103l0.161,0.234c-0.31,0.079-0.784,0.094-0.96-0.015
						l-0.039,0.133c0.016-0.204-0.212-0.227-0.384-0.148l-0.023,0.124l-0.118-0.124c-0.062,0.046-0.07,0.274-0.243,0.156
						l-0.05-0.134c-0.177,0.102-0.436,0.291-0.628,0.188l-0.161-0.172c-0.079,0.022-0.223,0.133-0.079,0.188
						c-0.329-0.103-0.541-0.109-0.643-0.267c-0.584,0.44-1.427,0.447-2.086,0.275l0.028-0.087c-0.169-0.118-0.11,0.142-0.228,0.062
						c0.066-0.078-0.117-0.211,0.031-0.306c-0.247-0.133-0.341,0.117-0.514,0.141c-0.039,0.118,0.142-0.062,0.095,0.087
						c-0.032,0.039-0.346-0.141-0.408,0.039l0.055-0.282l-0.165,0.07c-0.165-0.251,0.475-0.329,0.306-0.627l-0.146,0.008
						c-0.109-0.212,0.396-0.164,0.051-0.283c-0.16,0.071-0.326,0.322-0.195,0.425c-0.33,0-0.204,0.416-0.554,0.353
						c-0.082-0.126,0.282,0.016,0.235-0.142c-0.145-0.18-0.341,0.031-0.478-0.039c0.153,0.086-0.011,0.26-0.122,0.275
						c-0.165-0.11,0.141-0.157-0.11-0.212c-0.055,0.102-0.298,0.148-0.11,0.251c-0.129,0.227-0.254-0.109-0.423,0.062
						c-0.055-0.18,0.321-0.36,0.062-0.486c0.016,0.174-0.38,0.181-0.274,0.439l0.008-0.274c-0.142-0.126-0.431,0.244-0.424-0.094
						l-0.086,0.157l-0.164-0.205c-0.134-0.023-0.486,0.157-0.424-0.093c-0.046,0.022-0.353-0.032-0.27,0.156
						c0.176,0.133,0.246-0.093,0.309,0.157c-0.102-0.212-0.287-0.016-0.412,0.031l0.004-0.102l-0.291,0.086v-0.149l-0.102,0.134
						c-0.29,0.031-0.008-0.268-0.282-0.259l0.227-0.087l-0.243-0.109l-0.283,0.376c-0.156,0.024-0.027-0.171-0.204-0.078
						l0.228-0.102c0.035-0.032-0.071-0.259-0.267-0.313c-0.133,0-0.376,0.133-0.196,0.267c-0.102-0.024-0.216-0.149-0.113-0.228
						c-0.231-0.017-0.008,0.157-0.22,0.181l-0.373-0.495l0.259-0.156l-0.125-0.048c0.215-0.124-0.048-0.164,0.098-0.321
						l-0.302-0.007c0.172,0.384-0.409,0.312-0.416,0.611c-0.384-0.039-0.02-0.737-0.525-0.424c0.039,0.078-0.204,0.235,0.047,0.228
						c-0.211-0.103-0.239,0.229-0.471,0.023c0.235-0.047-0.117-0.337,0.22-0.408l0.184,0.111c-0.059-0.142,0.106-0.268-0.118-0.347
						c-0.145-0.023-0.333-0.07-0.357,0.079c-0.047,0.149,0.22,0.047,0.074,0.172c-0.293-0.03-0.258-0.282-0.467-0.046
						c0.181,0.039,0.173,0.204,0.13,0.312h-0.228l0.075-0.087c-0.302-0.187-0.166,0.15-0.471,0.017l-0.078-0.251
						c0.141-0.149,0.439,0.234,0.479-0.07l-0.486-0.095l0.165-0.007c-0.07-0.032,0-0.432-0.376-0.306
						c-0.18,0.03-0.079,0.085-0.122,0.188l-0.702-0.055c0.125-0.188-0.369-0.157-0.047-0.274c0.055,0.148,0.541,0.298,0.729,0.142
						c-0.023-0.282,0.248,0.117,0.408-0.103c-0.259-0.093-0.15-0.321-0.13-0.495l-0.215,0.017l-0.046,0.322
						c-0.274-0.149-0.596-0.134-0.808-0.071c-0.063-0.117,0.032-0.251,0.145-0.204l-0.968-0.525c0.086,0.339-0.373-0.117-0.33,0.142
						c0.141,0.141,0.204,0.377,0.063,0.432l0.031-0.166c-0.197,0.055-0.11-0.312-0.337-0.188c0.337,0.087,0.195-0.251,0.341-0.399
						c-0.263-0.008,0.074-0.118-0.138-0.228l-0.823-0.148c-0.204-0.322-0.75-0.386-1.02-0.518c-0.086-0.165,0.122-0.299,0-0.424
						c-0.164-0.102-0.008,0.289-0.196,0.039l0.047-0.023c-0.102-0.008-0.353-0.433-0.604-0.212l0.212-0.157l-0.157-0.04l0.133-0.147
						c-0.051-0.252-0.322-0.197-0.486-0.307l0.016,0.196l-0.737-0.496l0.094-0.102l-0.212-0.048c0.126-0.078,0.04-0.25-0.105-0.231
						l0.615,0.023c0.055,0.142-0.227,0.051-0.247,0.208c-0.016,0.146,0.255,0.276,0.373,0.198l-0.208-0.064
						c0.09-0.176,0.223-0.074,0.373-0.134l-0.133-0.078l0.416,0.149c-0.15-0.012-0.012,0.136-0.087,0.159
						c0.118-0.136,0.299-0.071,0.463,0.103c0.024,0.258,0.431,0.14,0.623,0.345l-0.556,0.086l0.255,0.281l0.533-0.147l-0.054,0.108
						c0.212,0.039,0.313-0.126,0.525,0.023l1.062,0.637l-0.051,0.117c0.298-0.157,0.611,0.195,0.886,0.195
						c0.337,0.306,0.87,0.345,1.008,0.589l2.16,0.549l-0.188,0.133c0.18-0.086,0.055,0.133,0.196,0.148
						c-0.101-0.196,0.247-0.125,0.373-0.202c0.291,0.25,0.765,0.234,1.094,0.195l-0.023,0.133c0.368-0.156,0.65,0.228,1.035,0.306
						l0.197,0.189l0.697-0.229l0.792,0.244c0.894-0.174,1.725,0.141,2.62,0.093l0.047,0.157c0.874-0.149,1.897,0.213,2.646-0.047
						l-0.079,0.267c0.231,0.07,0.529-0.086,0.474-0.267c0.228,0.063,0.573-0.148,0.722,0.063l0.479-0.18l1.09-0.01l-0.109-0.015
						l0.063,0.18c0.164-0.078,0.619,0.055,0.435-0.251c0.486,0.164,1.094-0.188,1.572,0.039l0.11-0.156
						c0.416-0.024,0.871,0.133,1.185-0.024c0.07,0.04-0.087,0.15,0.086,0.157l0.102-0.181c0.643-0.297,1.364-0.125,1.96-0.289
						c1.044-0.394,2.172-0.541,3.191-0.785l0.009,0.063c0.286-0.306,0.863,0.07,1.051-0.338c0.095,0.039,0.313-0.039,0.282,0.087
						c0.234-0.22,0.808,0,1.152-0.29l-0.094,0.046l1.196-0.171l-0.103,0.132c0.2,0.095,0.299-0.384,0.475-0.116l-0.031-0.142
						c0.922-0.229,1.811-0.776,2.71-1.193c0.718-0.077,0.207,0.472,0.654,0.056l0.019-0.062c0.178-0.165,0.429,0.195,0.515-0.009
						c-0.118-0.156,0.062-0.133,0.027-0.235c0.446-0.047,0.584,0.079,0.858-0.173l0.009,0.102c0.278-0.405,0.768-0.433,0.964-0.848
						c2.055-0.922,3.983-1.549,5.653-2.851c1.851-0.973,3.412-2.26,5.059-3.573c0.55-0.125,0.577-0.16,0.922-0.583l0.047,0.078
						c-0.125-0.173,0.278-0.263,0.177-0.439l1.514-1.722c-0.062,0.107,0.023,0.271,0.108,0.146l0.009-0.205l0.06,0.024l-0.084-0.216
						c1.248-1.55,2.629-3.004,3.585-4.722c0.302-0.365,0.548-0.992,0.748-1.459c0.875-1.211,1.651-2.466,1.823-3.917
						C83.379,46.582,83.899,46.872,83.812,47.538z"/>
					<path fill="#24241F" d="M25.487,65.618c-0.03,0.114,0.067,0.279-0.132,0.289L25.487,65.618z"/>
					<polygon fill="#24241F" points="29.032,69.109 29.083,69.204 28.911,69.156 					"/>
					<path fill="#24241F" d="M30.15,69.745l-0.486-0.039L30.15,69.745z"/>
					<path fill="#24241F" d="M31.114,70.529l-0.102,0.094L31.114,70.529z"/>
					<path fill="#24241F" d="M31.279,70.356l0.148,0.164C31.452,70.442,31.189,70.49,31.279,70.356z"/>
					<path fill="#24241F" d="M33.671,71.423l0.24,0.095C33.867,71.431,33.585,71.54,33.671,71.423z"/>
					<polygon fill="#24241F" points="34.863,71.666 34.957,71.69 34.871,71.792 					"/>
					<polygon fill="#24241F" points="56.35,70.474 56.24,70.545 56.232,70.452 					"/>
					<path fill="#24241F" d="M65.235,67.385c0.094-0.103,0.116,0.055,0.141,0.055L65.235,67.385z"/>
					<polygon fill="#24241F" points="69.666,64.9 69.635,64.92 69.548,64.752 					"/>
				</g>
			</g>
			<g>
				<g>
					<path fill="#24241F" d="M32.299,39.214c-0.2,0,0.054,0.18-0.141,0.046L32.299,39.214z"/>
					<path fill="#24241F" d="M68.788,19.174c0.729,0.083,1.188,0.827,1.693,1.274c0.058,0.059-0.227,0.146-0.078,0.259
						c0.674,0.333,1.129,1.4,0.792,2.258l-0.078-0.035c-0.036,0.148,0.242,0.29,0.227,0.455h-0.141l0.234,0.329l-0.223,0.141
						l0.188,0.086c0.511,0.267-0.082,0.604,0.067,0.961l-0.102-0.039c0.085,0.581-0.017,1.321-0.221,1.937l-0.215-0.118
						c0.153,0.11,0.108,0.31,0.069,0.478c-0.203-0.003,0.039,0.33-0.152,0.491l-0.024-0.043c0.068,0.228-0.241,0.118-0.116,0.33
						h-0.192c0.185,0.188-0.259,0.094-0.223,0.259l0.047,0.023l-0.204,0.205l-0.032-0.005c-0.105,0.229-0.321,0.263-0.148,0.369
						c-0.196-0.023,0.098-0.228-0.196-0.255c-0.356,0.745-0.953,1.38-1.49,2.019l-0.259,0.012l-0.141,0.392l-0.149-0.003
						c-0.155,0.059,0.055,0.282-0.117,0.345l-0.102-0.188l-0.188,0.514l-0.048-0.134c0.008,0.271-0.242,0.224-0.266,0.436
						l-0.044-0.137c-0.263,0.09,0.123,0.243-0.082,0.344l-0.062-0.129c0.02,0.33-0.259,0.53-0.405,0.683l-0.026-0.048l-0.557,0.447
						c-0.103,0.012-0.153-0.247-0.321-0.074c0.149,0.18-0.279,0.306,0,0.443c-0.192,0.086-0.518,0.2-0.581,0.341
						c0.024-0.125-0.255-0.18-0.125-0.298l-0.192-0.043c-0.043-0.086,0.13-0.047,0.021-0.122l-0.3,0.282
						c-0.038,0.208-0.006,0.518-0.202,0.686l-0.158-0.263l-0.042,0.581c-0.066,0.058-0.121-0.146-0.184-0.024l0.011,0.176
						c-0.043-0.004-0.267,0.251-0.419,0.075c-0.087-0.055,0.087-0.118-0.039-0.134l-0.221,0.255l-0.02-0.027
						c-0.105,0.027-0.199,0.259-0.039,0.306c0.066-0.035-0.097-0.103,0.027-0.11l-0.25,0.389l-0.032-0.181l-0.399,0.659
						c0.055,0.098-0.028-0.227,0.031-0.192c-0.338,0.02-0.407,0.569-0.754,0.47l0.079,0.102l-0.271-0.003
						c-0.051-0.083-0.099,0.071-0.172,0.141l0.027-0.075c-0.087,0.125-0.526,0.482-0.883,0.49l-0.146,0.314l-0.038-0.149
						l-0.291,0.004c-0.062,0.223,0.486-0.381,0.354-0.169c-0.102-0.09-0.164,0.33-0.212,0.129c-0.134,0.063-0.188,0.275-0.376,0.204
						c0.047,0.008,0.02-0.231-0.087-0.176c-0.181,0.109-0.023,0.093-0.157,0.208l-0.07,0.094c0.056,0.133-0.181,0.059-0.043,0.173
						c-0.074-0.099-0.247,0.192-0.325-0.036l-0.055-0.18l-0.083,0.341l-0.065-0.063c0.101,0.267-0.205,0.067-0.216,0.314
						c-0.216-0.012-0.447,0.185-0.598,0.063l-0.36,0.294l0.044-0.126l-0.192,0.129c0.004-0.05-0.255-0.07-0.396-0.117l0.02,0.357
						c-0.223-0.216-0.31,0.337-0.553,0.161c0.031-0.059,0.142-0.216,0.009-0.235c-0.216-0.208-0.173,0.309-0.417,0.271l0.135,0.196
						c-0.126-0.114-0.37,0.313-0.354,0.051c-0.032,0.132-0.268,0.022-0.177,0.234c-0.415-0.078-0.732,0.326-1.062-0.015
						l-0.113,0.145c0.113,0.102,0.086-0.114,0.141-0.039l-0.027,0.114c-0.122-0.023-0.212-0.015-0.165-0.228
						c-0.274-0.074-0.133,0.44-0.454,0.428l-0.129-0.086l-0.122,0.2c-0.204,0.012-0.169-0.18-0.216-0.337l-0.24,0.208l-0.175-0.161
						c0.129,0.113-0.06,0.113-0.099,0.164l0.039-0.051l-0.2,0.047l0.247,0.105l-0.173,0.188c-0.016-0.161-0.195-0.066-0.281-0.062
						l-0.103,0.164l-0.109-0.102l0.129-0.027c-0.078-0.04-0.105-0.184-0.208-0.047c-0.078,0.098,0.103,0.298-0.11,0.247L52.39,39.9
						l-0.188-0.043l0.022,0.145l-0.031-0.063l-0.251,0.29l-0.294-0.047l0.013-0.016l-0.306,0.146v-0.031l-0.235,0.157
						c-0.166-0.067-0.17-0.518-0.283-0.298c-0.141,0.039-0.164,0.309-0.086,0.392c-0.279-0.035-0.521,0.271-0.804,0.113L49.88,40.79
						c-0.376,0.062-0.776,0.298-1.129,0.075c0.098-0.075-0.02-0.141-0.039-0.22c-0.066,0.142-0.133-0.113-0.125,0.106l0.149,0.224
						c-0.216,0.102-0.564,0.145-0.714,0.043l-0.016,0.145c-0.015-0.208-0.188-0.212-0.305-0.125v0.129l-0.102-0.117
						c-0.047,0.042-0.016,0.266-0.165,0.165l-0.056-0.125c-0.118,0.118-0.282,0.317-0.439,0.231l-0.141-0.168
						c-0.063,0.028-0.153,0.153-0.035,0.192l-0.522-0.215c-0.373,0.439-0.996,0.541-1.49,0.573l0.003-0.095
						c-0.137-0.071-0.054,0.177-0.153,0.126l-0.023-0.31c-0.196-0.071-0.228,0.196-0.353,0.259
						c-0.008,0.125,0.094-0.095,0.086,0.066c-0.02,0.047-0.274-0.062-0.29,0.126l-0.004-0.287l-0.11,0.106
						c-0.153-0.2,0.294-0.436,0.129-0.682l-0.106,0.042c-0.114-0.18,0.263-0.254-0.004-0.29c-0.11,0.11-0.188,0.392-0.083,0.463
						c-0.235,0.082-0.082,0.455-0.349,0.443c-0.079-0.11,0.212-0.023,0.149-0.176c-0.129-0.153-0.243,0.078-0.353,0.027
						c0.125,0.066,0.032,0.255-0.047,0.29c-0.137-0.09,0.079-0.176-0.11-0.2c-0.027,0.11-0.2,0.188-0.046,0.267
						c-0.056,0.247-0.2-0.071-0.299,0.113c-0.066-0.168,0.18-0.392-0.031-0.482c0.04,0.165-0.251,0.224-0.129,0.474l-0.039-0.286
						c-0.122-0.102-0.278,0.302-0.326-0.027l-0.035,0.168l-0.153-0.191c-0.102-0.004-0.329,0.227-0.322-0.028
						c-0.035,0.023-0.27,0.012-0.18,0.188c0.149,0.114,0.169-0.125,0.255,0.114c-0.106-0.2-0.216,0.02-0.298,0.082l-0.015-0.094
						l-0.2,0.118l-0.02-0.148l-0.055,0.156c-0.208,0.066-0.047-0.271-0.247-0.228l0.152-0.113l-0.196-0.075l-0.145,0.408
						c-0.118,0.059-0.047-0.157-0.165-0.016l0.149-0.164l-0.244-0.228c-0.094,0.043-0.25,0.243-0.102,0.318l-0.113-0.18
						c-0.177,0.042,0.02,0.145-0.133,0.231l-0.349-0.365l0.165-0.228l-0.102-0.004c0.137-0.184-0.063-0.145,0.019-0.337
						l-0.224,0.086c0.189,0.314-0.243,0.419-0.204,0.709c-0.282,0.071-0.133-0.698-0.451-0.254c0.043,0.074-0.109,0.29,0.075,0.211
						c-0.172-0.035-0.141,0.279-0.337,0.157c0.157-0.114-0.145-0.29,0.086-0.455l0.153,0.047c-0.062-0.11,0.035-0.286-0.145-0.286
						l-0.243,0.176c-0.008,0.161,0.165-0.015,0.087,0.149c-0.224,0.051-0.239-0.2-0.354,0.09l0.149,0.255l-0.165,0.07L38.4,41.9
						c-0.251-0.079-0.094,0.196-0.337,0.161l-0.102-0.215c0.079-0.185,0.353,0.09,0.338-0.212l-0.369,0.059l0.118-0.059
						c-0.06-0.016-0.079-0.392-0.326-0.192l-0.055,0.208l-0.513,0.071c0.059-0.212-0.29-0.079-0.079-0.267
						c0.063,0.145,0.439,0.204,0.55,0.016c-0.063-0.286,0.192,0.086,0.273-0.192c-0.204-0.02-0.164-0.291-0.18-0.456l-0.149,0.055
						l0.016,0.325c-0.22-0.086-0.443-0.039-0.588,0.086l0.071-0.239l-0.801-0.185c0.126,0.286-0.293,0-0.215,0.239
						c0.13,0.079,0.215,0.287,0.122,0.389l-0.004-0.177c-0.133,0.118-0.137-0.255-0.278-0.059c0.259-0.031,0.098-0.302,0.176-0.486
						c-0.192,0.07,0.028-0.145-0.145-0.176l-0.62,0.125c-0.212-0.239-0.62-0.125-0.839-0.168l-0.086-0.393
						c-0.142-0.019,0.055,0.263-0.133,0.122l0.031-0.04c-0.078,0.032-0.356-0.235-0.498,0.071l0.125-0.228l-0.125,0.043l0.066-0.2
						c-0.094-0.192-0.282-0.027-0.423-0.05l0.055,0.157l-0.651-0.106l0.043-0.137l-0.161,0.059c0.071-0.134-0.035-0.239-0.141-0.146
						l0.455-0.266c0.078,0.102-0.153,0.148-0.125,0.297c0.02,0.122,0.251,0.134,0.322,0.004l-0.173,0.035l0.243-0.278l-0.118-0.012
						l0.345-0.051l-0.031,0.177c0.055-0.165,0.204-0.196,0.368-0.11c0.079,0.223,0.357-0.062,0.542,0.035l-0.397,0.317l0.255,0.137
						l0.361-0.353l-0.02,0.129c0.161-0.031,0.204-0.227,0.388-0.153l0.894,0.263l-0.016,0.129c0.188-0.243,0.482-0.003,0.69-0.09
						c0.298,0.189,0.698,0.012,0.835,0.267l1.667-0.027l-0.117,0.188c0.117-0.138,0.062,0.113,0.172,0.085
						c-0.11-0.156,0.157-0.196,0.235-0.309c0.255,0.148,0.604-0.004,0.839-0.138l0.004,0.133c0.243-0.239,0.514-0.023,0.808,0.024
						l0.176,0.165l0.471-0.322l0.619,0.145c0.632-0.31,1.294-0.023,1.938-0.341l0.059,0.145c0.608-0.416,1.423-0.22,1.948-0.459
						l-0.023,0.267c0.184,0.055,0.385-0.125,0.313-0.301c0.184,0.058,0.408-0.181,0.549,0.015l0.337-0.204l0.812-0.078l-0.082-0.008
						l0.07,0.176c0.114-0.082,0.47,0.012,0.29-0.282c0.385,0.138,0.792-0.239,1.173-0.109l0.059-0.177
						c0.302-0.082,0.658,0.008,0.866-0.195l0.082,0.141l0.055-0.184c0.456-0.278,1.036-0.09,1.471-0.243
						c0.753-0.365,1.6-0.49,2.357-0.71l0.007,0.062c0.303-0.325,0.691,0.063,0.832-0.353c0.043,0.056,0.22-0.086,0.204,0.063
						c-0.048-0.215,0.532-0.083,0.693-0.4l-0.059,0.062l0.839-0.291L57,36.865c0.158,0.062,0.165-0.364,0.346-0.113l-0.047-0.133
						c0.683-0.177,1.294-0.663,1.929-1.016c0.553-0.051,0.251,0.443,0.526,0.074l0.008-0.062c0.105-0.137,0.38,0.204,0.408,0.016
						c-0.126-0.146,0.023-0.122-0.028-0.228c0.35-0.02,0.486,0.106,0.655-0.121l0.027,0.09c0.153-0.341,0.514-0.4,0.553-0.827
						l3.74-2.878c1.239-0.839,1.895-2.239,3.074-3.219c0.439-0.118,0.455-0.153,0.628-0.505l0.065,0.062
						c-0.16-0.129,0.17-0.224,0.021-0.357c0.442-0.451,0.682-0.737,0.902-1.356c-0.02,0.098,0.116,0.219,0.148,0.102l-0.071-0.165
						l0.062,0.008L69.8,26.071c0.259-1.181,0.787-2.333,0.423-3.553c0.079-0.318-0.354-0.612-0.518-0.867
						c-0.118-1.02-0.878-1.772-1.769-2.329C67.937,19.323,68.341,18.958,68.788,19.174z"/>
					<path fill="#24241F" d="M32.534,39.237c0.008,0.11,0.125,0.196-0.02,0.31L32.534,39.237z"/>
					<polygon fill="#24241F" points="35.878,41.014 35.93,41.088 35.804,41.104 					"/>
					<path fill="#24241F" d="M36.8,41.265l-0.353,0.114L36.8,41.265z"/>
					<path fill="#24241F" d="M37.635,41.821l-0.059,0.114L37.635,41.821z"/>
					<path fill="#24241F" d="M37.717,41.622l0.138,0.122C37.858,41.668,37.678,41.782,37.717,41.622z"/>
					<path fill="#24241F" d="M39.639,41.939l0.188,0.02C39.784,41.884,39.592,42.077,39.639,41.939z"/>
					<polygon fill="#24241F" points="40.548,41.81 40.619,41.81 40.572,41.927 					"/>
					<polygon fill="#24241F" points="56.412,38.806 56.343,38.893 56.322,38.802 					"/>
					<path fill="#24241F" d="M62.808,35.736c0.052-0.106,0.099,0.04,0.123,0.04L62.808,35.736z"/>
					<polygon fill="#24241F" points="65.698,33.2 65.674,33.219 65.564,33.062 					"/>
				</g>
			</g>
			<g>
				<g>
					<path fill="#24241F" d="M41.208,15.12c0.18-0.114-0.165-0.114,0.102-0.114L41.208,15.12z"/>
					<path fill="#24241F" d="M40.976,15.229c-0.083-0.083-0.24-0.075-0.184-0.251L40.976,15.229z"/>
					<polygon fill="#24241F" points="36.839,16.155 36.741,16.15 36.839,16.038 					"/>
					<path fill="#24241F" d="M35.906,16.734l0.196-0.396L35.906,16.734z"/>
					<path fill="#24241F" d="M34.852,17.146c-0.125,0.004-0.138-0.047-0.04-0.125L34.852,17.146z"/>
					<path fill="#24241F" d="M34.941,17.351l-0.204,0.039C34.792,17.444,34.855,17.217,34.941,17.351z"/>
					<path fill="#24241F" d="M33.217,19.115l-0.153,0.204C33.161,19.295,33.118,19.009,33.217,19.115z"/>
					<polygon fill="#24241F" points="32.942,20.323 32.926,20.428 32.824,20.334 					"/>
					<polygon fill="#24241F" points="47.991,27.447 47.896,27.522 47.889,27.423 					"/>
					<path fill="#24241F" d="M55.308,24.083c0.055-0.105,0.121,0.024,0.145,0.024L55.308,24.083z"/>
					<polygon fill="#24241F" points="57.26,20.107 57.26,20.139 57.071,20.091 					"/>
				</g>
			</g>
			<g>
				<g>
					<path fill="#24241F" d="M56.193,77.054c-0.204,0.204,0.219,0.047-0.109,0.173L56.193,77.054z"/>
					<path fill="#24241F" d="M36.886,16.445c0.823-0.769,2.118-0.376,3.153-0.557c0.125-0.016-0.055,0.267,0.223,0.211
						c1.031-0.325,2.616,0.318,3.583,1.063l-0.094,0.039l0.749,0.166l-0.078,0.121c0.117-0.113,0.431,0.118,0.572,0.063l0.083,0.306
						l0.208-0.098c0.565-0.228,0.8,0.502,1.365,0.6l-0.09,0.071c0.859,0.248,1.76,0.859,2.537,1.435l-0.166,0.177
						c0.149-0.11,0.416,0.047,0.635,0.18c-0.031,0.219,0.456,0.149,0.628,0.423l-0.047,0.016c0.306-0.004,0.188,0.291,0.479,0.239
						l0.004,0.212c0.246-0.134,0.141,0.321,0.364,0.356l0.03-0.047l0.292,0.322l-0.009,0.032c0.321,0.219,0.376,0.475,0.515,0.321
						c-0.021,0.215-0.318-0.208-0.335,0.118c1.067,0.694,1.883,1.706,2.719,2.65l0.034,0.317l0.494,0.349v0.192
						c0.083,0.228,0.329,0.051,0.416,0.31l-0.22,0.043l0.611,0.479l-0.148,0.008c0.313,0.102,0.278,0.419,0.517,0.537h-0.148
						c0.125,0.4,0.267-0.055,0.408,0.263l-0.148,0.027c0.36,0.122,0.635,0.561,0.866,0.777l-0.052,0.016l0.663,0.858
						c0.035,0.141-0.264,0.125-0.02,0.4c0.188-0.149,0.432,0.447,0.533,0.118c0.146,0.278,0.353,0.733,0.533,0.858
						c-0.153-0.063-0.156,0.287-0.322,0.086l-0.007,0.239c-0.099,0.027-0.087-0.185-0.153-0.062l0.388,0.482
						c0.251,0.121,0.597,0.161,0.832,0.474c-0.178-0.11-0.173,0.228-0.271,0.141l0.678,0.215c0.079,0.103-0.148,0.125,0.009,0.251
						l0.195,0.027c0.005,0.051,0.338,0.419,0.165,0.592c-0.048,0.098-0.153-0.153-0.149,0.012l0.329,0.368l-0.022,0.023
						c0.046,0.153,0.313,0.354,0.34,0.137c-0.047-0.102-0.098,0.106-0.12-0.07c0.172,0.031,0.345,0.251,0.462,0.455l-0.197-0.003
						l0.785,0.729c0.102-0.051-0.242-0.02-0.22-0.09c0.095,0.475,0.663,0.721,0.651,1.165l0.103-0.09l0.059,0.372
						c-0.079,0.06,0.109,0.15,0.202,0.271c0.1,0.032-0.021,0.051-0.09-0.059c0.166,0.148,0.676,0.82,0.77,1.31
						c0.054-0.035,0.341,0.157,0.385,0.263l-0.149,0.027c-0.035,0.129,0.181,0.326,0.07,0.396c0.274,0.133-0.549-0.745-0.273-0.518
						c-0.075,0.125,0.407,0.291,0.199,0.321c0.105,0.192,0.337,0.318,0.302,0.569c0-0.063-0.258-0.075-0.173,0.083
						c0.157,0.274,0.103,0.051,0.251,0.262l0.121,0.122c0.139-0.051,0.1,0.266,0.197,0.09c-0.09,0.085,0.258,0.392,0.027,0.455
						L63.729,39.5l0.393,0.188l-0.059,0.074c0.271-0.09,0.113,0.306,0.387,0.369c0.021,0.302,0.264,0.682,0.15,0.878l0.367,0.576
						l-0.142-0.09l0.165,0.31c-0.055-0.02-0.042,0.354-0.074,0.549c0.153,0.176,0.271,0.051,0.372,0.043
						c-0.208,0.285,0.365,0.544,0.197,0.866c-0.055-0.059-0.228-0.267-0.239-0.067c-0.208,0.274,0.325,0.326,0.294,0.678l0.2-0.145
						c-0.09,0.177,0.271,0.428,0.027,0.455c0.098,0.085-0.012,0.399,0.204,0.302c-0.095,0.577,0.344,1.254,0,1.667
						c0.051,0.062,0.047,0.262,0.153,0.196c0.104-0.149-0.122-0.153-0.044-0.216l0.113,0.067c-0.019,0.173-0.012,0.302-0.23,0.188
						c-0.07,0.393,0.45,0.294,0.446,0.772l-0.086,0.173l0.204,0.228c0.016,0.306-0.184,0.208-0.337,0.243l0.211,0.4l-0.165,0.227
						c0.118-0.165,0.118,0.114,0.168,0.181l-0.05-0.066l0.047,0.306l0.11-0.342l0.195,0.294c-0.164-0.007-0.066,0.283-0.062,0.408
						l0.173,0.184c-0.079,0.02,0.031,0.24-0.103,0.146l-0.031-0.197c-0.039,0.102-0.185,0.114-0.046,0.298
						c0.105,0.137,0.301-0.083,0.253,0.215l-0.184-0.125l-0.03,0.278L66.819,50l-0.062,0.039l0.298,0.439l-0.039,0.427l-0.021-0.027
						l0.152,0.486h-0.029l0.164,0.389c-0.071,0.223-0.525,0.117-0.306,0.34c0.055,0.217,0.312,0.326,0.399,0.229
						c-0.103,0.412,0.118,0.854-0.11,1.234l0.126,0.137c-0.07,0.593,0.145,1.252-0.149,1.723c-0.055-0.169-0.14-0.013-0.224-0.013
						c0.123,0.145-0.137,0.165,0.084,0.224c0.129-0.012,0.191,0,0.25-0.163c0.062,0.354,0.048,0.896-0.079,1.085
						c0.063-0.098,0.103-0.016,0.142,0.063c-0.212-0.035-0.246,0.223-0.181,0.419l0.126,0.035l-0.129,0.126
						c0.034,0.074,0.263,0.097,0.137,0.282l-0.137,0.05c0.098,0.213,0.266,0.515,0.153,0.729l-0.186,0.161
						c0.016,0.099,0.122,0.267,0.18,0.106c-0.12,0.372-0.137,0.611-0.3,0.714c0.297,0.682,0.062,1.626-0.123,2.363l-0.09-0.043
						c-0.129,0.181,0.142,0.142,0.044,0.268c-0.075-0.087-0.225,0.105-0.299-0.071c-0.16,0.264,0.074,0.399,0.074,0.6
						c0.117,0.055-0.039-0.172,0.102-0.098c0.04,0.039-0.18,0.368-0.011,0.463l-0.275-0.095l0.052,0.2
						c-0.263,0.152-0.271-0.572-0.588-0.416l-0.004,0.161c-0.225,0.105-0.122-0.462-0.278-0.086
						c0.054,0.188,0.282,0.403,0.399,0.274c-0.031,0.368,0.393,0.271,0.29,0.659c-0.134,0.078,0.047-0.318-0.117-0.282
						c-0.192,0.145-0.009,0.392-0.095,0.536c0.11-0.156,0.259,0.043,0.264,0.173c-0.13,0.177-0.142-0.176-0.225,0.098
						c0.095,0.079,0.11,0.357,0.236,0.158c0.211,0.172-0.135,0.273,0.012,0.48c-0.186,0.044-0.314-0.407-0.468-0.12
						c0.169,0,0.126,0.447,0.4,0.357c-0.073,0.104-0.203,0.085-0.278-0.036c-0.137,0.137,0.192,0.514-0.137,0.467l0.149,0.113
						l-0.275,0.148c-0.063,0.142,0.015,0.541-0.22,0.439c0.004,0.056-0.148,0.381,0.071,0.317c0.192-0.172-0.017-0.277,0.259-0.312
						c-0.251,0.077-0.11,0.306-0.103,0.45l-0.098-0.021l-0.008,0.328l-0.152-0.022l0.109,0.124
						c-0.055,0.314-0.275-0.031-0.361,0.268l-0.016-0.26l-0.18,0.244l0.29,0.36c-0.017,0.181-0.173,0.008-0.113,0.22l-0.063-0.268
						c-0.026-0.046-0.271,0.039-0.357,0.252c-0.016,0.156,0.07,0.447,0.235,0.267c-0.046,0.103-0.188,0.22-0.243,0.094
						c-0.063,0.259,0.149,0.031,0.134,0.274l-0.541,0.353l-0.119-0.313l-0.061,0.134c-0.087-0.259-0.165,0.039-0.3-0.149
						l-0.055,0.337c0.405-0.148,0.244,0.502,0.53,0.558c-0.106,0.431-0.722-0.087-0.51,0.532c0.098-0.03,0.199,0.267,0.239-0.023
						c-0.134,0.229,0.18,0.306-0.055,0.534c0-0.259-0.369,0.078-0.369-0.298c0.077,0.063,0.141-0.142,0.138-0.197
						c-0.138,0.048-0.244-0.156-0.35,0.087c-0.047,0.156-0.18,0.337-0.031,0.393c0.146,0.07,0.126-0.219,0.212-0.056
						c-0.137,0.313-0.381,0.229-0.204,0.486c0.094-0.181,0.268-0.142,0.36-0.087l-0.074,0.244l-0.066-0.095
						c-0.283,0.282,0.103,0.195-0.133,0.502l-0.282,0.032c-0.103-0.173,0.376-0.416,0.082-0.51l-0.256,0.493l0.048-0.172
						c-0.062,0.062-0.447-0.071-0.438,0.336c-0.024,0.196,0.062,0.096,0.156,0.166l-0.291,0.729c-0.147-0.165-0.266,0.36-0.293,0
						c0.176-0.032,0.482-0.519,0.388-0.745c-0.297-0.024,0.196-0.235,0.024-0.447c-0.182,0.258-0.385,0.103-0.558,0.055
						l-0.047,0.228l0.314,0.11c-0.229,0.267-0.347,0.588-0.322,0.838c-0.13,0.056-0.234-0.07-0.177-0.194l-0.71,1.019
						c0.346-0.047-0.191,0.408,0.07,0.392c0.165-0.141,0.412-0.181,0.44-0.016c-0.087,0.103-0.087-0.07-0.165-0.055
						c0.015,0.219-0.314,0.087-0.259,0.337c0.184-0.337-0.197-0.25-0.306-0.424c-0.094,0.276-0.106-0.094-0.283,0.103l-0.415,0.823
						c-0.396,0.157-0.644,0.705-0.862,0.965c-0.192,0.062-0.274-0.181-0.432-0.07c-0.146,0.172,0.286,0.055-0.008,0.22l-0.012-0.055
						c-0.031,0.118-0.506,0.345-0.364,0.634l-0.094-0.25l-0.087,0.157l-0.125-0.165c-0.267,0.008-0.299,0.298-0.459,0.447
						l0.208,0.016c-0.212,0.336-0.498,0.399-0.742,0.682l-0.082-0.117l-0.109,0.204c-0.048-0.141-0.251-0.079-0.267,0.086
						l0.203-0.645c0.165-0.039-0.02,0.244,0.142,0.292c0.142,0.039,0.373-0.212,0.321-0.353l-0.129,0.203
						c-0.161-0.126-0.012-0.242-0.027-0.407l-0.126,0.126l0.282-0.408c-0.055,0.156,0.146,0.039,0.142,0.116
						c-0.103-0.14,0.016-0.313,0.247-0.454c0.294,0.031,0.286-0.423,0.521-0.627l-0.048,0.635l0.346-0.25
						c-0.031-0.166-0.134-0.361-0.02-0.604l0.105,0.078c0.103-0.211-0.039-0.353,0.185-0.541l0.996-0.988l0.109,0.079
						c-0.058-0.33,0.389-0.604,0.432-0.934c0.373-0.337,0.482-0.957,0.808-1.034l1.235-2.174l0.102,0.229
						c-0.056-0.212,0.142-0.04,0.182-0.196c-0.208,0.086-0.087-0.298-0.147-0.455c0.295-0.29,0.357-0.831,0.373-1.2l0.126,0.04
						c-0.078-0.431,0.287-0.723,0.502-1.112l0.258-0.177l-0.015-0.772l0.486-0.807c-0.07-1.032,0.329-1.931,0.376-2.941l0.165-0.039
						c-0.142-1.008,0.528-2.094,0.393-2.94l0.262,0.113c0.087-0.251-0.058-0.604-0.246-0.552c0.086-0.257-0.111-0.659,0.109-0.808
						l-0.149-0.554c0.11-0.521,0.095-0.722,0.055-1.224l-0.015,0.121l0.184-0.059c-0.066-0.188,0.087-0.686-0.231-0.506
						c0.192-0.533-0.121-1.235,0.138-1.756l-0.156-0.139c-0.009-0.462,0.238-0.968-0.021-1.325c0.032-0.074,0.168,0.11,0.146-0.085
						l-0.186-0.126c-0.295-0.726-0.108-1.529-0.274-2.211c-0.376-1.188-0.519-2.458-0.753-3.619h0.066
						c-0.302-0.33,0.074-0.973-0.325-1.192c0.039-0.106-0.035-0.361,0.094-0.322c-0.254-0.247-0.109-0.871-0.451-1.227l0.067,0.098
						c0.004-0.479-0.325-0.788-0.389-1.282l0.161,0.102c0.039-0.215-0.416-0.313-0.172-0.521c-0.04-0.098-0.165-0.012-0.134,0.043
						c-0.255-1.039-0.957-1.988-1.467-2.968c-0.191-0.788,0.439-0.267-0.047-0.729l-0.07-0.015c-0.188-0.181,0.13-0.494-0.09-0.573
						c-0.135,0.145-0.146-0.051-0.248-0.008c-0.118-0.49-0.012-0.654-0.312-0.933l0.102-0.016c-0.447-0.279-0.589-0.804-1.051-0.98
						c-1.247-2.157-2.698-4.062-4.118-6.007c-1.329-1.984-2.916-3.678-4.426-5.552c-0.216-0.573-0.255-0.6-0.765-0.953l0.074-0.051
						c-0.169,0.129-0.326-0.29-0.506-0.188l-1.96-1.697c0.125,0.074,0.29-0.012,0.148-0.106l-0.219-0.012l0.016-0.063
						c-0.11-0.05-0.275-0.047-0.224,0.079c-1.839-1.267-3.525-2.717-5.572-3.36l-1.701-0.4c-1.53-0.497-3.078-0.592-4.627,0.04
						C36.165,17.268,36.197,16.712,36.886,16.445z"/>
					<path fill="#24241F" d="M56.456,76.843c0.113,0.046,0.31-0.031,0.267,0.18L56.456,76.843z"/>
					<polygon fill="#24241F" points="61.125,73.712 61.239,73.673 61.143,73.847 					"/>
					<path fill="#24241F" d="M62.005,72.567c0.062,0.071-0.048,0.377-0.142,0.534L62.005,72.567z"/>
					<path fill="#24241F" d="M63.078,71.659c0.134-0.056,0.152-0.009,0.062,0.124L63.078,71.659z"/>
					<path fill="#24241F" d="M62.954,71.462l0.215-0.124C63.099,71.29,63.062,71.579,62.954,71.462z"/>
					<path fill="#24241F" d="M64.64,69.031l0.142-0.259C64.687,68.804,64.741,69.142,64.64,69.031z"/>
					<polygon fill="#24241F" points="65.07,67.706 65.117,67.604 65.196,67.721 					"/>
					<polygon fill="#24241F" points="65.604,43.523 65.69,43.648 65.596,43.652 					"/>
					<path fill="#24241F" d="M61.125,33.819c-0.117-0.098,0.029-0.133,0.033-0.161L61.125,33.819z"/>
					<polygon fill="#24241F" points="57.664,29.231 57.691,29.274 57.525,29.368 					"/>
				</g>
			</g>
			<g>
				<g>
					<path fill="#24241F" d="M59.314,76.552c-0.321,0.165,0.234,0.086-0.196,0.149L59.314,76.552z"/>
					<path fill="#24241F" d="M32.652,19.158c1.027-0.768,2.669-0.749,3.881-1.329c0.149-0.047,0.016,0.267,0.346,0.152
						c1.191-0.525,3.231-0.717,4.783-0.478l-0.086,0.079l0.957-0.188l-0.023,0.145c0.071-0.156,0.557-0.086,0.69-0.208l0.274,0.239
						l0.173-0.176c0.494-0.417,1.208-0.016,1.89-0.216l-0.051,0.109c1.094-0.152,2.458,0.024,3.69,0.043l-0.055,0.235
						c0.086-0.161,0.471-0.212,0.8-0.161c0.113,0.215,0.58-0.051,0.941,0.133l-0.04,0.031c0.313-0.129,0.393,0.2,0.666,0.02
						l0.146,0.18c0.177-0.231,0.373,0.224,0.631,0.137l0.009-0.058l0.525,0.137l0.016,0.036c0.486,0.035,0.722,0.231,0.769,0.035
						c0.117,0.192-0.479-0.024-0.282,0.258c1.567,0.248,3.133,0.78,4.611,1.369l0.235,0.31l0.736,0.173l0.122,0.188
						c0.231,0.188,0.38-0.083,0.635,0.137l-0.2,0.129l0.949,0.224l-0.156,0.059c0.396-0.008,0.571,0.282,0.887,0.345l-0.157,0.051
						c0.36,0.372,0.241-0.149,0.572,0.141L61.4,21.515c0.447,0.011,0.972,0.396,1.356,0.532l-0.039,0.036l1.215,0.643
						c0.118,0.137-0.203,0.208,0.208,0.416c0.118-0.211,0.686,0.368,0.619-0.012c0.303,0.258,0.758,0.698,1.016,0.784
						c-0.195-0.027-0.016,0.346-0.289,0.176l0.113,0.263c-0.086,0.055-0.185-0.176-0.191-0.031c0.133,0.086,0.577,0.287,0.674,0.4
						c0.329,0.062,0.729-0.008,1.137,0.275c-0.23-0.083-0.062,0.29-0.203,0.219l0.808,0.09c0.125,0.098-0.095,0.173,0.125,0.274
						l0.22-0.011c0.031,0.062,0.557,0.404,0.463,0.627c-0.008,0.118-0.235-0.137-0.158,0.043l0.526,0.341l-0.016,0.024
						c0.126,0.161,0.518,0.313,0.438,0.074c-0.101-0.098-0.054,0.138-0.164-0.047c0.196-0.012,0.495,0.197,0.722,0.396l-0.212,0.032
						l1.138,0.694c0.086-0.075-0.26,0.023-0.267-0.067c0.297,0.522,1.004,0.71,1.184,1.216l0.062-0.114
						c0.189,0.215,0.063,0.314,0.235,0.404c-0.062,0.086,0.188,0.145,0.33,0.274c0.109,0.036-0.004,0.067-0.118-0.051
						c0.228,0.149,1.012,0.882,1.293,1.439c0.039-0.048,0.421,0.152,0.508,0.266l-0.153,0.047c0.015,0.153,0.309,0.357,0.228,0.455
						c0.328,0.118-0.855-0.804-0.486-0.576c-0.032,0.16,0.541,0.298,0.328,0.353c0.181,0.212,0.491,0.325,0.525,0.639
						c-0.023-0.083-0.297-0.07-0.156,0.114c0.243,0.317,0.117,0.051,0.346,0.294l0.165,0.13c0.124-0.067,0.184,0.313,0.231,0.098
						c-0.067,0.11,0.392,0.443,0.168,0.545l-0.188,0.058l0.471,0.193l-0.035,0.098c0.254-0.129,0.216,0.357,0.517,0.408
						c0.114,0.365,0.451,0.827,0.381,1.067l0.525,0.698l-0.165-0.11l0.244,0.373c-0.063-0.02,0.042,0.428,0.055,0.67
						c0.18,0.224,0.287,0.066,0.384,0.05c-0.165,0.357,0.471,0.679,0.354,1.075c-0.071-0.079-0.282-0.33-0.259-0.083
						c-0.17,0.341,0.388,0.4,0.415,0.835l0.185-0.172c-0.06,0.215,0.348,0.538,0.098,0.577c0.118,0.113,0.052,0.506,0.26,0.396
						c-0.021,0.742,0.556,1.624,0.161,2.106c0.049,0.086,0.042,0.329,0.151,0.263c0.106-0.177-0.118-0.205-0.039-0.278l0.113,0.093
						c-0.026,0.221-0.019,0.385-0.231,0.221c-0.086,0.482,0.444,0.412,0.432,1.015l-0.09,0.204l0.199,0.31
						c0.012,0.384-0.184,0.243-0.345,0.271l0.212,0.529l-0.172,0.263c0.124-0.192,0.117,0.161,0.172,0.251l-0.055-0.09l0.047,0.392
						l0.117-0.415l0.189,0.392c-0.166-0.035-0.07,0.341-0.07,0.502l0.171,0.254c-0.081,0.011,0.024,0.302-0.108,0.165l-0.023-0.251
						c-0.048,0.125-0.185,0.125-0.06,0.373c0.078,0.185,0.31-0.07,0.212,0.298l-0.161-0.176l-0.078,0.349l0.145,0.004l-0.066,0.043
						c0.149,0.094,0.048,0.521,0.22,0.588l-0.118,0.537l-0.008-0.028l0.071,0.635l-0.032-0.003l0.095,0.509
						c-0.105,0.275-0.541,0.079-0.36,0.393c0.007,0.278,0.266,0.451,0.36,0.341c-0.098,0.502,0.157,1.097-0.148,1.552l0.101,0.188
						c-0.147,0.733-0.023,1.6-0.375,2.152c-0.035-0.223-0.141-0.035-0.225-0.042c0.106,0.195-0.16,0.195,0.051,0.289
						c0.13,0,0.188,0.032,0.268-0.168c0.008,0.451-0.055,1.137-0.239,1.353c0.09-0.106,0.105-0.004,0.118,0.098
						c-0.197-0.074-0.31,0.24-0.303,0.494l0.118,0.062l-0.17,0.13c0.016,0.102,0.231,0.165,0.052,0.377l-0.148,0.039
						c0.035,0.274,0.109,0.679-0.063,0.921l-0.235,0.177c-0.012,0.122,0.044,0.349,0.15,0.152c-0.229,0.439-0.322,0.738-0.511,0.832
						c0.138,0.909-0.354,2.038-0.729,2.925l-0.071-0.062c-0.18,0.204,0.099,0.192-0.031,0.337c-0.051-0.113-0.251,0.103-0.274-0.133
						c-0.227,0.297-0.031,0.506-0.086,0.753c0.101,0.082,0.004-0.216,0.129-0.103c0.039,0.062-0.321,0.416-0.18,0.545l-0.244-0.152
						l-0.027,0.238c-0.328,0.142-0.047-0.725-0.431-0.588l-0.071,0.196c-0.271,0.077,0.062-0.573-0.243-0.157
						c-0.027,0.234,0.125,0.525,0.291,0.389c-0.173,0.431,0.297,0.392,0.039,0.831c-0.165,0.075,0.173-0.368-0.013-0.353
						c-0.247,0.137-0.156,0.458-0.306,0.619c0.177-0.168,0.248,0.09,0.2,0.243c-0.203,0.185-0.07-0.231-0.267,0.082
						c0.066,0.103-0.027,0.443,0.18,0.221c0.15,0.238-0.242,0.301-0.18,0.576c-0.204,0.016-0.156-0.537-0.428-0.229
						c0.177,0.028-0.047,0.554,0.268,0.495c-0.117,0.113-0.239,0.062-0.271-0.099c-0.181,0.157-0.031,0.631-0.354,0.514l0.099,0.153
						l-0.325,0.137c-0.113,0.161-0.182,0.647-0.377,0.49c-0.016,0.067-0.29,0.431-0.039,0.392c0.251-0.172,0.078-0.34,0.368-0.337
						c-0.278,0.059-0.216,0.353-0.258,0.525l-0.095-0.035l-0.125,0.39l-0.142-0.062l0.062,0.181
						c-0.171,0.368-0.266-0.087-0.454,0.252l0.075-0.307l-0.275,0.268l0.169,0.478c-0.078,0.204-0.177-0.023-0.203,0.227
						l0.046-0.313c-0.007-0.062-0.29,0.009-0.481,0.22c-0.083,0.173-0.122,0.51,0.129,0.346c-0.093,0.109-0.29,0.203-0.29,0.054
						c-0.181,0.283,0.142,0.062,0.017,0.339l-0.727,0.289l0.021-0.376l-0.13,0.148c0.028-0.313-0.192,0-0.248-0.227l-0.207,0.367
						c0.49-0.086,0.031,0.612,0.314,0.723c-0.307,0.455-0.718-0.213-0.78,0.494c0.117-0.016,0.081,0.321,0.267,0.032
						c-0.26,0.21,0.043,0.352-0.33,0.547c0.129-0.282-0.432,0.016-0.243-0.399c0.047,0.087,0.22-0.108,0.243-0.172
						c-0.172,0.024-0.181-0.22-0.428,0.016c-0.129,0.156-0.329,0.36-0.196,0.439c0.122,0.109,0.216-0.236,0.236-0.024
						c-0.264,0.33-0.482,0.195-0.404,0.519c0.173-0.188,0.338-0.118,0.411-0.04l-0.176,0.267l-0.032-0.118
						c-0.407,0.283,0.032,0.244-0.336,0.557l-0.306-0.007c-0.044-0.213,0.556-0.416,0.29-0.581l-0.463,0.533l0.113-0.195
						c-0.09,0.069-0.432-0.149-0.593,0.33c-0.101,0.219,0.029,0.117,0.099,0.202c-0.356,0.346-0.403,0.525-0.635,0.738
						c-0.091-0.213-0.451,0.345-0.321-0.056c0.207,0,0.757-0.47,0.752-0.729c-0.301-0.071,0.311-0.236,0.208-0.502
						c-0.29,0.266-0.443,0.063-0.599-0.023l-0.162,0.234l0.291,0.181c-0.369,0.235-0.637,0.573-0.727,0.847
						c-0.16,0.024-0.223-0.126-0.102-0.25l-1.235,0.972c0.417,0.023-0.415,0.361-0.108,0.407c0.25-0.101,0.547-0.093,0.492,0.087
						c-0.145,0.086-0.062-0.095-0.147-0.095c-0.095,0.236-0.408,0.008-0.447,0.307c0.345-0.345-0.107-0.307-0.152-0.518
						c-0.216,0.282-0.076-0.126-0.35,0.063L65.22,74.34c-0.486,0.126-1.02,0.637-1.372,0.879c-0.244,0.031-0.236-0.242-0.46-0.157
						c-0.238,0.149,0.306,0.102-0.105,0.228l0.016-0.055c-0.078,0.118-0.737,0.244-0.689,0.589L62.6,75.547l-0.156,0.158
						l-0.071-0.204c-0.305-0.022-0.462,0.283-0.701,0.424l0.224,0.039c-0.36,0.337-0.722,0.346-1.113,0.588l-0.051-0.143
						l-0.209,0.205c0-0.164-0.259-0.125-0.349,0.039l0.489-0.627c0.217-0.008-0.116,0.251,0.056,0.322
						c0.149,0.069,0.518-0.149,0.518-0.307l-0.239,0.188c-0.137-0.156,0.091-0.259,0.138-0.422l-0.195,0.101l0.493-0.376
						c-0.129,0.156,0.145,0.062,0.11,0.149c-0.062-0.165,0.145-0.345,0.47-0.463c0.306,0.055,0.501-0.408,0.862-0.573l-0.329,0.644
						l0.502-0.188c0.036-0.173,0.008-0.393,0.244-0.636l0.078,0.102c0.219-0.211,0.116-0.376,0.454-0.532l1.521-0.925l0.091,0.093
						c0.058-0.385,0.686-0.596,0.897-0.918c0.56-0.289,0.969-0.947,1.356-0.971c0.812-0.746,1.372-1.538,2.243-2.269l-0.004,0.268
						c0.047-0.235,0.172-0.008,0.298-0.172c-0.279,0.055,0.067-0.321,0.059-0.519c0.44-0.274,0.75-0.87,0.937-1.293l0.111,0.07
						c0.094-0.511,0.654-0.729,0.991-1.188l0.321-0.171c0.008-0.373,0.11-0.495,0.259-0.934l0.792-0.886
						c0.376-1.2,1.13-2.196,1.554-3.392l0.168-0.02c0.121-1.274,1.062-2.518,1.145-3.584l0.223,0.176
						c0.166-0.298,0.126-0.744-0.077-0.717c0.164-0.298,0.083-0.82,0.345-0.969c0.135-0.314-0.016-0.428,0.024-0.698
						c0.278-0.62,0.306-0.871,0.32-1.51l-0.039,0.149c0.048,0.077,0.157,0.109,0.196-0.046c-0.046-0.248,0.173-0.853-0.165-0.663
						c0.268-0.651,0.048-1.573,0.377-2.196c-0.095,0.043-0.09-0.121-0.141-0.196c0.062-0.58,0.184-1.2,0.051-1.678
						c0.042-0.09,0.145,0.157,0.153-0.082c-0.032-0.149-0.111-0.008-0.158-0.185c-0.18-0.957,0.178-1.945,0.087-2.815
						c-0.369-1.541-0.475-3.128-0.71-4.646l0.067,0.004c-0.353-0.404-0.036-1.133-0.479-1.403c0.031-0.125-0.071-0.42,0.063-0.376
						c-0.292-0.302-0.26-1.062-0.668-1.502l0.087,0.122c-0.062-0.592-0.459-0.964-0.651-1.544l0.189,0.121
						c-0.009-0.267-0.503-0.364-0.3-0.62c-0.062-0.122-0.176-0.012-0.129,0.056c-0.481-1.251-1.533-2.291-2.359-3.389
						c-0.491-0.882,0.364-0.36-0.317-0.831l-0.076-0.012c-0.258-0.184-0.042-0.588-0.297-0.647c-0.09,0.185-0.169-0.043-0.264,0.02
						c-0.297-0.545-0.234-0.768-0.67-1.027l0.098-0.04c-0.603-0.223-0.957-0.799-1.513-0.913c-2.212-2.199-4.698-3.89-7.282-5.427
						c-2.514-1.596-5.223-2.721-8.062-3.749c-0.6-0.455-0.647-0.51-1.432-0.596l0.048-0.079c-0.087,0.196-0.541-0.098-0.662,0.086
						l-3.235-0.639c0.185-0.004,0.302-0.169,0.083-0.177l-0.247,0.114l-0.027-0.063c-0.153,0.015-0.326,0.11-0.185,0.188
						c-2.862-0.176-5.701-0.619-8.54-0.286c-0.679,0.011-1.624,0.235-2.341,0.384c-2.215-0.051-4.16,0.498-6.27,1.192
						C31.679,20.119,31.785,19.522,32.652,19.158z"/>
					<path fill="#24241F" d="M59.707,76.364c0.112,0.062,0.376,0.006,0.242,0.228L59.707,76.364z"/>
					<polygon fill="#24241F" points="66.294,73.807 66.436,73.783 66.262,73.956 					"/>
					<path fill="#24241F" d="M67.78,72.756c0.035,0.087-0.221,0.4-0.393,0.55L67.78,72.756z"/>
					<path fill="#24241F" d="M69.353,71.972c0.156-0.039,0.164,0.024,0.008,0.15L69.353,71.972z"/>
					<path fill="#24241F" d="M69.297,71.729l0.275-0.118C69.517,71.557,69.368,71.878,69.297,71.729z"/>
					<path fill="#24241F" d="M72.12,69.282l0.256-0.26C72.261,69.04,72.174,69.432,72.12,69.282z"/>
					<polygon fill="#24241F" points="73.155,67.887 73.246,67.769 73.281,67.917 					"/>
					<polygon fill="#24241F" points="78.033,38.116 78.143,38.273 78.05,38.285 					"/>
					<path fill="#24241F" d="M70.23,27.016c-0.168-0.095-0.031-0.161-0.039-0.188C70.312,26.934,70.065,26.867,70.23,27.016z"/>
					<polygon fill="#24241F" points="64.225,22.872 64.271,22.903 64.153,23.056 					"/>
				</g>
			</g>
			<g>
				<path fill="#24241F" d="M38.016,33.748c0.086-0.329,0.165-0.611,0.274-0.933c1.996-7.301,5.294-13.622,9.14-19.777"/>
				<g>
					<path fill="#24241F" d="M37.694,33.604c0.016,0.09,0.173,0,0.055,0.07L37.694,33.604z"/>
					<path fill="#24241F" d="M47.088,13.151c0.29,0.494-0.305,0.545-0.18,0.969c0,0.039-0.227-0.149-0.212-0.047
						c0.188,0.451-0.227,0.721-0.65,0.882l-0.055-0.058l0.031,0.274l-0.118-0.078l0.086,0.231l-0.243-0.075l0.125,0.125
						c0.301,0.301-0.157,0.223-0.047,0.462l-0.09-0.062c0.098,0.341-0.09,0.584-0.145,0.87l-0.208-0.125l0.145,0.278
						c-0.18-0.063,0.09,0.192-0.039,0.224l-0.035-0.031c0.142,0.157-0.145,0.031,0.035,0.188l-0.149-0.04
						c0.22,0.153-0.165,0.016-0.071,0.125l0.047,0.027l-0.079,0.091l-0.032-0.004c0.008,0.125-0.148,0.109,0.032,0.204
						c-0.164-0.043-0.016-0.125-0.251-0.192c0.012,0.416-0.204,0.71-0.373,1.027l-0.2-0.02l0.043,0.208l-0.122-0.016
						c-0.102,0.024,0.165,0.173,0.047,0.188l-0.161-0.122l0.062,0.279l-0.094-0.078c0.122,0.153-0.106,0.11-0.035,0.223
						l-0.094-0.082c-0.18,0.03,0.205,0.145,0.087,0.188l-0.11-0.078c0.149,0.18,0.016,0.274,0.035,0.388l-0.043-0.031l-0.098,0.298
						c-0.066,0.003-0.255-0.149-0.263-0.04c0.212,0.106,0,0.201,0.271,0.271l-0.18,0.228l-0.263-0.168l-0.156-0.02l-0.063-0.071
						l-0.023,0.181c0.094,0.125,0.309,0.305,0.282,0.415l-0.266-0.141l0.329,0.342l-0.141-0.008l0.122,0.102
						c-0.031,0-0.02,0.161-0.239,0.062l-0.11-0.07l0.008,0.157l-0.024-0.012l0.165,0.176l-0.047-0.063l0.07,0.235l-0.137-0.102
						l0.149,0.392c0.099,0.051-0.165-0.125-0.105-0.11c-0.2,0.047,0.07,0.329-0.188,0.326l0.117,0.042L43.09,21.93l0.007,0.106
						l-0.039-0.051c0.043,0.086,0.063,0.353-0.126,0.412l0.146,0.196l-0.129-0.074l-0.153,0.047c0.129,0.137-0.012-0.29,0.066-0.153
						c-0.122-0.027,0.149,0.212-0.02,0.106c-0.027,0.059,0.094,0.184-0.059,0.181l-0.172-0.087l0.059,0.138l0.043,0.066
						c0.126,0.063-0.047,0.063,0.11,0.102c-0.11-0.039,0.02,0.149-0.192,0.039l-0.165-0.09l0.22,0.204l-0.083-0.023
						c0.259,0.126-0.055,0.075,0.133,0.211l-0.251,0.149l0.047,0.228l-0.075-0.074v0.102l-0.293,0.016l0.29,0.185
						c-0.274-0.066,0.106,0.231-0.153,0.192l-0.177-0.118c-0.278-0.071,0.149,0.188-0.003,0.215l0.224,0.075
						c-0.149-0.023,0.078,0.18-0.141,0.075c0.07,0.062-0.106,0.066,0.109,0.152c-0.235,0.055-0.024,0.38-0.431,0.301l0.086,0.103
						c0.133,0.016-0.063-0.083,0.015-0.059l0.087,0.063l-0.251-0.067c-0.165,0.039,0.322,0.255,0.192,0.342L41.89,25.13l0.125,0.133
						l-0.36-0.102l0.083,0.165l-0.201-0.024c0.146,0.016,0.071,0.067,0.103,0.102l-0.032-0.035l-0.031,0.082l0.184-0.02l0.098,0.138
						l-0.156,0.051l0.101,0.11l-0.129-0.02l0.028-0.05c-0.071,0.008-0.196-0.051-0.122,0.042c0.059,0.067,0.294,0.106,0.169,0.142
						l-0.129-0.098l-0.102,0.04l0.129,0.059l-0.063-0.02l0.153,0.208l-0.146,0.062l-0.012-0.011l0.012,0.152l-0.023-0.011
						l0.047,0.141c-0.121,0.011-0.51-0.189-0.364-0.055c-0.02,0.063,0.208,0.188,0.301,0.2c-0.125,0.067,0.048,0.271-0.196,0.283
						l0.106,0.085c-0.11,0.13,0.036,0.381-0.271,0.404l-0.212-0.086c0.11,0.079-0.141-0.004,0.063,0.086l0.243,0.043l-0.149,0.263
						l0.122,0.063c-0.192-0.079-0.248-0.024-0.197,0.051l0.114,0.051l-0.133-0.012c0.031,0.035,0.243,0.113,0.109,0.125
						l-0.133-0.031c0.079,0.082,0.216,0.22,0.094,0.243l-0.188-0.023l0.161,0.09l-0.337,0.093c0.302,0.294,0.228,0.545,0.129,0.726
						l-0.085-0.039c-0.106,0.023,0.141,0.086,0.066,0.098l-0.286-0.102c-0.126,0.043,0.117,0.153,0.141,0.215
						c0.11,0.043-0.063-0.07,0.083-0.007c0.039,0.023-0.13,0.07,0.042,0.145l-0.266-0.099l0.066,0.075l-0.599-0.287l0.012,0.051
						c-0.2-0.02-0.169-0.188-0.271-0.103l0.408,0.193c0.012,0.118,0.408,0.188,0.354,0.286l-0.149-0.118
						c-0.161,0,0.043,0.121-0.024,0.145l0.271,0.122l-0.2-0.023l0.243,0.105c0.22,0.106-0.094,0.055,0.071,0.157l-0.462-0.149
						l0.427,0.204l-0.271-0.074c-0.113,0.012,0.248,0.208-0.071,0.113l0.158,0.071h-0.204c-0.016,0.04,0.172,0.2-0.071,0.114
						c0.02,0.022-0.024,0.105,0.157,0.129c0.126-0.023-0.098-0.106,0.141-0.063c-0.203-0.023-0.008,0.09,0.043,0.142l-0.098-0.02
						l0.094,0.113l-0.149-0.04l0.138,0.067c0.042,0.102-0.259-0.063-0.247,0.027l-0.086-0.095l-0.094,0.055l0.369,0.176
						c0.04,0.063-0.157-0.027-0.04,0.059l-0.132-0.106l-0.251,0.023l0.293,0.138l-0.192-0.012l0.204,0.122l-0.392,0.031
						l-0.196-0.129l-0.016,0.039l-0.321-0.102l0.051,0.106l0.655,0.282c0.032,0.13-0.69-0.137-0.306,0.106
						c0.079,0.008,0.267,0.121,0.212,0.028c-0.055,0.059,0.259,0.133,0.118,0.176l-0.432-0.157l0.063-0.047l-0.298-0.023
						l0.141,0.149l0.157,0.008c0.02,0.094-0.22,0.039,0.039,0.157l0.274,0.012l0.039,0.078l-0.098-0.043
						c-0.114,0.079,0.176,0.083,0.114,0.177l-0.22-0.02c-0.172-0.079,0.13-0.118-0.164-0.185l0.008,0.158l-0.039-0.063
						c-0.024,0.024-0.408-0.075-0.22,0.087l0.204,0.074l0.086,0.239c-0.204-0.074-0.063,0.106-0.251-0.022
						c0.133,0,0.181-0.149-0.007-0.239c-0.263-0.04,0.062-0.067-0.181-0.165c-0.035,0.074-0.282,0-0.446-0.036l0.062,0.079
						l0.314,0.071c-0.079,0.078-0.024,0.191,0.101,0.282L39.224,31.8l-0.142,0.309c0.275,0.008,0.016,0.134,0.239,0.149l0.368,0.027
						l-0.165-0.031c0.118,0.078-0.243,0-0.043,0.105c-0.047-0.117-0.298-0.105-0.487-0.18c0.087,0.103-0.132-0.039-0.16,0.027
						l0.146,0.302c-0.22,0.046-0.095,0.243-0.118,0.337l-0.384-0.036c-0.016,0.063,0.254,0.024,0.121,0.079l-0.043-0.015
						c0.031,0.078-0.196,0.118,0.102,0.263l-0.228-0.109l0.047,0.062l-0.196-0.075c-0.173,0-0.008,0.125-0.016,0.188l0.149,0.004
						l-0.063,0.273l-0.133-0.042l0.063,0.078c-0.125-0.051-0.227-0.024-0.125,0.039l-0.29-0.255l0.293,0.114
						c0.122,0.012,0.114-0.09-0.011-0.149l0.047,0.086l-0.29-0.165l-0.008,0.051l-0.07-0.173L38,33.117
						c-0.164-0.063-0.195-0.138-0.125-0.2c0.204,0.032-0.07-0.216-0.012-0.22l0.341,0.231l0.109-0.083l-0.356-0.228l0.129,0.027
						c-0.039-0.079-0.228-0.129-0.165-0.2l0.219-0.356l0.126,0.027c-0.243-0.137-0.023-0.224-0.114-0.336
						c0.168-0.095-0.012-0.322,0.231-0.322l0.11-0.729l0.165,0.097c-0.117-0.086,0.117,0,0.105-0.051l-0.263-0.184
						c0.18-0.063,0.079-0.251-0.015-0.388l0.125,0.036c-0.196-0.169,0.055-0.219,0.137-0.33l0.185-0.023l-0.244-0.294l0.228-0.216
						c-0.185-0.36,0.102-0.568,0.031-0.906l0.157,0.028c-0.211-0.372,0.196-0.608,0.118-0.89l0.243,0.11
						c0.102-0.043-0.004-0.185-0.188-0.231c0.102-0.047-0.051-0.227,0.173-0.192l-0.094-0.212l0.156-0.329l-0.031,0.027l0.181,0.05
						c-0.047-0.078,0.141-0.164-0.173-0.227c0.224-0.087-0.007-0.404,0.275-0.456l-0.133-0.102c0.048-0.129,0.259-0.2,0.165-0.356
						l0.148,0.031l-0.133-0.094c-0.071-0.274,0.314-0.365,0.345-0.577c-0.024-0.404,0.188-0.729,0.287-1.062l0.059,0.027
						c-0.18-0.212,0.322-0.161,0.023-0.393l0.165-0.016c-0.125-0.161,0.235-0.184,0.086-0.399l0.023,0.047l0.204-0.341l0.086,0.09
						c0.13-0.008-0.196-0.235,0.09-0.137l-0.129-0.063c0.231-0.239,0.133-0.655,0.243-0.96c0.275-0.125,0.467,0.211,0.354-0.051
						l-0.043-0.035c-0.043-0.098,0.36,0.051,0.24-0.062c-0.177-0.063-0.079-0.075-0.181-0.126c0.181-0.066,0.345-0.024,0.274-0.18
						l0.082,0.051c-0.184-0.239,0.024-0.302-0.208-0.542l0.792-1.992c0.396-0.584,0.604-1.255,1.102-1.804
						c0.306-0.016,0.306-0.031,0.303-0.243l0.078,0.051c-0.18-0.114,0.047-0.126-0.125-0.239l0.36-0.686l0.157,0.102l-0.094-0.113
						l0.055,0.02l-0.158-0.134c0.173-0.682,0.867-1.059,1.145-1.666l0.243-0.51c0.486-0.298,0.902-0.577,0.988-1.129
						C46.657,12.556,47.088,12.9,47.088,13.151z"/>
					<path fill="#24241F" d="M37.702,33.497l0.302,0.055L37.702,33.497z"/>
					<polygon fill="#24241F" points="39.246,32.317 39.313,32.305 39.333,32.368 					"/>
					<path fill="#24241F" d="M39.443,31.964l0.125,0.18L39.443,31.964z"/>
					<path fill="#24241F" d="M39.944,31.729l0.11,0.051L39.944,31.729z"/>
					<path fill="#24241F" d="M39.749,31.647l0.125-0.032L39.749,31.647z"/>
					<path fill="#24241F" d="M40.29,30.979l0.047-0.07C40.258,30.91,40.415,31.035,40.29,30.979z"/>
					<polygon fill="#24241F" points="40.286,30.592 40.293,30.564 40.399,30.615 					"/>
					<polygon fill="#24241F" points="42.305,24.142 42.333,24.197 42.25,24.153 					"/>
					<path fill="#24241F" d="M43.552,21.452l0.105,0.016L43.552,21.452z"/>
					<polygon fill="#24241F" points="43.913,19.829 43.913,19.848 43.74,19.75 					"/>
				</g>
			</g>
			<g>
				<g>
					<path fill="#24241F" d="M53.966,78.253c0.169,0.079,0.009-0.195,0.134,0.016L53.966,78.253z"/>
					<path fill="#24241F" d="M37.505,34.771c0.346,0.69-0.313,1.337-0.156,2.039c0.008,0.074-0.263-0.075-0.227,0.106
						c0.271,0.69-0.118,1.623-0.534,2.333l-0.071-0.054l0.083,0.498l-0.137-0.04l0.141,0.38l-0.259,0.11l0.164,0.11
						c0.385,0.278-0.085,0.587,0.095,0.94l-0.11-0.027c0.204,0.553,0.094,1.22,0.129,1.819l-0.239-0.02l0.227,0.38
						c-0.188,0.075,0.165,0.279,0.063,0.467l-0.043-0.011c0.192,0.137-0.122,0.204,0.114,0.317l-0.149,0.09
						c0.263,0.062-0.141,0.2-0.012,0.313h0.059l-0.031,0.267l-0.032,0.008c0.063,0.24-0.086,0.373,0.118,0.369
						c-0.165,0.086-0.07-0.228-0.313-0.102l0.251,2.353l-0.173,0.18l0.165,0.357l-0.11,0.098c-0.07,0.145,0.235,0.141,0.157,0.298
						l-0.205-0.043l0.22,0.455l-0.125-0.051c0.188,0.156-0.02,0.317,0.102,0.458l-0.118-0.043c-0.133,0.255,0.251,0.051,0.18,0.267
						l-0.133-0.027c0.227,0.177,0.172,0.494,0.259,0.682h-0.047c0.031,0.208-0.016,0.431,0.148,0.646
						c-0.031,0.091-0.293,0.012-0.196,0.228c0.236-0.043,0.185,0.361,0.424,0.188l0.094,0.616c-0.11-0.071-0.267,0.137-0.322-0.02
						l-0.117,0.145l-0.11-0.07l0.157,0.372l0.568,0.423l-0.302,0.048l0.525,0.239c0.031,0.074-0.18,0.055-0.094,0.152l0.172,0.048
						c-0.023,0.031,0.133,0.31-0.086,0.392l-0.141-0.012l0.153,0.271l-0.027,0.012c-0.016,0.106,0.165,0.259,0.267,0.126
						l-0.086-0.055l0.258,0.332l-0.18-0.019l0.462,0.529c0.11-0.024-0.219-0.031-0.168-0.074c-0.083,0.31,0.349,0.506,0.184,0.787
						l0.118-0.043l-0.063,0.238c-0.086,0.032,0.055,0.104,0.105,0.182l-0.066-0.039c0.109,0.102,0.36,0.552,0.297,0.874l0.271,0.173
						l-0.145,0.015l-0.055,0.267c0.204,0.087-0.274-0.493-0.094-0.345c-0.11,0.087,0.282,0.192,0.082,0.212
						c0.035,0.129,0.223,0.204,0.122,0.373l-0.181,0.06c0.071,0.18,0.079,0.034,0.165,0.167l0.078,0.074
						c0.134-0.039,0.02,0.174,0.157,0.052c-0.11,0.062,0.133,0.247-0.099,0.311l-0.184,0.03l0.314,0.102l-0.079,0.06
						c0.275-0.087,0.024,0.199,0.259,0.224c-0.055,0.207,0.149,0.42,0.008,0.561l0.271,0.341l-0.122-0.039l0.114,0.181
						c-0.047-0.004-0.086,0.235-0.142,0.372l0.354-0.02c-0.224,0.228,0.301,0.208,0.145,0.467c-0.059-0.02-0.22-0.117-0.235,0.012
						c-0.2,0.225,0.306,0.134,0.274,0.364l0.188-0.14c-0.094,0.136,0.259,0.199,0.032,0.281c0.105,0.023,0.031,0.234,0.235,0.122
						c-0.032,0.368,0.459,0.643,0.18,0.996l0.165,0.065l-0.062-0.113h0.114c0,0.113,0.02,0.192-0.192,0.192
						c-0.024,0.263,0.455,0.031,0.502,0.32l-0.063,0.139l0.219,0.059c0.047,0.176-0.149,0.195-0.286,0.27l0.243,0.17l-0.121,0.199
						c0.085-0.142,0.117,0.028,0.176,0.051l-0.059-0.022l0.086,0.172l0.059-0.251l0.208,0.109c-0.149,0.051-0.023,0.192-0.003,0.267
						l0.176,0.044l-0.078,0.134l-0.048-0.11c-0.022,0.078-0.156,0.141-0.007,0.203c0.11,0.039,0.258-0.176,0.251,0.032h-0.176
						l0.003,0.18l0.126-0.062l-0.047,0.047l0.314,0.146l0.016,0.286l-0.016-0.012l0.196,0.239l-0.032,0.011l0.196,0.166
						c-0.031,0.177-0.447,0.316-0.224,0.356c0.071,0.114,0.346,0.036,0.388-0.056c0.059,0.251,0.416,0.347,0.361,0.644h0.157
						c0.157,0.318,0.573,0.511,0.506,0.899l-0.192,0.119c0.157,0-0.047,0.156,0.152,0.062l0.145-0.221
						c0.181,0.126,0.365,0.385,0.338,0.55l0.129-0.055c-0.176,0.109-0.113,0.25,0.016,0.312l0.114-0.062l-0.063,0.134
						c0.063,0.016,0.243-0.11,0.211,0.055l-0.085,0.103c0.156,0.039,0.392,0.077,0.383,0.25l-0.082,0.197l0.176-0.071l0.031,0.534
						c0.534,0.078,0.87,0.517,1.11,0.901l-0.078,0.048c0.004,0.147,0.161-0.057,0.161,0.054l-0.235,0.195
						c0.039,0.189,0.278,0.055,0.388,0.111c0.106-0.071-0.121-0.017,0.012-0.103c0.047-0.016,0.094,0.235,0.255,0.133l-0.228,0.173
						l0.141,0.022c-0.074,0.236-0.505,0.039-0.612,0.315l0.09,0.055c-0.083,0.188-0.353-0.048-0.227,0.172
						c0.149,0.016,0.416-0.086,0.412-0.211c0.192,0.125,0.412-0.229,0.561-0.04c-0.035,0.117-0.149-0.126-0.235,0.016
						c-0.036,0.173,0.22,0.102,0.251,0.212c-0.024-0.126,0.18-0.188,0.258-0.164c0.016,0.147-0.188,0.062-0.082,0.203
						c0.098-0.056,0.271,0,0.231-0.142c0.228-0.125,0.07,0.173,0.278,0.109c-0.09,0.158-0.419,0.142-0.349,0.338
						c0.102-0.141,0.33,0.008,0.439-0.227l-0.188,0.21c0,0.15,0.4-0.021,0.184,0.229l0.149-0.094l-0.043,0.22
						c0.062,0.078,0.376,0.063,0.18,0.228c0.043,0.007,0.181,0.164,0.251-0.017c-0.012-0.172-0.196-0.016-0.075-0.234
						c-0.075,0.203,0.153,0.116,0.247,0.126l-0.062,0.077l0.215,0.039l-0.093,0.118l0.141-0.07c0.181,0.078-0.16,0.212-0.004,0.312
						l-0.18-0.014l0.079,0.171l0.376-0.195c0.11,0.024-0.078,0.141,0.086,0.109l-0.205,0.023l-0.003,0.321
						c0.094,0.023,0.325-0.023,0.286-0.172l-0.054,0.211l0.243-0.093l-0.024,0.486l-0.259,0.068l0.062,0.071
						c-0.21,0.048-0.054,0.142-0.234,0.236l0.2,0.078c0.085-0.354,0.435-0.157,0.596-0.407c0.224,0.124-0.365,0.619,0.122,0.484
						c0.022-0.084,0.254-0.155,0.085-0.21c0.09,0.133,0.271-0.134,0.318,0.086c-0.177-0.017-0.09,0.321-0.345,0.298l-0.067-0.135
						c-0.031,0.135-0.204,0.205-0.094,0.323c0.086,0.047,0.188,0.14,0.275,0.016c0.101-0.117-0.118-0.095,0.039-0.173
						c0.172,0.095,0.027,0.306,0.274,0.149c-0.098-0.071-0.008-0.22,0.07-0.299l0.141,0.055l-0.09,0.055
						c0.106,0.221,0.177-0.094,0.313,0.079l-0.058,0.219c-0.173,0.119-0.185-0.266-0.354-0.021l0.287,0.171l-0.121-0.023
						c0.035,0.039-0.185,0.369,0.132,0.321l0.165-0.147l0.471,0.142c-0.169,0.155,0.196,0.18-0.079,0.249
						c0.017-0.141-0.254-0.336-0.454-0.226c-0.103,0.25-0.125-0.135-0.337,0.03c0.149,0.117-0.031,0.307-0.114,0.454l0.161,0.017
						l0.168-0.275l0.545,0.166L50.696,74.7l0.588,0.471c0.04-0.297,0.242,0.111,0.298-0.117l0.095-0.376l-0.086,0.148
						c0.167-0.055-0.017,0.267,0.203,0.15c-0.235-0.063-0.235,0.226-0.393,0.352c0.205,0.017-0.094,0.11,0.035,0.212l0.585,0.133
						c0.07,0.291,0.463,0.354,0.627,0.472l-0.098,0.391c0.114,0.079,0.066-0.265,0.164-0.055l-0.042,0.024
						c0.077-0.009,0.207,0.346,0.443,0.117l-0.193,0.166l0.118,0.015l-0.134,0.156c0.008,0.213,0.228,0.135,0.341,0.213l0.013-0.174
						l0.502,0.354l-0.087,0.109l0.157,0.017c-0.105,0.094-0.055,0.242,0.062,0.188l-0.471,0.079l0.212-0.228
						c0.023-0.134-0.164-0.228-0.267-0.134l0.152,0.031c-0.09,0.173-0.185,0.095-0.306,0.173l0.095,0.063l-0.311-0.095l0.095-0.149
						c-0.109,0.133-0.251,0.094-0.356-0.048c0.02-0.242-0.334-0.084-0.459-0.25l0.47-0.141l-0.156-0.228l-0.459,0.18l0.071-0.108
						c-0.157-0.039-0.271,0.116-0.4-0.023l-0.671-0.604l0.075-0.11c-0.278,0.134-0.428-0.195-0.651-0.204
						c-0.168-0.29-0.624-0.322-0.607-0.587c-0.514-0.244-0.957-0.479-1.306-0.942l0.196-0.078c-0.168,0.032,0.027-0.124-0.063-0.172
						c-0.02,0.188-0.231,0.038-0.361,0.078c-0.074-0.291-0.412-0.408-0.667-0.479l0.083-0.094c-0.33,0.008-0.368-0.347-0.541-0.581
						v-0.228l-0.561-0.108l-0.326-0.526c-0.655-0.243-0.96-0.838-1.553-1.185l0.087-0.133c-0.66-0.274-0.859-1.113-1.318-1.45
						l0.243-0.11c-0.04-0.189-0.282-0.273-0.404-0.126c-0.036-0.187-0.353-0.267-0.24-0.486l-0.336-0.195
						c-0.126-0.346-0.216-0.431-0.448-0.675l0.031,0.079l0.13-0.142c-0.13-0.062-0.204-0.408-0.392-0.125
						c-0.055-0.394-0.6-0.589-0.596-0.997l-0.192,0.009l-0.471-0.739l0.109-0.126h-0.18c-0.368-0.36-0.321-0.983-0.564-1.364
						c-0.517-0.636-0.831-1.427-1.208-2.106l0.063-0.014c-0.337-0.131-0.055-0.644-0.479-0.679c0.023-0.079-0.083-0.22,0.047-0.228
						c-0.247-0.118-0.114-0.581-0.447-0.757l0.062,0.051c-0.04-0.42-0.266-0.521-0.278-0.875l0.137,0.052
						c0.071-0.148-0.353-0.169-0.094-0.338l-0.133,0.044l-0.714-2.017c0.047-0.557,0.479-0.18,0.165-0.513L37.376,57
						c-0.118-0.134,0.27-0.341,0.09-0.4l-0.227-0.012c0.043-0.342,0.188-0.447-0.004-0.654l0.098-0.004
						c-0.337-0.212-0.271-0.581-0.639-0.741l-1.376-4.6c-0.048-1.635-0.283-3.016-0.209-4.729c0.267-0.357,0.263-0.389,0.166-0.784
						l0.09,0.012c-0.212-0.02-0.016-0.279-0.216-0.322l0.036-1.729c0.016,0.099,0.18,0.157,0.18,0.043l-0.125-0.126l0.062-0.012
						l-0.196-0.09c-0.031-1.463,0.463-3.062,0.702-4.479l0.169-1.208c0.486-1.176,0.96-1.96,1.012-3.132
						C36.988,34.035,37.49,34.297,37.505,34.771z"/>
					<path fill="#24241F" d="M53.771,78.137c0.03-0.111-0.04-0.237,0.117-0.299L53.771,78.137z"/>
					<polygon fill="#24241F" points="51.684,75.187 51.677,75.108 51.79,75.147 					"/>
					<path fill="#24241F" d="M51.037,74.63l0.357,0.04L51.037,74.63z"/>
					<path fill="#24241F" d="M50.648,73.847l0.114-0.063L50.648,73.847z"/>
					<path fill="#24241F" d="M50.465,73.979l-0.036-0.157C50.379,73.877,50.587,73.87,50.465,73.979z"/>
					<path fill="#24241F" d="M49.406,72.576l-0.105-0.134C49.285,72.528,49.528,72.498,49.406,72.576z"/>
					<polygon fill="#24241F" points="48.751,72.105 48.704,72.059 48.814,72.003 					"/>
					<polygon fill="#24241F" points="40.125,60.337 40.207,60.396 40.117,60.423 					"/>
					<path fill="#24241F" d="M38.298,54.173l0.078-0.098L38.298,54.173z"/>
					<polygon fill="#24241F" points="37.011,50.848 37.023,50.871 36.831,50.891 					"/>
				</g>
			</g>
			<g>
				<g>
					<path fill="#24241F" d="M24.084,47.197c-0.063-0.141-0.153,0.09-0.087-0.09L24.084,47.197z"/>
					<path fill="#24241F" d="M47.913,77.352c-0.616,0.283-1.051-0.424-1.655-0.329c-0.071-0.008,0.109-0.243-0.047-0.243
						c-0.62,0.164-1.31-0.361-1.764-0.862l0.066-0.055h-0.435l0.071-0.118l-0.342,0.055l0.004-0.259l-0.142,0.125
						c-0.376,0.299-0.416-0.266-0.753-0.211l0.063-0.087c-0.494-0.007-0.957-0.329-1.436-0.509l0.126-0.204
						c-0.11,0.148-0.267,0.109-0.4,0.07c0.043-0.195-0.283,0.031-0.369-0.142l0.031-0.024c-0.2,0.111-0.09-0.187-0.294-0.038
						l0.012-0.164c-0.18,0.202-0.07-0.197-0.228-0.134l-0.023,0.055l-0.18-0.14l0.008-0.023c-0.204-0.048-0.228-0.229-0.329-0.048
						c0.027-0.181,0.204,0.03,0.239-0.229c-0.66-0.165-1.259-0.478-1.737-0.933V72.67l-0.322-0.07l0.012-0.149
						c-0.042-0.134-0.239,0.103-0.282-0.055l0.161-0.126l-0.415-0.102l0.109-0.062c-0.224,0.056-0.18-0.188-0.345-0.188l0.11-0.062
						c-0.07-0.234-0.204,0.165-0.282-0.016l0.109-0.086c-0.266,0.069-0.423-0.157-0.595-0.204l0.031-0.031l-0.462-0.314
						c-0.023-0.086,0.204-0.204,0.031-0.29c-0.149,0.188-0.313-0.133-0.404,0.149c-0.097-0.142-0.239-0.368-0.372-0.368
						c0.118-0.023,0.133-0.274,0.251-0.204l0.02-0.173l0.114-0.016l-0.291-0.157c-0.196,0.031-0.47,0.157-0.643,0.047l0.215-0.202
						l-0.532,0.147l0.003-0.172l-0.149,0.062c0-0.038-0.227-0.164-0.082-0.354l0.117-0.07l-0.227-0.125l0.02-0.031
						c-0.031-0.079-0.231-0.103-0.267,0.056c0.036,0.045,0.087-0.118,0.095-0.009l-0.346-0.117l0.158-0.079l-0.581-0.181
						c-0.086,0.087,0.192-0.086,0.165-0.023c-0.043-0.29-0.487-0.219-0.455-0.524l-0.082,0.093l-0.036-0.211
						c0.063-0.071-0.086-0.055-0.161-0.094h0.074c-0.133-0.023-0.533-0.251-0.592-0.534l-0.31-0.016l0.126-0.078l-0.048-0.228
						c-0.219,0.024,0.432,0.259,0.212,0.228c0.067-0.117-0.33-0.023-0.152-0.125c-0.083-0.087-0.287-0.063-0.251-0.235
						c0.004,0.039,0.224-0.063,0.153-0.126l-0.211-0.054l-0.102-0.023c-0.118,0.085-0.086-0.127-0.169,0.023
						c0.079-0.095-0.215-0.142-0.02-0.276l0.165-0.094l-0.337,0.039l0.055-0.069c-0.235,0.172-0.094-0.142-0.33-0.07
						c-0.016-0.173-0.243-0.289-0.149-0.454c-0.157-0.046-0.2,0.066-0.291-0.126l0.122-0.01l-0.149-0.11l0.012-0.4l-0.314,0.117
						c0.173-0.251-0.321-0.164-0.18-0.427l0.208-0.055c0.177-0.251-0.282-0.059-0.259-0.279l-0.168,0.169
						c0.079-0.148-0.247-0.129-0.039-0.255c-0.102,0-0.04-0.212-0.22-0.063c0.016-0.341-0.454-0.505-0.203-0.878l-0.157-0.03
						l0.063,0.094l-0.11,0.011c0-0.094-0.024-0.164,0.18-0.199c0.02-0.235-0.431,0.048-0.486-0.207l0.055-0.135l-0.204-0.02
						c-0.055-0.156,0.134-0.195,0.267-0.277l-0.235-0.122l0.117-0.188c-0.086,0.138-0.117-0.011-0.172-0.023l0.055,0.013
						l-0.083-0.138l-0.059,0.231l-0.205-0.074c0.146-0.063,0.024-0.173,0-0.235l-0.172-0.024l0.079-0.125l0.047,0.094
						c0.024-0.073,0.149-0.145,0.008-0.176c-0.11-0.028-0.259,0.176-0.251,0l0.177-0.02l-0.004-0.157l-0.126,0.066l0.047-0.043
						l-0.313-0.106l-0.016-0.238l0.016,0.008l-0.197-0.188l0.031-0.012l-0.196-0.13c0.035-0.148,0.455-0.297,0.228-0.312
						c-0.063-0.1-0.321-0.028-0.376,0.059c-0.023-0.224-0.361-0.313-0.263-0.581l-0.145-0.008c-0.071-0.306-0.407-0.518-0.258-0.862
						l0.203-0.098c-0.142-0.013,0.087-0.142-0.125-0.07l-0.18,0.188c-0.137-0.134-0.251-0.393-0.18-0.533l-0.137,0.035
						c0.192-0.082,0.165-0.215,0.059-0.274l-0.118,0.039l0.087-0.118c-0.047-0.019-0.255,0.075-0.185-0.069l0.106-0.083
						c-0.134-0.052-0.353-0.113-0.303-0.271l0.13-0.155l-0.185,0.035l0.106-0.467c-0.49-0.149-0.706-0.601-0.835-0.968l0.09-0.025
						l-0.141-0.078l0.283-0.112c0.031-0.173-0.227-0.115-0.306-0.189c-0.122,0.035,0.102,0.043-0.047,0.087
						c-0.051,0,0.003-0.228-0.181-0.184l0.275-0.091l-0.125-0.052c0.161-0.18,0.47,0.091,0.674-0.114l-0.062-0.065
						c0.153-0.145,0.297,0.117,0.274-0.095l-0.455,0.082c-0.121-0.152-0.451,0.078-0.518-0.113l0.22,0.043
						c0.102-0.137-0.157-0.141-0.142-0.242l-0.297,0.062l0.156-0.142c-0.118,0.008-0.243-0.086-0.271,0.051
						c-0.251,0.032,0.004-0.165-0.208-0.176c0.141-0.106,0.436,0.004,0.451-0.178c-0.145,0.083-0.294-0.109-0.49,0.056l0.254-0.117
						c0.083-0.062-0.403-0.177-0.101-0.274l-0.177,0.027l0.126-0.129c-0.031-0.063-0.298-0.165-0.055-0.239
						c-0.032-0.017-0.071-0.192-0.219-0.066c-0.071,0.141,0.156,0.077-0.047,0.215c0.161-0.138-0.075-0.148-0.157-0.188l0.094-0.039
						l-0.165-0.109l0.138-0.056l-0.153,0.004c-0.118-0.125,0.239-0.117,0.153-0.251l0.145,0.075l0.024-0.165l-0.423,0.027
						c-0.079-0.062,0.137-0.082-0.024-0.118l0.192,0.052L24.147,54c-0.067-0.055-0.287-0.103-0.325,0.035l0.145-0.148l-0.251-0.016
						l0.259-0.377l0.254,0.039l-0.023-0.074l0.322-0.103l-0.134-0.136c-0.251,0.25-0.455-0.028-0.714,0.101
						c-0.133-0.175,0.619-0.345,0.134-0.415c-0.063,0.059-0.298,0.022-0.18,0.125c-0.009-0.133-0.298,0.009-0.231-0.18
						c0.145,0.074,0.239-0.212,0.451-0.103l-0.012,0.13c0.09-0.091,0.278-0.079,0.239-0.208l-0.227-0.114
						c-0.153,0.052,0.054,0.114-0.118,0.114c-0.102-0.137,0.125-0.247-0.172-0.22c0.055,0.094-0.094,0.173-0.204,0.208l-0.102-0.099
						l0.11-0.012c0.016-0.211-0.2,0.008-0.227-0.18l0.176-0.153c0.188-0.012,0.004,0.29,0.279,0.157l-0.142-0.243l0.079,0.063
						c0-0.048,0.36-0.213,0.093-0.303l-0.22,0.039c-0.031,0.142-0.301-0.619-0.297-0.682c0.149-0.42,0.149,0.521,0.247-0.087
						c-0.161,0,0.012,0.961,0.2,0.671c0.228-0.152,0.012,0.16,0.275,0.113c-0.04-0.152,0.204-0.227,0.356-0.302l-0.113-0.078
						l-0.291,0.137c-0.007-0.016-0.188-0.921-0.243-0.356l0.243-0.055l-0.07-0.65c-0.228,0.203-0.094-0.212-0.287-0.063
						c-0.039,0.126-0.2,0.278-0.317,0.251l0.157-0.082c-0.149-0.052,0.196-0.201-0.032-0.229c0.11,0.186,0.306-0.043,0.506-0.062
						c-0.129-0.113,0.137-0.035,0.121-0.176l-0.306-0.404c0.161-0.239-0.062-0.499-0.094-0.674l0.345-0.196
						c-0.023-0.114-0.231,0.133-0.153-0.062l0.047,0.011c-0.059-0.043,0.114-0.333-0.219-0.341l0.251,0.019l-0.075-0.082
						l0.212-0.016c0.153-0.126-0.058-0.211-0.078-0.326l-0.137,0.09c-0.141-0.18-0.012-0.33-0.09-0.51l0.141-0.008l-0.102-0.105
						c0.145,0.016,0.22-0.09,0.094-0.142l0.392,0.255l-0.321-0.008c-0.118,0.051-0.055,0.224,0.086,0.236l-0.078-0.11l0.336,0.09
						l-0.023-0.09l0.149,0.236l-0.176,0.031l0.216,0.231c-0.189,0.122,0.16,0.231,0.125,0.396l-0.415-0.18l-0.055,0.231l0.436,0.137
						l-0.129,0.035l0.259,0.219l0.016,0.722l-0.125,0.046c0.282,0.036,0.149,0.33,0.282,0.443c-0.118,0.125,0.239,0.717-0.004,0.832
						c0.145,0.152,0.416,0.682,0.49,1.094l-0.203-0.02c0.156,0.035-0.087,0.086-0.04,0.161c0.117-0.142,0.223,0.043,0.349,0.062
						c-0.078,0.251,0.153,0.455,0.333,0.584l-0.122,0.052c0.286,0.101,0.149,0.384,0.181,0.619l-0.114,0.184l0.423,0.263l0.071,0.51
						c0.479,0.29,0.51,0.87,0.886,1.271l-0.133,0.091c0.51,0.333,0.483,1.011,0.808,1.337l-0.251,0.074
						c-0.024,0.152,0.185,0.247,0.338,0.141c-0.016,0.161,0.251,0.256,0.09,0.428l0.254,0.188l0.235,0.596l-0.015-0.067
						l-0.153,0.114c0.105,0.056,0.082,0.357,0.325,0.13c-0.051,0.337,0.384,0.521,0.282,0.882l0.181-0.011
						c0.133,0.199,0.114,0.5,0.345,0.596l-0.114,0.109l0.177-0.02c0.349,0.251,0.282,0.757,0.51,1.043
						c0.479,0.454,0.76,1.059,1.105,1.564l-0.055,0.027c0.306,0.039,0.047,0.545,0.435,0.479l-0.043,0.212
						c0.224,0.039,0.11,0.479,0.408,0.557l-0.054-0.035c0.063,0.36,0.2,0.263,0.29,0.529l-0.134,0.015
						c0,0.186,0.294-0.078,0.216,0.299l0.122-0.079c0.266,0.475,0.808,0.796,1.234,1.177c0.13,0.417-0.372,0.348,0.012,0.441
						l0.055-0.016c0.149,0.031-0.125,0.367,0.051,0.322c0.118-0.142,0.118-0.017,0.204-0.095c0.075,0.266-0.016,0.416,0.22,0.471
						l-0.083,0.062c0.362-0.023,0.428,0.282,0.793,0.211c0.823,0.965,1.882,1.593,2.87,2.33l2.815,2.281
						c0.109,0.36,0.133,0.368,0.463,0.438l-0.055,0.079c0.126-0.173,0.204,0.095,0.337-0.062l1.168,0.667
						c-0.075-0.016-0.192,0.117-0.11,0.14l0.149-0.061l-0.016,0.054l0.152-0.141c1.086,0.463,1.891,1.419,3.023,1.748l0.91,0.321
						c0.714,0.589,1.396,1.114,2.297,1.271C48.579,76.904,48.305,77.383,47.913,77.352z"/>
					<path fill="#24241F" d="M24.127,47.374l-0.293,0.075L24.127,47.374z"/>
					<polygon fill="#24241F" points="23.453,50.417 23.405,50.482 23.351,50.393 					"/>
					<path fill="#24241F" d="M23.504,51.188l-0.212-0.216L23.504,51.188z"/>
					<path fill="#24241F" d="M23.241,51.98h-0.125H23.241z"/>
					<path fill="#24241F" d="M23.457,51.957l-0.07,0.137C23.461,52.071,23.304,51.984,23.457,51.957z"/>
					<path fill="#24241F" d="M23.625,53.447l0.028,0.149C23.712,53.542,23.488,53.466,23.625,53.447z"/>
					<polygon fill="#24241F" points="23.963,54.063 23.982,54.115 23.856,54.115 					"/>
					<polygon fill="#24241F" points="30.001,65.206 29.923,65.171 30.009,65.128 					"/>
					<path fill="#24241F" d="M33.6,69.447l-0.027,0.125L33.6,69.447z"/>
					<polygon fill="#24241F" points="36.11,71.134 36.086,71.125 36.22,70.983 					"/>
				</g>
			</g>
			<g>
				<path fill="#24241F" d="M53.135,13.026c-0.775,0.278-1.54,0.616-2.273,0.992c-7.152,3.25-13.63,7.478-18.873,13.1"/>
				<g>
					<path fill="#24241F" d="M53.197,13.378c0.067-0.079-0.102-0.137,0.031-0.097L53.197,13.378z"/>
					<path fill="#24241F" d="M32.401,27.082c-0.125-0.533,0.533-0.451,0.561-0.882c0.016-0.039,0.185,0.192,0.208,0.09
						c-0.031-0.47,0.518-0.643,1.02-0.682l0.031,0.071l0.079-0.275l0.09,0.102l0.004-0.243l0.224,0.137l-0.083-0.157
						c-0.192-0.38,0.251-0.18,0.235-0.443l0.063,0.086c0.039-0.356,0.333-0.553,0.501-0.819l0.161,0.188l-0.027-0.325
						c0.149,0.114-0.008-0.22,0.133-0.204l0.023,0.035c-0.078-0.196,0.153,0.016,0.043-0.2l0.129,0.086
						c-0.149-0.224,0.173,0.031,0.126-0.11l-0.036-0.039l0.122-0.066l0.023,0.015c0.047-0.129,0.196-0.062,0.059-0.215
						c0.141,0.095-0.04,0.13,0.168,0.275c0.165-0.423,0.501-0.663,0.808-0.925l0.18,0.094l0.055-0.235l0.105,0.059l0.036-0.208
						l0.103,0.173l0.062-0.302l0.055,0.114c-0.047-0.2,0.149-0.075,0.134-0.216l0.055,0.114c0.18,0.036-0.13-0.216,0.007-0.224
						l0.063,0.122l0.141-0.412l0.031,0.047l0.227-0.266c0.063,0.012,0.166,0.239,0.229,0.129c-0.149-0.188,0.085-0.204-0.126-0.38
						l0.274-0.169l0.161,0.271l0.134,0.074l0.02,0.103l0.109-0.18l-0.063-0.538l0.177,0.251l-0.141-0.483l0.13,0.063l-0.063-0.153
						c0.031,0.012,0.094-0.161,0.251,0.016l0.062,0.125l0.063-0.172l0.02,0.023l-0.059-0.243l0.008,0.079l0.051-0.275l0.074,0.161
						l0.062-0.471c-0.066-0.094,0.083,0.192,0.036,0.153c0.2,0.036,0.106-0.376,0.33-0.267l-0.083-0.102l0.156,0.02
						c0.055,0.082,0.024-0.063,0.047-0.114l0.008,0.063c0.004-0.106,0.118-0.407,0.337-0.353l-0.008-0.247l0.067,0.13l0.172,0.027
						c-0.035-0.181-0.168,0.267-0.152,0.109c0.085,0.083-0.009-0.267,0.082-0.093c0.059-0.032,0.028-0.204,0.162-0.122l0.109,0.156
						l0.031-0.153l0.008-0.074c-0.079-0.118,0.086-0.028-0.031-0.142c0.074,0.09,0.086-0.129,0.208,0.075l0.09,0.157l-0.063-0.282
						l0.063,0.063c-0.153-0.24,0.102-0.028,0.024-0.24c0.133,0.039,0.211-0.109,0.345,0.024l0.118-0.212l0.015,0.102l0.071-0.086
						l0.282,0.149l-0.134-0.306c0.209,0.208,0.075-0.251,0.283-0.071l0.071,0.196c0.211,0.208,0-0.235,0.165-0.172l-0.149-0.189
						c0.117,0.102,0.063-0.188,0.18,0.02c-0.015-0.085,0.149,0.008,0.016-0.176c0.251,0.078,0.298-0.302,0.604-0.008v-0.13
						l-0.062,0.032l-0.024-0.094c0.07,0.016,0.117,0.012,0.172,0.2c0.176,0.063-0.102-0.396,0.079-0.388l0.102,0.075l-0.016-0.177
						c0.106-0.016,0.165,0.157,0.247,0.29l0.047-0.184l0.161,0.145c-0.117-0.102-0.016-0.109-0.016-0.149v0.04l0.09-0.04
						l-0.176-0.099l0.016-0.164c0.07,0.145,0.133,0.059,0.176,0.051l-0.012-0.152l0.102,0.09l-0.059,0.031
						c0.059,0.031,0.129,0.157,0.129,0.04c0-0.095-0.168-0.263-0.039-0.224l0.039,0.161l0.118,0.027l-0.071-0.125l0.043,0.058
						l0.02-0.263l0.173,0.035v0.016l0.109-0.137l0.012,0.028l0.063-0.146c0.114,0.063,0.294,0.459,0.271,0.267l-0.109-0.349
						c0.161,0.024,0.172-0.254,0.384-0.118l-0.024-0.133c0.188-0.039,0.259-0.341,0.526-0.164l0.109,0.196
						c-0.024-0.133,0.11,0.09,0.016-0.11l-0.165-0.188c0.063-0.114,0.212-0.196,0.326-0.118l-0.051-0.133
						c0.093,0.184,0.18,0.172,0.196,0.083l-0.051-0.122l0.099,0.098c0-0.047-0.106-0.243,0.008-0.173l0.078,0.114
						c0.007-0.122,0.004-0.322,0.118-0.259l0.133,0.13l-0.063-0.169l0.337,0.134c-0.004-0.443,0.251-0.6,0.471-0.694l0.039,0.085
						l0.024-0.125l0.141,0.275c0.125,0.039,0.023-0.204,0.055-0.275c-0.047-0.114,0,0.098-0.063-0.051
						c-0.015-0.04,0.153,0.027,0.079-0.149l0.125,0.263l0.008-0.106l0.231,0.623l0.031-0.051l0.125,0.263l-0.157-0.427
						c0.075-0.102-0.161-0.42-0.043-0.467l0.016,0.193c0.122,0.109,0.067-0.13,0.134-0.106l-0.106-0.278l0.133,0.153l-0.098-0.251
						c-0.083-0.231,0.113,0.02,0.071-0.177c0.102,0.138,0.102,0.401,0.227,0.428l-0.153-0.456l0.137,0.243
						c0.094,0.063-0.016-0.333,0.149-0.05l-0.063-0.166l0.149,0.138c0.042-0.023,0.035-0.286,0.145-0.051
						c0.004-0.027,0.106-0.075-0.012-0.216c-0.109-0.063-0.016,0.157-0.153-0.04c0.13,0.153,0.074-0.071,0.082-0.148l0.051,0.085
						l0.028-0.161l0.074,0.13l-0.043-0.146c0.051-0.122,0.133,0.227,0.2,0.141l-0.012,0.137l0.11,0.016l-0.122-0.396
						c0.02-0.083,0.09,0.125,0.075-0.031l0.016,0.188l0.196,0.141l-0.102-0.31l0.133,0.137l-0.051-0.239l0.302,0.239l0.039,0.235
						l0.043-0.016l0.142,0.302l0.055-0.126c-0.22-0.239-0.09-0.438-0.24-0.682c0.087-0.137,0.373,0.585,0.306,0.114
						c-0.055-0.055-0.09-0.287-0.125-0.172c0.082-0.008-0.075-0.283,0.062-0.227l0.169,0.435l-0.083-0.008
						c0.078,0.082,0.117,0.263,0.188,0.224l0.023-0.224c-0.071-0.142-0.063,0.059-0.102-0.106c0.062-0.102,0.18,0.114,0.094-0.172
						c-0.047,0.059-0.129-0.09-0.172-0.192l0.035-0.098l0.032,0.102c0.137,0.012-0.051-0.191,0.066-0.219l0.138,0.165
						c0.051,0.18-0.185,0.012-0.039,0.271l0.125-0.142l-0.02,0.079c0.023-0.003,0.216,0.341,0.211,0.083l-0.078-0.204l0.141-0.271
						c0.079,0.208,0.134-0.051,0.149,0.196c-0.086-0.099-0.239,0-0.188,0.215c0.149,0.212-0.102,0.012-0.016,0.263
						c0.09-0.043,0.197,0.192,0.275,0.333l0.027-0.106l-0.153-0.278c0.094-0.008,0.196-0.161,0.125-0.298l0.117,0.224l0.354-0.133
						c-0.188-0.2,0.102-0.114-0.04-0.283l-0.239-0.287l0.091,0.15c-0.013-0.15,0.173,0.164,0.126-0.051
						c-0.074,0.118,0.118,0.291,0.18,0.479c0.031-0.137,0.062,0.129,0.142,0.094l0.156-0.333c0.192,0.125,0.282-0.121,0.381-0.172
						l0.22,0.313c0.062-0.036-0.146-0.204-0.012-0.153l0.012,0.043c0.012-0.059,0.235,0.07,0.141-0.248l0.063,0.243l0.027-0.079
						l0.07,0.192c0.126,0.129,0.113-0.078,0.177-0.114L52.39,13.1l0.286-0.148l0.047,0.137l0.036-0.106
						c0.031,0.133,0.121,0.192,0.113,0.067l-0.035,0.399l-0.094-0.302c-0.07-0.102-0.157-0.024-0.118,0.113l0.044-0.098l0.042,0.338
						l0.048-0.036l-0.094,0.168l-0.074-0.164l-0.075,0.235c-0.134-0.165-0.099,0.181-0.212,0.169l-0.008-0.42l-0.157-0.027
						l0.04,0.435l-0.055-0.117l-0.063,0.274l-0.438,0.102l-0.063-0.114c0.059,0.279-0.157,0.181-0.188,0.33
						c-0.181-0.063-0.282,0.251-0.439,0.09l-0.644,0.529l-0.04-0.192c0.016,0.153-0.074-0.086-0.105-0.035l0.043,0.337
						c-0.177-0.071-0.251,0.153-0.291,0.329l-0.062-0.113c0.008,0.271-0.204,0.145-0.345,0.18l-0.149-0.106l-0.055,0.408
						l-0.322,0.027c-0.137,0.416-0.502,0.4-0.698,0.717l-0.093-0.125c-0.118,0.443-0.592,0.365-0.745,0.643l-0.103-0.243
						c-0.113-0.032-0.133,0.153-0.031,0.306c-0.109-0.027-0.117,0.216-0.266,0.051l-0.079,0.224l-0.361,0.168l0.043-0.003
						l-0.106-0.153c-0.023,0.094-0.231,0.051-0.027,0.29c-0.239-0.074-0.278,0.322-0.545,0.192l0.04,0.165
						c-0.125,0.074-0.353,0-0.384,0.188l-0.102-0.125l0.042,0.161c-0.132,0.259-0.517,0.102-0.689,0.243
						c-0.263,0.337-0.663,0.467-0.984,0.67l-0.024-0.055c0.016,0.267-0.392-0.063-0.29,0.294l-0.161-0.087
						c0.004,0.196-0.333,0.008-0.345,0.259l0.012-0.047l-0.416,0.149l-0.016-0.114c-0.118-0.075,0.016,0.29-0.177,0.051l0.075,0.125
						c-0.36,0.067-0.572,0.404-0.847,0.635c-0.322-0.027-0.298-0.416-0.345-0.129l0.016,0.051c-0.023,0.106-0.298-0.224-0.258-0.071
						l0.094,0.208c-0.184,0-0.306-0.113-0.317,0.079l-0.051-0.086c0.051,0.318-0.161,0.31-0.071,0.651l-1.592,1.717l-1.777,1.403
						c-0.302-0.078-0.31-0.062-0.396,0.141l-0.051-0.074c0.13,0.172-0.094,0.109,0.027,0.274l-0.627,0.556l-0.109-0.141l0.047,0.137
						l-0.047-0.039l0.102,0.181c-0.431,0.607-1.27,0.76-1.788,1.27L34.11,26.91c-0.62,0.161-1.168,0.333-1.451,0.832
						C32.659,27.742,32.314,27.322,32.401,27.082z"/>
					<path fill="#24241F" d="M53.104,13.441l-0.142-0.274L53.104,13.441z"/>
					<polygon fill="#24241F" points="51.057,13.147 51.002,13.108 51.041,13.045 					"/>
					<path fill="#24241F" d="M50.602,13.277l0.071-0.227L50.602,13.277z"/>
					<path fill="#24241F" d="M50.096,13.108l-0.028-0.121L50.096,13.108z"/>
					<path fill="#24241F" d="M50.163,13.315l-0.11-0.062C50.092,13.328,50.107,13.167,50.163,13.315z"/>
					<path fill="#24241F" d="M49.238,13.516l-0.087,0.027C49.206,13.594,49.194,13.386,49.238,13.516z"/>
					<polygon fill="#24241F" points="48.924,13.853 48.896,13.873 48.861,13.754 					"/>
					<polygon fill="#24241F" points="42.321,17.97 42.336,17.907 42.384,17.986 					"/>
					<path fill="#24241F" d="M39.482,19.805l-0.09-0.055L39.482,19.805z"/>
					<polygon fill="#24241F" points="38.369,21.365 38.376,21.354 38.494,21.515 					"/>
				</g>
			</g>
		</g>
	</g>
	<linearGradient id="SVGID_1_" gradientUnits="userSpaceOnUse" x1="3.0713" y1="51.2539" x2="94.9814" y2="51.2539">
		<stop  offset="0" style="stop-color:#007BB5"/>
		<stop  offset="1" style="stop-color:#002151"/>
	</linearGradient>
	<path fill="url(#SVGID_1_)" d="M3.071,50.428c0,0,16.555,18.534,56.385,10.642c22.858-5.518,33.899-21.676,35.477-26.017
		c0.792,3.157-7.885,24.439-37.061,30.357C17.423,73.612,5.436,54.77,3.071,50.428z"/>
</g>
</svg>
