<?xml version="1.0" encoding="utf-8"?>
<!-- Generator: Adobe Illustrator 16.0.0, SVG Export Plug-In . SVG Version: 6.00 Build 0)  -->
<!DOCTYPE svg PUBLIC "-//W3C//DTD SVG 1.1//EN" "http://www.w3.org/Graphics/SVG/1.1/DTD/svg11.dtd">
<svg version="1.1" id="Layer_1" xmlns="http://www.w3.org/2000/svg" xmlns:xlink="http://www.w3.org/1999/xlink" x="0px" y="0px"
	 width="100px" height="100px" viewBox="0 0 100 100" enable-background="new 0 0 100 100" xml:space="preserve">
<g>
	<path fill="#231F20" d="M57.672,38.301c0,0,7.155-2.851,11.673-2.014c4.521,0.837,6.902,4.14,6.902,4.14s-1.758-3.019-6.527-5.034
		C64.949,33.378,53.532,37.069,57.672,38.301L57.672,38.301z"/>
	<path fill="#231F20" d="M61.458,21.669c-0.53,0.303-1.043,0.658-1.522,1.05c-0.958,0.775-1.801,1.692-2.517,2.705
		c-0.712,1.012-1.289,2.119-1.744,3.279c-0.449,1.157-0.759,2.365-0.972,3.589c-0.205,1.211-0.408,2.413-0.627,3.617
		c-0.213,1.204-0.445,2.392-0.723,3.576c-0.566,2.358-1.353,4.656-2.601,6.697c-0.625,1.022-1.353,1.97-2.166,2.85
		c-0.81,0.884-1.693,1.694-2.631,2.456c-0.463,0.378-0.944,0.746-1.434,1.104c-0.496,0.351-0.999,0.715-1.491,1.082
		c-0.494,0.375-0.983,0.763-1.459,1.174c-0.24,0.217-0.473,0.43-0.699,0.672c-0.222,0.243-0.444,0.506-0.622,0.827
		c-0.089,0.167-0.169,0.351-0.218,0.553c-0.048,0.198-0.059,0.415-0.044,0.62c0.052,0.419,0.215,0.753,0.373,1.047
		c0.337,0.584,0.677,1.049,0.999,1.578c0.335,0.529,0.705,1.039,1.045,1.529c0.17,0.242,0.326,0.488,0.432,0.714
		c0.11,0.232,0.164,0.442,0.151,0.651c-0.027,0.425-0.329,0.929-0.67,1.39c-0.174,0.24-0.353,0.43-0.57,0.746
		c-0.19,0.279-0.361,0.6-0.466,0.948c-0.104,0.351-0.148,0.729-0.099,1.106c0.049,0.367,0.183,0.726,0.355,1.036
		c0.175,0.31,0.397,0.576,0.638,0.819c0.113,0.107,0.229,0.216,0.351,0.31c-0.114,0.129-0.223,0.267-0.322,0.408
		c-0.204,0.291-0.39,0.614-0.525,0.956c-0.131,0.344-0.218,0.725-0.223,1.108c-0.015,0.386,0.064,0.777,0.211,1.131
		c0.142,0.357,0.354,0.672,0.592,0.945c0.12,0.141,0.247,0.27,0.378,0.388l0.175,0.161c0.054,0.055,0.104,0.104,0.161,0.159
		c0.197,0.209,0.357,0.433,0.448,0.668c0.083,0.236,0.106,0.502,0.069,0.782c-0.069,0.561-0.334,1.145-0.629,1.693
		c-0.153,0.28-0.315,0.554-0.488,0.827l-0.133,0.209c-0.049,0.071-0.099,0.155-0.135,0.235c-0.088,0.156-0.161,0.318-0.221,0.49
		c-0.508,1.332-0.386,2.843,0.267,4.075c0.324,0.628,0.772,1.171,1.299,1.609c0.528,0.449,1.129,0.792,1.751,1.053
		c1.257,0.516,2.597,0.712,3.917,0.756c2.652,0.074,5.266-0.411,7.787-1.11c-1.275,0.286-2.571,0.502-3.866,0.647
		c-1.299,0.146-2.606,0.206-3.9,0.112c-1.289-0.096-2.578-0.346-3.733-0.871c-0.578-0.264-1.122-0.595-1.584-1.006
		c-0.469-0.418-0.852-0.91-1.118-1.467c-0.542-1.097-0.604-2.426-0.157-3.546c0.059-0.138,0.121-0.267,0.195-0.395
		c0.036-0.067,0.071-0.121,0.116-0.189l0.134-0.202c0.182-0.28,0.361-0.563,0.529-0.861c0.328-0.586,0.641-1.214,0.762-1.956
		c0.056-0.368,0.041-0.776-0.092-1.157c-0.131-0.387-0.364-0.704-0.607-0.971c-0.063-0.065-0.127-0.132-0.188-0.192l-0.188-0.175
		c-0.111-0.102-0.209-0.206-0.305-0.321c-0.188-0.216-0.339-0.462-0.437-0.712c-0.208-0.507-0.178-1.066,0.04-1.592
		c0.106-0.267,0.253-0.521,0.427-0.76c0.087-0.114,0.182-0.235,0.283-0.348c0.094-0.107,0.209-0.223,0.302-0.307l0.464-0.408
		l-0.533-0.327c-0.095-0.058-0.217-0.142-0.321-0.235c-0.103-0.079-0.206-0.17-0.298-0.268c-0.194-0.195-0.356-0.404-0.481-0.631
		c-0.251-0.444-0.305-0.927-0.159-1.4c0.076-0.236,0.194-0.469,0.346-0.688c0.13-0.197,0.367-0.455,0.552-0.71
		c0.19-0.258,0.378-0.531,0.539-0.838c0.156-0.308,0.296-0.658,0.323-1.063c0.03-0.403-0.075-0.806-0.231-1.126
		c-0.15-0.316-0.329-0.598-0.511-0.856c-0.351-0.513-0.703-0.999-1.019-1.505c-0.319-0.522-0.687-1.046-0.96-1.531
		c-0.136-0.24-0.231-0.469-0.25-0.666c-0.025-0.194,0.021-0.378,0.139-0.597c0.233-0.425,0.665-0.847,1.103-1.234
		c0.437-0.392,0.913-0.767,1.396-1.134c0.485-0.364,0.972-0.725,1.468-1.086c0.501-0.364,0.996-0.742,1.474-1.137
		c1.927-1.565,3.667-3.432,4.945-5.597c0.642-1.076,1.168-2.22,1.586-3.394c0.419-1.177,0.735-2.378,0.999-3.586
		c0.526-2.415,0.844-4.848,1.188-7.273c0.344-2.382,1.1-4.733,2.412-6.771c0.657-1.018,1.451-1.946,2.365-2.749
		c0.917-0.8,1.929-1.508,3.069-1.96C62.547,21.088,61.993,21.362,61.458,21.669z"/>
	<radialGradient id="SVGID_1_" cx="4.9639" cy="36.77" r="46.8063" gradientUnits="userSpaceOnUse">
		<stop  offset="0" style="stop-color:#009345"/>
		<stop  offset="0.3752" style="stop-color:#006D2D"/>
		<stop  offset="1" style="stop-color:#002601"/>
	</radialGradient>
	<path fill="url(#SVGID_1_)" d="M41.887,79.557c0.061-0.172,0.133-0.334,0.221-0.49c0.037-0.08,0.086-0.164,0.135-0.235l0.133-0.209
		c0.172-0.273,0.334-0.547,0.488-0.827c0.295-0.549,0.56-1.133,0.629-1.693c0.037-0.28,0.014-0.546-0.069-0.782
		c-0.091-0.235-0.251-0.459-0.448-0.668c-0.056-0.055-0.107-0.104-0.161-0.159l-0.175-0.161c-0.131-0.118-0.258-0.247-0.378-0.388
		c-0.237-0.273-0.45-0.588-0.592-0.945c-0.147-0.354-0.226-0.745-0.211-1.131c0.005-0.384,0.092-0.765,0.223-1.108
		c0.135-0.342,0.321-0.665,0.525-0.956c0.099-0.142,0.208-0.279,0.322-0.408c-0.122-0.094-0.238-0.202-0.351-0.31
		c-0.241-0.243-0.463-0.51-0.638-0.819c-0.173-0.311-0.307-0.669-0.355-1.036c-0.049-0.378-0.005-0.756,0.099-1.106
		c0.105-0.349,0.275-0.669,0.466-0.948c0.218-0.316,0.396-0.506,0.57-0.746c0.341-0.461,0.643-0.965,0.67-1.39
		c0.013-0.209-0.041-0.419-0.151-0.651c-0.105-0.226-0.261-0.472-0.432-0.714c-0.341-0.49-0.71-1-1.045-1.529
		c-0.322-0.529-0.662-0.994-0.999-1.578c-0.158-0.294-0.32-0.628-0.373-1.047c-0.015-0.205-0.004-0.422,0.044-0.62
		c0.049-0.202,0.128-0.386,0.218-0.553c0.178-0.321,0.4-0.584,0.622-0.827c0.226-0.242,0.459-0.455,0.699-0.672
		c0.293-0.256,0.595-0.499,0.899-0.738C32.796,40.068,7.756,39.242,7.756,39.242c8.611,6.43,4.789,19.239,8.282,28.686
		c7.247,21.49,25.454,13.901,25.454,13.901c0.039-0.033,0.069-0.073,0.104-0.113C41.535,80.99,41.621,80.248,41.887,79.557z"/>
	<radialGradient id="SVGID_2_" cx="33.7261" cy="48.7861" r="42.3516" gradientUnits="userSpaceOnUse">
		<stop  offset="0" style="stop-color:#009345"/>
		<stop  offset="0.3752" style="stop-color:#006D2D"/>
		<stop  offset="1" style="stop-color:#002601"/>
	</radialGradient>
	<path fill="url(#SVGID_2_)" d="M41.887,79.557c0.061-0.172,0.133-0.334,0.221-0.49c0.037-0.08,0.086-0.164,0.135-0.235l0.133-0.209
		c0.172-0.273,0.334-0.547,0.488-0.827c0.295-0.549,0.56-1.133,0.629-1.693c0.037-0.28,0.014-0.546-0.069-0.782
		c-0.091-0.235-0.251-0.459-0.448-0.668c-0.056-0.055-0.107-0.104-0.161-0.159l-0.175-0.161c-0.131-0.118-0.258-0.247-0.378-0.388
		c-0.237-0.273-0.45-0.588-0.592-0.945c-0.147-0.354-0.226-0.745-0.211-1.131c0.005-0.384,0.092-0.765,0.223-1.108
		c0.135-0.342,0.321-0.665,0.525-0.956c0.099-0.142,0.208-0.279,0.322-0.408c-0.122-0.094-0.238-0.202-0.351-0.31
		c-0.241-0.243-0.463-0.51-0.638-0.819c-0.173-0.311-0.307-0.669-0.355-1.036c-0.049-0.378-0.005-0.756,0.099-1.106
		c0.105-0.349,0.275-0.669,0.466-0.948c0.218-0.316,0.396-0.506,0.57-0.746c0.341-0.461,0.643-0.965,0.67-1.39
		c0.013-0.209-0.041-0.419-0.151-0.651c-0.105-0.226-0.261-0.472-0.432-0.714c-0.341-0.49-0.71-1-1.045-1.529
		c-0.322-0.529-0.662-0.994-0.999-1.578c-0.158-0.294-0.32-0.628-0.373-1.047c-0.015-0.205-0.004-0.422,0.044-0.62
		c0.049-0.202,0.128-0.386,0.218-0.553c0.178-0.321,0.4-0.584,0.622-0.827c0.226-0.242,0.459-0.455,0.699-0.672
		c0.476-0.411,0.965-0.799,1.459-1.174c0.492-0.367,0.995-0.731,1.491-1.082c0.489-0.358,0.97-0.727,1.434-1.104
		c0.938-0.762,1.821-1.571,2.631-2.456c0.813-0.88,1.542-1.828,2.166-2.85c1.248-2.041,2.034-4.339,2.601-6.697
		c0.277-1.184,0.51-2.372,0.723-3.576c0.219-1.205,0.422-2.406,0.627-3.617c0.213-1.224,0.522-2.432,0.972-3.589
		c0.455-1.161,1.032-2.268,1.744-3.279c0.216-0.307,0.452-0.601,0.691-0.891c-0.988-3.917-1.079-7.891,0.567-11.986
		c0,0-29.969,19.647-29.869,43.624c0.032,7.935,2.093,19.54,12.909,26.286C41.491,81.506,41.531,80.488,41.887,79.557z"/>
	<path fill="#231F20" d="M76.756,19.736c-0.178,3.842,0.797,7.634,2.746,10.751c0.486,0.779,1.039,1.518,1.645,2.203
		c0.596,0.692,1.244,1.343,1.938,1.937c0.692,0.604,1.44,1.137,2.203,1.646c0.819,0.546,1.644,1.151,2.398,1.809
		c1.539,1.306,2.854,2.915,3.816,4.74c0.951,1.828,1.453,3.897,1.475,5.934c0.003,1.019-0.102,2.028-0.284,3.009
		c-0.203,0.985-0.496,1.937-0.844,2.86c-0.722,1.836-1.687,3.547-2.854,5.092c0.748-1.781,1.431-3.57,1.855-5.404
		c0.216-0.912,0.378-1.833,0.458-2.751c0.088-0.917,0.102-1.831,0.014-2.731c-0.088-0.897-0.236-1.781-0.499-2.635
		c-0.256-0.857-0.628-1.667-1.045-2.453c-0.852-1.576-2.065-2.935-3.412-4.159c-0.685-0.615-1.399-1.161-2.173-1.697
		c-0.822-0.57-1.601-1.208-2.333-1.896c-0.736-0.689-1.422-1.431-2.035-2.227c-0.606-0.803-1.149-1.654-1.62-2.544
		C76.364,27.664,75.812,23.49,76.756,19.736z"/>
	<path fill="#231F20" d="M64.24,49.585c-0.94,0.192-1.889,0.3-2.847,0.341c-1.768,0.077-3.556-0.044-5.382-0.162
		c-0.01-0.159-0.02-0.324-0.017-0.489c-0.003-0.357,0.011-0.729,0.047-1.093c0.055-0.746,0.159-1.498,0.247-2.271
		c-0.432,0.651-0.752,1.363-1.022,2.102c-0.175,0.516-0.323,1.048-0.398,1.623c-0.485,0.023-1.025-0.054-1.619-0.3
		c0.506,0.448,1.039,0.699,1.586,0.833c0,0.088-0.007,0.169-0.004,0.26l0.004,0.047c-0.782,0.465-1.89,0.773-3.266,0.203
		c0.897,0.809,1.896,1.012,2.922,0.948c-0.901,0.614-2.146,1.228-3.816,1.622c2.501,0.08,4.915-0.665,6.893-1.765
		c-0.681,0.76-1.747,1.64-3.387,2.321c2.092-0.243,3.98-1.167,5.481-2.349c0.209,0,0.416-0.006,0.624-0.014
		c-0.432,0.625-1.075,1.27-2.04,1.769c1.602-0.146,2.924-0.917,3.916-1.971c0.277-0.05,0.554-0.107,0.823-0.182
		c-0.229,0.32-0.546,0.634-1.002,0.938c1.016-0.293,1.73-0.781,2.23-1.353c0.114-0.044,0.229-0.084,0.337-0.139
		c0.962-0.435,1.846-1.059,2.496-1.858C66.113,49.08,65.186,49.387,64.24,49.585z"/>
</g>
</svg>
