<?xml version="1.0" encoding="iso-8859-1"?>
<!-- Generator: Adobe Illustrator 13.0.0, SVG Export Plug-In . SVG Version: 6.00 Build 14948)  -->
<!DOCTYPE svg PUBLIC "-//W3C//DTD SVG 1.1//EN" "http://www.w3.org/Graphics/SVG/1.1/DTD/svg11.dtd">
<svg version="1.1" id="Layer_1" xmlns="http://www.w3.org/2000/svg" xmlns:xlink="http://www.w3.org/1999/xlink" x="0px" y="0px"
	 width="100px" height="100px" viewBox="0 0 100 100" enable-background="new 0 0 100 100" xml:space="preserve">
<g>
	<path fill="none" d="M43.301,80.588c0.662,0.186,1.335,0.346,2.003,0.516C44.635,80.937,43.965,80.77,43.301,80.588z"/>
	<path fill="none" d="M46.459,43.417c-3.297,10.462-5.441,23.244,0.356,38.06c0.548,0.13,1.085,0.281,1.638,0.401
		c2.15,0.487,4.337,0.864,6.533,1.188l1.35-39.606L46.459,43.417z"/>
	<path fill="none" d="M58.864,83.564c0.968,0.102,1.936,0.182,2.905,0.246l0.17-40.341v-2.516h-2.905L58.864,83.564z"/>
	<path fill="none" d="M21.923,59.477c0.084,0.324,0.16,0.658,0.245,0.979c-0.651,0.321-1.263,0.67-1.8,1.081
		c-0.553,0.401-1.017,0.858-1.357,1.321c-0.17,0.24-0.304,0.481-0.406,0.723c-0.054,0.107-0.099,0.25-0.13,0.349l-0.04,0.136
		l-0.066,0.312c0.012-0.051,0.012-0.051,0.012-0.051V64.32c-0.003,0.02,0.001,0.004,0,0.006v0.022l-0.004,0.046L18.36,64.49
		l-0.009,0.18c-0.004,0.126-0.004,0.25,0.009,0.386c0.017,0.25,0.062,0.515,0.139,0.774c0.151,0.547,0.423,1.109,0.786,1.661
		c0.713,1.118,1.741,2.198,2.888,3.181c1.352,1.135,2.873,2.139,4.453,3.08C24.989,69.77,23.305,64.833,21.923,59.477z"/>
	<path fill="none" d="M48.363,37.847h9.733l-9.721-0.034C48.371,37.826,48.367,37.835,48.363,37.847z"/>
	<path fill="#41B4EB" d="M34.822,32.29c4.018,0,7.283-3.312,7.283-7.385c0-4.091-3.265-7.403-7.283-7.403
		c-4.022,0-7.291,3.312-7.291,7.403C27.531,28.978,30.799,32.29,34.822,32.29z"/>
	<path fill="#41B4EB" d="M52.392,17.502c0.494,4.421-3.56,10.981-8.17,17.699l5.112,0.019
		C52.184,27.582,54.521,21.614,52.392,17.502z"/>
	<path fill="#41B4EB" d="M48.375,37.813l-5.944-0.021c-0.013,0.019-0.026,0.037-0.039,0.056h5.971
		C48.367,37.835,48.371,37.826,48.375,37.813z"/>
	<path fill="#525F6E" d="M46.459,43.417l9.876,0.043l-1.35,39.606c1.018,0.148,2.036,0.315,3.054,0.426
		c0.274,0.031,0.55,0.041,0.824,0.072l0.17-42.611H38.917l-0.008,1.929l-0.001,0.5L46.459,43.417z"/>
	<polygon fill="#525F6E" points="58.096,37.847 58.966,37.847 58.977,35.254 58.952,35.26 59.016,17.354 56.418,17.341 
		56.359,35.245 49.333,35.22 44.221,35.201 38.937,35.183 38.926,37.779 42.431,37.792 48.375,37.813 	"/>
	<path fill="#525F6E" d="M81.969,43.543l0.01-2.59H61.939v2.516l-0.17,40.341c1.305,0.086,2.605,0.127,3.906,0.143l-1.062-40.478
		L81.969,43.543z"/>
	<polygon fill="#525F6E" points="82.008,35.34 64.551,35.272 64.623,17.375 62.025,17.375 61.959,35.26 61.948,37.847 
		81.988,37.847 	"/>
	<path fill="#41B4EB" d="M58.864,83.564c-0.274-0.031-0.55-0.041-0.824-0.072c-1.018-0.11-2.036-0.277-3.054-0.426
		c-2.195-0.324-4.383-0.701-6.533-1.188c-0.552-0.12-1.09-0.271-1.638-0.401c-5.798-14.816-3.654-27.598-0.356-38.06l-7.552-0.034
		l0.001-0.5c-2.936,4.319-5.457,8.382-6.409,11.618c-5.514-6.931-14.765-20.994-9.152-35.603
		c-6.059,10.373-5.031,25.458-1.955,38.458c-0.043-0.182-0.092-0.357-0.136-0.543c-1.045,0.373-2.09,0.857-3.098,1.5
		c-0.826,0.543-1.635,1.195-2.335,2.044c-0.354,0.42-0.666,0.886-0.934,1.401c-0.133,0.26-0.245,0.51-0.356,0.807l-0.156,0.463
		l-0.09,0.293c-0.611,2.494,0.125,4.727,1.099,6.477c0.996,1.767,2.277,3.159,3.611,4.418c2.693,2.492,5.707,4.359,8.783,6.012
		c6.188,3.242,12.797,5.422,19.484,6.922c6.748,1.463,13.623,2.266,20.611,1.936c3.482-0.188,7.005-0.615,10.497-1.75
		c1.74-0.572,3.496-1.295,5.139-2.482c0.816-0.59,1.607-1.303,2.281-2.195c0.33-0.447,0.63-0.938,0.875-1.467
		c0.125-0.269,0.229-0.524,0.326-0.83c0.049-0.151,0.104-0.33,0.135-0.473l0.066-0.297c0.509-2.506-0.331-4.648-1.357-6.304
		c-1.062-1.667-2.371-2.982-3.751-4.124c-1.929-1.562-3.978-2.85-6.09-3.955c-0.125,1.033-0.295,2.105-0.509,3.161
		c1.523,1.053,2.975,2.177,4.25,3.417c1.096,1.1,2.099,2.26,2.756,3.477c0.326,0.596,0.553,1.214,0.666,1.775
		c0.047,0.287,0.07,0.571,0.066,0.821c0,0.136-0.02,0.259-0.031,0.396L83.16,78.43l-0.023,0.09l-0.01,0.037
		c-0.508,2.034-3.258,3.439-6.135,4.242c-2.928,0.783-6.115,1.113-9.305,1.188c-0.668,0.013-1.342-0.027-2.012-0.033
		c-1.301-0.016-2.602-0.057-3.906-0.143C60.8,83.746,59.832,83.666,58.864,83.564z M45.305,81.104
		c-0.668-0.17-1.341-0.33-2.003-0.516C43.965,80.77,44.635,80.937,45.305,81.104z M19.285,67.491
		c-0.363-0.552-0.635-1.114-0.786-1.661c-0.077-0.26-0.122-0.524-0.139-0.774c-0.014-0.136-0.014-0.26-0.009-0.386l0.009-0.18
		l0.017-0.096l0.004-0.046v-0.022c0,0,0,0-0.012,0.051l0.066-0.312l0.04-0.136c0.031-0.099,0.076-0.241,0.13-0.349
		c0.102-0.241,0.236-0.482,0.406-0.723c0.34-0.463,0.804-0.92,1.357-1.321c0.537-0.411,1.148-0.76,1.8-1.081
		c-0.085-0.32-0.161-0.654-0.245-0.979c1.381,5.356,3.065,10.293,4.703,14.275c-1.581-0.941-3.101-1.945-4.453-3.08
		C21.026,69.689,19.998,68.609,19.285,67.491z"/>
	<path fill="#41B4EB" d="M18.382,64.32v0.006C18.383,64.324,18.379,64.34,18.382,64.32z"/>
</g>
</svg>
